<?xml version="1.0" encoding="UTF-8"?>
<svg id="Ebene_1" data-name="Ebene 1" xmlns="http://www.w3.org/2000/svg" viewBox="0 0 648.5 326.89">
  <defs>
    <style>
      .cls-1, .cls-2, .cls-3, .cls-4, .cls-5 {
        fill: none;
      }

      .cls-1, .cls-2, .cls-3, .cls-4, .cls-5, .cls-6 {
        stroke-miterlimit: 10;
      }

      .cls-1, .cls-2, .cls-3, .cls-5, .cls-6 {
        stroke: #1d1d1b;
      }

      .cls-1, .cls-5 {
        stroke-width: 1.42px;
      }

      .cls-2 {
        stroke-width: .75px;
      }

      .cls-3 {
        stroke-width: .5px;
      }

      .cls-7 {
        fill: #1d1d1b;
      }

      .cls-8 {
        fill: #575756;
      }

      .cls-4 {
        stroke: #ef7d00;
      }

      .cls-4, .cls-6 {
        stroke-width: .25px;
      }

      .cls-5 {
        stroke-dasharray: 2.78 2.78;
      }

      .cls-6 {
        fill: #bbdaf4;
      }
    </style>
  </defs>
  <rect class="cls-4" x=".12" y="259.32" width="648.25" height="67.44"/>
  <g>
    <path class="cls-7" d="M554.15,290.53c-.44.32-.97.47-1.36.47-2.13,0-2.4-1.75-2.4-2.37,0-1.12.75-2.35,2.44-2.35.46,0,.87.12,1.21.37l-.27.46c-.26-.13-.59-.23-.93-.23-.74,0-1.58.49-1.58,1.71,0,.94.48,1.82,1.57,1.82.39,0,.75-.1,1.1-.32l.22.45Z"/>
    <path class="cls-7" d="M554.72,288.59c0-1.46,1.08-2.3,2.21-2.3s2.22.85,2.22,2.3-.89,2.41-2.22,2.41-2.21-1.02-2.21-2.41ZM555.59,288.59c0,.85.29,1.84,1.34,1.84s1.35-.99,1.35-1.84-.33-1.73-1.35-1.73-1.34.92-1.34,1.73Z"/>
    <path class="cls-7" d="M560.98,286.95c.42-.45,1.07-.67,1.54-.67,1.04,0,1.59.58,1.59,1.71v2.9h-.81v-2.73c0-.85-.36-1.29-1.09-1.29-.64,0-1.22.44-1.22,1.31v2.71h-.81v-4.5h.8v.56Z"/>
    <path class="cls-7" d="M565.49,290.9v-4.03h-.72v-.47h.72v-.55c0-1.21.81-1.57,1.31-1.57.23,0,.51.04.71.19l-.18.41c-.13-.04-.26-.06-.44-.06-.14,0-.59.04-.59.77v.81h1.08v.47h-1.08v4.03h-.81ZM568.02,284.91c0-.22.19-.48.51-.48s.51.25.51.48c0,.24-.12.55-.51.55s-.51-.31-.51-.55ZM568.94,286.39v4.5h-.81v-4.5h.81Z"/>
    <path class="cls-7" d="M574.31,290.73c0,1.72-1.07,2.41-2.29,2.41-.67,0-1.33-.13-1.85-.45l.22-.53c.55.31,1.05.4,1.61.4.93,0,1.49-.59,1.49-1.77v-.61h-.02c-.32.44-.79.82-1.5.82-1.24,0-2.02-.97-2.02-2.41,0-1.17.86-2.3,2.15-2.3.54,0,1.12.27,1.37.73h.02v-.62h.81v4.34ZM573.5,288.5c0-.85-.46-1.64-1.34-1.64-.94,0-1.32.74-1.32,1.69s.41,1.87,1.27,1.87c.98,0,1.39-.93,1.39-1.93Z"/>
    <path class="cls-7" d="M577.78,291.87l2.44-7.59h.58l-2.43,7.59h-.59Z"/>
    <path class="cls-7" d="M586.41,287.11c-.32-.22-.58-.29-.83-.29-.29,0-.66.13-.66.51s.41.57.93.96c.58.44.95.81.95,1.44,0,.76-.75,1.27-1.58,1.27-.51,0-1.09-.22-1.39-.57l.4-.46c.26.24.61.45.97.45s.77-.2.77-.64c0-.52-.47-.75-.89-1.05-.51-.37-.96-.67-.96-1.29,0-.71.7-1.16,1.49-1.16.44,0,.87.18,1.11.41l-.32.41Z"/>
    <path class="cls-7" d="M588.79,286.39h1.18v.47h-1.18v2.55c0,.63.13,1.01.62,1.01.3,0,.47-.07.62-.15l.2.45c-.28.18-.61.29-.92.29-.9,0-1.33-.52-1.33-1.44v-2.7h-.63v-.47h.63v-1.08l.81-.27v1.35Z"/>
    <path class="cls-7" d="M592.99,290.41c-.31.32-.71.59-1.12.59-.76,0-1.28-.54-1.28-1.39,0-.78.67-1.28,1.6-1.56l1.09-.34c-.04-.55-.46-.9-.9-.9-.52,0-.86.22-1.18.49l-.32-.4c.45-.43.91-.61,1.54-.61.67,0,1.67.22,1.67,1.53v1.98c0,.34.04.77.2,1.1h-.88c-.11-.19-.13-.48-.13-.77l-.29.28ZM592.51,288.48c-.71.22-1.08.56-1.08,1.12,0,.47.32.77.65.77.58,0,1.31-.71,1.21-2.12l-.77.22Z"/>
    <path class="cls-7" d="M596.4,286.39h1.18v.47h-1.18v2.55c0,.63.13,1.01.62,1.01.3,0,.47-.07.62-.15l.2.45c-.28.18-.61.29-.92.29-.9,0-1.33-.52-1.33-1.44v-2.7h-.63v-.47h.63v-1.08l.81-.27v1.35Z"/>
    <path class="cls-7" d="M601.51,290.37c-.46.4-.86.63-1.45.63-1.04,0-1.59-.58-1.59-1.71v-2.9h.81v2.72c0,.85.36,1.3,1.09,1.3.62,0,1.13-.51,1.13-1.39v-2.63h.81v4.5h-.8v-.52Z"/>
    <path class="cls-7" d="M605.76,287.11c-.32-.22-.58-.29-.83-.29-.29,0-.66.13-.66.51s.41.57.93.96c.58.44.95.81.95,1.44,0,.76-.75,1.27-1.58,1.27-.51,0-1.09-.22-1.39-.57l.4-.46c.26.24.61.45.97.45s.77-.2.77-.64c0-.52-.47-.75-.89-1.05-.51-.37-.96-.67-.96-1.29,0-.71.7-1.16,1.49-1.16.44,0,.87.18,1.11.41l-.32.41Z"/>
  </g>
  <rect class="cls-4" x=".12" y=".12" width="648.25" height="245.84"/>
  <g>
    <path class="cls-8" d="M14.11,311.56c-.33-.27-1.08-.61-1.83-.61-1.73,0-2.75,1.24-2.75,2.88,0,1.77,1.22,2.96,2.75,2.96.76,0,1.36-.24,1.77-.52l.38.58c-.47.32-1.3.64-2.2.64-2.5,0-3.77-1.71-3.77-3.64,0-1.76,1.38-3.6,3.89-3.6,1,0,1.7.35,2.16.71l-.4.6Z"/>
    <path class="cls-8" d="M18.37,310.37l2.61,7h-1.12l-.72-2.06h-2.67l-.75,2.06h-.94l2.85-7h.74ZM18.91,314.61c-.35-.97-.69-1.94-1.04-3.2h-.02c-.36,1.26-.73,2.23-1.11,3.2h2.17Z"/>
    <path class="cls-8" d="M27.91,317.36h-.76c-1.52-1.82-4.13-4.96-4.55-5.57h-.02v5.57h-.8v-7h.72c1.54,1.82,4.12,4.88,4.59,5.58h.02v-5.58h.8v7Z"/>
    <path class="cls-8" d="M36.2,316.96c-.49.35-1.08.52-1.51.52-2.37,0-2.67-1.94-2.67-2.63,0-1.25.83-2.61,2.71-2.61.51,0,.97.13,1.34.41l-.3.51c-.29-.14-.66-.26-1.03-.26-.82,0-1.75.54-1.75,1.9,0,1.04.53,2.02,1.74,2.02.43,0,.83-.11,1.22-.36l.25.5Z"/>
    <path class="cls-8" d="M36.83,314.81c0-1.62,1.2-2.56,2.46-2.56s2.47.94,2.47,2.56-.99,2.68-2.47,2.68-2.46-1.13-2.46-2.68ZM37.8,314.81c0,.94.32,2.04,1.49,2.04s1.5-1.1,1.5-2.04-.37-1.92-1.5-1.92-1.49,1.02-1.49,1.92Z"/>
    <path class="cls-8" d="M43.79,312.99c.47-.5,1.19-.74,1.71-.74,1.15,0,1.77.64,1.77,1.9v3.22h-.9v-3.03c0-.94-.4-1.43-1.21-1.43-.71,0-1.36.49-1.36,1.45v3.01h-.9v-5h.89v.62Z"/>
    <path class="cls-8" d="M49.86,312.37h1.31v.52h-1.31v2.83c0,.7.14,1.12.69,1.12.33,0,.52-.08.69-.17l.22.5c-.31.2-.68.32-1.02.32-1,0-1.48-.58-1.48-1.6v-3h-.7v-.52h.7v-1.2l.9-.3v1.5Z"/>
    <path class="cls-8" d="M53.08,312.99l.36-.38c.21-.21.54-.36.75-.36s.55.16.83.49l-.41.58c-.22-.11-.44-.21-.67-.21-.46,0-.84.46-.84,1.57v2.69h-.9v-5h.88v.62Z"/>
    <path class="cls-8" d="M55.34,314.81c0-1.62,1.2-2.56,2.46-2.56s2.47.94,2.47,2.56-.99,2.68-2.47,2.68-2.46-1.13-2.46-2.68ZM56.31,314.81c0,.94.32,2.04,1.49,2.04s1.5-1.1,1.5-2.04-.37-1.92-1.5-1.92-1.49,1.02-1.49,1.92Z"/>
    <path class="cls-8" d="M61.41,317.36v-7.35h.9v7.35h-.9Z"/>
    <path class="cls-8" d="M63.79,317.36v-7.35h.9v7.35h-.9Z"/>
    <path class="cls-8" d="M66.76,314.93c0,1,.7,1.92,1.69,1.92.46,0,1.02-.17,1.37-.43l.26.49c-.52.37-1.14.58-1.66.58-1.56,0-2.59-.96-2.59-2.72s1.24-2.52,2.37-2.52c1.52,0,2.03,1.37,1.93,2.68h-3.37ZM69.31,314.33c0-.78-.33-1.44-1.12-1.44-.96,0-1.34.8-1.37,1.44h2.49Z"/>
    <path class="cls-8" d="M72.12,312.99l.36-.38c.21-.21.54-.36.75-.36s.55.16.83.49l-.41.58c-.22-.11-.44-.21-.67-.21-.46,0-.84.46-.84,1.57v2.69h-.9v-5h.88v.62Z"/>
  </g>
  <g>
    <line class="cls-1" x1="386.01" y1="287.73" x2="384.59" y2="287.73"/>
    <line class="cls-5" x1="381.81" y1="287.73" x2="355.36" y2="287.73"/>
    <line class="cls-1" x1="353.97" y1="287.73" x2="352.55" y2="287.73"/>
  </g>
  <rect class="cls-2" x="7.5" y="277.1" width="107.72" height="21.26" rx="8.77" ry="8.77"/>
  <g>
    <path class="cls-7" d="M27.86,286.95c.37-.43.91-.67,1.4-.67.71,0,1.15.3,1.43.67.43-.4,1.04-.67,1.55-.67,1,0,1.5.65,1.53,1.6v3.01h-.81v-2.68c0-.65-.16-1.3-.99-1.3-.68,0-1.15.36-1.15,1.27v2.71h-.81v-2.68c0-.85-.36-1.3-1.02-1.3s-1.12.44-1.12,1.3v2.67h-.81v-4.5h.8v.56Z"/>
    <path class="cls-7" d="M35.64,288.69c0,.9.63,1.73,1.52,1.73.41,0,.92-.15,1.23-.39l.23.44c-.47.33-1.03.52-1.49.52-1.4,0-2.33-.86-2.33-2.45s1.12-2.27,2.13-2.27c1.37,0,1.83,1.23,1.74,2.41h-3.03ZM37.94,288.15c0-.7-.3-1.3-1.01-1.3-.86,0-1.21.72-1.23,1.3h2.24Z"/>
    <path class="cls-7" d="M41.79,287.11c-.32-.22-.58-.29-.83-.29-.29,0-.66.14-.66.51s.41.57.93.95c.58.44.95.81.95,1.44,0,.76-.75,1.27-1.58,1.27-.51,0-1.09-.23-1.39-.57l.4-.46c.26.24.61.45.97.45s.77-.2.77-.64c0-.52-.47-.75-.89-1.05-.51-.37-.96-.68-.96-1.29,0-.71.7-1.16,1.49-1.16.44,0,.87.18,1.11.41l-.32.41Z"/>
    <path class="cls-7" d="M45.29,287.11c-.32-.22-.58-.29-.83-.29-.29,0-.66.14-.66.51s.41.57.93.95c.58.44.95.81.95,1.44,0,.76-.75,1.27-1.58,1.27-.51,0-1.09-.23-1.39-.57l.4-.46c.26.24.61.45.97.45s.77-.2.77-.64c0-.52-.47-.75-.89-1.05-.51-.37-.96-.68-.96-1.29,0-.71.7-1.16,1.49-1.16.44,0,.87.18,1.11.41l-.32.41Z"/>
    <path class="cls-7" d="M48.77,290.4c-.31.32-.71.59-1.12.59-.76,0-1.28-.54-1.28-1.39,0-.78.67-1.28,1.6-1.56l1.09-.34c-.04-.55-.46-.9-.9-.9-.52,0-.86.22-1.18.49l-.31-.41c.45-.43.91-.61,1.54-.61.68,0,1.67.22,1.67,1.53v1.98c0,.34.04.77.2,1.1h-.88c-.11-.19-.13-.48-.13-.76l-.29.28ZM48.28,288.48c-.71.22-1.08.56-1.08,1.12,0,.47.32.77.65.77.58,0,1.31-.71,1.21-2.12l-.77.23Z"/>
    <path class="cls-7" d="M55.22,290.73c0,1.72-1.07,2.41-2.29,2.41-.67,0-1.33-.13-1.85-.45l.23-.53c.55.32,1.05.41,1.61.41.93,0,1.49-.59,1.49-1.77v-.61h-.02c-.32.44-.79.82-1.5.82-1.24,0-2.02-.97-2.02-2.41,0-1.17.86-2.3,2.15-2.3.54,0,1.12.27,1.37.73h.02v-.62h.81v4.34ZM54.4,288.5c0-.85-.46-1.64-1.34-1.64-.94,0-1.32.74-1.32,1.69s.41,1.87,1.27,1.87c.98,0,1.4-.93,1.4-1.93Z"/>
    <path class="cls-7" d="M57.06,288.69c0,.9.63,1.73,1.52,1.73.41,0,.92-.15,1.23-.39l.23.44c-.47.33-1.03.52-1.49.52-1.4,0-2.33-.86-2.33-2.45s1.12-2.27,2.13-2.27c1.37,0,1.83,1.23,1.74,2.41h-3.03ZM59.36,288.15c0-.7-.3-1.3-1.01-1.3-.86,0-1.21.72-1.23,1.3h2.24Z"/>
    <path class="cls-7" d="M63.66,284.27h.81v2.82h.02c.33-.54.97-.81,1.48-.81,1.76,0,2.04,1.58,2.04,2.22,0,1.37-.81,2.49-2.13,2.49-.57,0-1.05-.27-1.39-.7h-.02v.59h-.81v-6.62ZM67.13,288.51c0-.82-.41-1.66-1.25-1.66-.92,0-1.41.71-1.41,1.87,0,.86.4,1.69,1.4,1.69s1.26-1.09,1.26-1.91Z"/>
    <path class="cls-7" d="M72.04,290.37c-.46.4-.86.63-1.45.63-1.04,0-1.59-.58-1.59-1.71v-2.9h.81v2.72c0,.85.36,1.3,1.09,1.3.62,0,1.13-.51,1.13-1.39v-2.63h.81v4.5h-.8v-.52Z"/>
    <path class="cls-7" d="M74.21,290.89v-4.03h-.72v-.47h.72v-.55c0-1.21.81-1.57,1.31-1.57.23,0,.51.05.71.19l-.18.41c-.13-.04-.26-.06-.44-.06-.14,0-.59.04-.59.76v.81h1.08v.47h-1.08v4.03h-.81Z"/>
    <path class="cls-7" d="M76.88,290.89v-4.03h-.72v-.47h.72v-.55c0-1.21.81-1.57,1.31-1.57.23,0,.51.05.71.19l-.18.41c-.13-.04-.26-.06-.44-.06-.14,0-.59.04-.59.76v.81h1.08v.47h-1.08v4.03h-.81Z"/>
    <path class="cls-7" d="M80.03,288.69c0,.9.63,1.73,1.52,1.73.41,0,.92-.15,1.23-.39l.23.44c-.47.33-1.03.52-1.49.52-1.4,0-2.33-.86-2.33-2.45s1.12-2.27,2.13-2.27c1.37,0,1.83,1.23,1.74,2.41h-3.03ZM82.32,288.15c0-.7-.3-1.3-1.01-1.3-.86,0-1.21.72-1.23,1.3h2.24Z"/>
    <path class="cls-7" d="M84.85,286.95l.32-.34c.19-.19.49-.32.67-.32.2,0,.5.14.75.44l-.37.52c-.2-.1-.4-.19-.6-.19-.41,0-.76.41-.76,1.41v2.42h-.81v-4.5h.79v.56Z"/>
    <path class="cls-7" d="M92.19,290.89h-.87v-5.7l-1.23.5-.22-.53,1.72-.68h.6v6.41Z"/>
  </g>
  <g>
    <line class="cls-3" x1="61.36" y1="273.52" x2="61.36" y2="229.82"/>
    <polygon class="cls-7" points="63.85 272.79 61.36 277.1 58.86 272.79 63.85 272.79"/>
    <polygon class="cls-7" points="63.85 230.55 61.36 226.23 58.86 230.55 63.85 230.55"/>
  </g>
  <g>
    <line class="cls-3" x1="180.04" y1="201.38" x2="180.03" y2="178.49"/>
    <polygon class="cls-7" points="182.53 200.65 180.04 204.97 177.55 200.66 182.53 200.65"/>
  </g>
  <rect class="cls-2" x="124.88" y="277.1" width="107.72" height="21.26" rx="8.77" ry="8.77"/>
  <g>
    <path class="cls-7" d="M146.29,286.95c.37-.43.91-.67,1.4-.67.71,0,1.15.3,1.43.67.43-.4,1.04-.67,1.55-.67,1,0,1.5.65,1.53,1.6v3.01h-.81v-2.68c0-.65-.16-1.3-.99-1.3-.68,0-1.15.36-1.15,1.27v2.71h-.81v-2.68c0-.85-.36-1.3-1.02-1.3s-1.12.44-1.12,1.3v2.67h-.81v-4.5h.8v.56Z"/>
    <path class="cls-7" d="M154.06,288.69c0,.9.63,1.73,1.52,1.73.41,0,.92-.15,1.23-.39l.23.44c-.47.33-1.03.52-1.49.52-1.4,0-2.33-.86-2.33-2.45s1.12-2.27,2.13-2.27c1.37,0,1.83,1.23,1.74,2.41h-3.03ZM156.36,288.15c0-.7-.3-1.3-1.01-1.3-.86,0-1.21.72-1.23,1.3h2.24Z"/>
    <path class="cls-7" d="M160.21,287.11c-.32-.22-.58-.29-.83-.29-.29,0-.66.14-.66.51s.41.57.93.95c.58.44.95.81.95,1.44,0,.76-.75,1.27-1.58,1.27-.51,0-1.09-.23-1.39-.57l.4-.46c.26.24.61.45.97.45s.77-.2.77-.64c0-.52-.47-.75-.89-1.05-.51-.37-.96-.68-.96-1.29,0-.71.7-1.16,1.49-1.16.44,0,.87.18,1.11.41l-.32.41Z"/>
    <path class="cls-7" d="M163.71,287.11c-.32-.22-.58-.29-.83-.29-.29,0-.66.14-.66.51s.41.57.93.95c.58.44.95.81.95,1.44,0,.76-.75,1.27-1.58,1.27-.51,0-1.09-.23-1.39-.57l.4-.46c.26.24.61.45.97.45s.77-.2.77-.64c0-.52-.47-.75-.89-1.05-.51-.37-.96-.68-.96-1.29,0-.71.7-1.16,1.49-1.16.44,0,.87.18,1.11.41l-.32.41Z"/>
    <path class="cls-7" d="M167.2,290.4c-.31.32-.71.59-1.12.59-.76,0-1.28-.54-1.28-1.39,0-.78.67-1.28,1.6-1.56l1.09-.34c-.04-.55-.46-.9-.9-.9-.52,0-.86.22-1.18.49l-.31-.41c.45-.43.91-.61,1.54-.61.68,0,1.67.22,1.67,1.53v1.98c0,.34.04.77.2,1.1h-.88c-.11-.19-.13-.48-.13-.76l-.29.28ZM166.71,288.48c-.71.22-1.08.56-1.08,1.12,0,.47.32.77.65.77.58,0,1.31-.71,1.21-2.12l-.77.23Z"/>
    <path class="cls-7" d="M173.64,290.73c0,1.72-1.07,2.41-2.29,2.41-.67,0-1.33-.13-1.85-.45l.23-.53c.55.32,1.05.41,1.61.41.93,0,1.49-.59,1.49-1.77v-.61h-.02c-.32.44-.79.82-1.5.82-1.24,0-2.02-.97-2.02-2.41,0-1.17.86-2.3,2.15-2.3.54,0,1.12.27,1.37.73h.02v-.62h.81v4.34ZM172.83,288.5c0-.85-.46-1.64-1.34-1.64-.94,0-1.32.74-1.32,1.69s.41,1.87,1.27,1.87c.98,0,1.4-.93,1.4-1.93Z"/>
    <path class="cls-7" d="M175.48,288.69c0,.9.63,1.73,1.52,1.73.41,0,.92-.15,1.23-.39l.23.44c-.47.33-1.03.52-1.49.52-1.4,0-2.33-.86-2.33-2.45s1.12-2.27,2.13-2.27c1.37,0,1.83,1.23,1.74,2.41h-3.03ZM177.78,288.15c0-.7-.3-1.3-1.01-1.3-.86,0-1.21.72-1.23,1.3h2.24Z"/>
    <path class="cls-7" d="M182.08,284.27h.81v2.82h.02c.33-.54.97-.81,1.48-.81,1.76,0,2.04,1.58,2.04,2.22,0,1.37-.81,2.49-2.13,2.49-.57,0-1.05-.27-1.39-.7h-.02v.59h-.81v-6.62ZM185.56,288.51c0-.82-.41-1.66-1.25-1.66-.92,0-1.41.71-1.41,1.87,0,.86.4,1.69,1.4,1.69s1.26-1.09,1.26-1.91Z"/>
    <path class="cls-7" d="M190.46,290.37c-.46.4-.86.63-1.45.63-1.04,0-1.59-.58-1.59-1.71v-2.9h.81v2.72c0,.85.36,1.3,1.09,1.3.62,0,1.13-.51,1.13-1.39v-2.63h.81v4.5h-.8v-.52Z"/>
    <path class="cls-7" d="M192.64,290.89v-4.03h-.72v-.47h.72v-.55c0-1.21.81-1.57,1.31-1.57.23,0,.51.05.71.19l-.18.41c-.13-.04-.26-.06-.44-.06-.14,0-.59.04-.59.76v.81h1.08v.47h-1.08v4.03h-.81Z"/>
    <path class="cls-7" d="M195.3,290.89v-4.03h-.72v-.47h.72v-.55c0-1.21.81-1.57,1.31-1.57.23,0,.51.05.71.19l-.18.41c-.13-.04-.26-.06-.44-.06-.14,0-.59.04-.59.76v.81h1.08v.47h-1.08v4.03h-.81Z"/>
    <path class="cls-7" d="M198.45,288.69c0,.9.63,1.73,1.52,1.73.41,0,.92-.15,1.23-.39l.23.44c-.47.33-1.03.52-1.49.52-1.4,0-2.33-.86-2.33-2.45s1.12-2.27,2.13-2.27c1.37,0,1.83,1.23,1.74,2.41h-3.03ZM200.75,288.15c0-.7-.3-1.3-1.01-1.3-.86,0-1.21.72-1.23,1.3h2.24Z"/>
    <path class="cls-7" d="M203.28,286.95l.32-.34c.19-.19.49-.32.67-.32.2,0,.5.14.75.44l-.37.52c-.2-.1-.4-.19-.6-.19-.41,0-.76.41-.76,1.41v2.42h-.81v-4.5h.79v.56Z"/>
    <path class="cls-7" d="M207.93,290.41l1.34-1.39c1.78-1.86,1.88-2.32,1.88-2.84s-.4-1.04-1.01-1.04-1.05.34-1.38.65l-.42-.39c.37-.47.99-.92,1.94-.92,1.07,0,1.83.68,1.83,1.64,0,.7-.3,1.26-1.55,2.56l-1.47,1.53h3.05v.68h-4.22v-.48Z"/>
  </g>
  <g>
    <path class="cls-8" d="M16.16,7.13c-.33-.27-1.08-.61-1.83-.61-1.73,0-2.75,1.24-2.75,2.88,0,1.77,1.22,2.96,2.75,2.96.76,0,1.36-.24,1.77-.52l.38.58c-.47.32-1.3.64-2.2.64-2.5,0-3.77-1.71-3.77-3.64,0-1.76,1.38-3.6,3.89-3.6,1,0,1.7.35,2.16.71l-.4.6Z"/>
    <path class="cls-8" d="M20.42,5.94l2.61,7h-1.12l-.72-2.06h-2.67l-.75,2.06h-.94l2.85-7h.74ZM20.96,10.18c-.35-.97-.69-1.94-1.04-3.2h-.02c-.36,1.26-.73,2.23-1.11,3.2h2.17Z"/>
    <path class="cls-8" d="M29.96,12.94h-.76c-1.52-1.82-4.13-4.96-4.55-5.57h-.02v5.57h-.8v-7h.72c1.54,1.82,4.12,4.88,4.59,5.58h.02v-5.58h.8v7Z"/>
    <path class="cls-8" d="M32.44,8.72h.02c.37-.6,1.08-.9,1.64-.9,1.95,0,2.27,1.75,2.27,2.47,0,1.52-.9,2.77-2.37,2.77-.63,0-1.17-.3-1.54-.78h-.02v3.16h-.9v-7.5h.9v.78ZM35.4,10.3c0-.91-.46-1.84-1.39-1.84-1.02,0-1.57.79-1.57,2.08,0,.96.44,1.88,1.56,1.88s1.4-1.21,1.4-2.12Z"/>
    <path class="cls-8" d="M37.39,6.29c0-.25.21-.53.57-.53s.57.28.57.53c0,.27-.13.61-.57.61s-.57-.34-.57-.61ZM38.41,7.94v5h-.9v-5h.9Z"/>
    <path class="cls-8" d="M40.48,10.5c0,1,.7,1.92,1.69,1.92.46,0,1.02-.17,1.37-.43l.26.49c-.52.37-1.14.58-1.66.58-1.56,0-2.59-.96-2.59-2.72s1.24-2.52,2.37-2.52c1.52,0,2.03,1.37,1.93,2.68h-3.37ZM43.03,9.9c0-.78-.33-1.44-1.12-1.44-.96,0-1.34.8-1.37,1.44h2.49Z"/>
    <path class="cls-8" d="M51.38,6.64h-2.48v2.66h2.43v.7h-2.43v2.94h-.97v-7h3.45v.7Z"/>
    <path class="cls-8" d="M54.98,5.94c2.82,0,3.8,1.61,3.8,3.29,0,2.32-1.48,3.71-3.96,3.71h-2.08v-7h2.24ZM53.71,12.24h1.08c1.97,0,2.92-.98,2.92-3.03,0-1.56-.87-2.57-2.71-2.57h-1.29v5.6Z"/>
    <path class="cls-8" d="M65.68,5.94l2.61,7h-1.12l-.72-2.06h-2.67l-.75,2.06h-.94l2.85-7h.74ZM66.22,10.18c-.35-.97-.69-1.94-1.04-3.2h-.02c-.36,1.26-.73,2.23-1.11,3.2h2.17Z"/>
    <path class="cls-8" d="M70.06,12.94h-.97v-7h1.76c1.48,0,2.39.66,2.39,2.02,0,1.18-1.01,2.25-2.58,2.25h-.31v-.64h.32c.94-.06,1.53-.56,1.53-1.6,0-.77-.43-1.33-1.47-1.33h-.67v6.3Z"/>
    <path class="cls-8" d="M74.46,12.94v-7h.97v7h-.97Z"/>
  </g>
  <g>
    <line class="cls-3" x1="298.7" y1="204.97" x2="298.7" y2="182.07"/>
    <polygon class="cls-7" points="301.19 182.8 298.7 178.49 296.2 182.8 301.19 182.8"/>
  </g>
  <g>
    <rect class="cls-2" x="7.5" y="204.97" width="107.72" height="21.26" rx="8.77" ry="8.77"/>
    <g>
      <path class="cls-7" d="M32.7,214.28c1.25,0,1.99.82,1.99,2.05,0,.15,0,.3-.03.41h-3.42c.05.95.72,1.54,1.67,1.54.51,0,.93-.15,1.33-.41l.26.49c-.43.28-.98.51-1.68.51-1.3,0-2.35-.85-2.35-2.29s1.09-2.3,2.22-2.3ZM34.01,216.25c0-.89-.49-1.39-1.3-1.39-.71,0-1.37.5-1.48,1.39h2.77Z"/>
      <path class="cls-7" d="M38.49,212.75c.71,0,1.27.34,1.61.72l-.42.48c-.31-.32-.69-.54-1.19-.54-1.13,0-1.86.92-1.86,2.39s.73,2.42,1.86,2.42c.54,0,.95-.23,1.32-.66l.43.46c-.47.54-1.04.85-1.8.85-1.49,0-2.59-1.13-2.59-3.06s1.1-3.06,2.64-3.06Z"/>
      <path class="cls-7" d="M41.58,212.86h1.81c1.31,0,2.18.44,2.18,1.74s-.88,1.83-2.18,1.83h-1.06v2.34h-.75v-5.91ZM43.29,215.81c1.04,0,1.53-.38,1.53-1.22s-.5-1.13-1.53-1.13h-.96v2.35h.96Z"/>
      <path class="cls-7" d="M50.92,219.38v.64h-4.32v-.64h4.32Z"/>
      <path class="cls-7" d="M52.39,212.86h1.62c1.21,0,2.03.41,2.03,1.44,0,.58-.34,1.11-1.04,1.29v.04c.86.14,1.37.6,1.37,1.41,0,1.16-.91,1.73-2.22,1.73h-1.76v-5.91ZM53.88,215.38c1.01,0,1.41-.36,1.41-1.02s-.47-.91-1.38-.91h-.77v1.93h.74ZM54.03,218.17c1.01,0,1.59-.37,1.59-1.17,0-.73-.56-1.06-1.59-1.06h-.89v2.23h.89Z"/>
      <path class="cls-7" d="M57.57,212.86h.76v3.69c0,1.22.53,1.67,1.24,1.67s1.25-.44,1.25-1.67v-3.69h.73v3.67c0,1.69-.83,2.34-1.98,2.34s-2-.65-2-2.34v-3.67Z"/>
      <path class="cls-7" d="M63.47,212.86h3.61v.63h-2.86v2h2.42v.63h-2.42v2.65h-.75v-5.91Z"/>
      <path class="cls-7" d="M68.87,212.86h3.61v.63h-2.86v2h2.42v.63h-2.42v2.65h-.75v-5.91Z"/>
      <path class="cls-7" d="M74.09,212.86h3.65v.63h-2.89v1.85h2.44v.64h-2.44v2.14h2.98v.64h-3.74v-5.91Z"/>
      <path class="cls-7" d="M82.58,218.76l-1.42-2.49h-1.05v2.49h-.75v-5.91h1.84c1.2,0,2.06.43,2.06,1.66,0,.92-.52,1.47-1.32,1.67l1.5,2.58h-.86ZM80.11,215.66h.98c.92,0,1.42-.38,1.42-1.14s-.5-1.05-1.42-1.05h-.98v2.2Z"/>
      <path class="cls-7" d="M88.72,219.38v.64h-4.32v-.64h4.32Z"/>
      <path class="cls-7" d="M94.01,218.15v.61h-3.87v-.61h1.63v-4.23h-1.22v-.48c.61-.09,1.05-.23,1.41-.42h.55v5.13h1.5Z"/>
    </g>
  </g>
  <g>
    <rect class="cls-2" x="124.88" y="204.97" width="107.72" height="21.26" rx="8.77" ry="8.77"/>
    <g>
      <path class="cls-7" d="M150.09,214.28c1.25,0,1.99.82,1.99,2.05,0,.15,0,.3-.03.41h-3.42c.05.95.72,1.54,1.67,1.54.51,0,.93-.15,1.33-.41l.26.49c-.43.28-.98.51-1.68.51-1.3,0-2.35-.85-2.35-2.29s1.09-2.3,2.22-2.3ZM151.39,216.25c0-.89-.49-1.39-1.3-1.39-.71,0-1.37.5-1.48,1.39h2.77Z"/>
      <path class="cls-7" d="M155.87,212.75c.71,0,1.27.34,1.61.72l-.42.48c-.31-.32-.69-.54-1.19-.54-1.13,0-1.86.92-1.86,2.39s.73,2.42,1.86,2.42c.54,0,.95-.23,1.32-.66l.43.46c-.47.54-1.04.85-1.8.85-1.49,0-2.59-1.13-2.59-3.06s1.1-3.06,2.64-3.06Z"/>
      <path class="cls-7" d="M158.96,212.86h1.81c1.31,0,2.18.44,2.18,1.74s-.88,1.83-2.18,1.83h-1.06v2.34h-.75v-5.91ZM160.67,215.81c1.04,0,1.53-.38,1.53-1.22s-.5-1.13-1.53-1.13h-.96v2.35h.96Z"/>
      <path class="cls-7" d="M168.3,219.38v.64h-4.32v-.64h4.32Z"/>
      <path class="cls-7" d="M169.77,212.86h1.62c1.21,0,2.03.41,2.03,1.44,0,.58-.34,1.11-1.04,1.29v.04c.86.14,1.37.6,1.37,1.41,0,1.16-.91,1.73-2.22,1.73h-1.76v-5.91ZM171.26,215.38c1.01,0,1.41-.36,1.41-1.02s-.47-.91-1.38-.91h-.77v1.93h.74ZM171.42,218.17c1.01,0,1.59-.37,1.59-1.17,0-.73-.56-1.06-1.59-1.06h-.89v2.23h.89Z"/>
      <path class="cls-7" d="M174.95,212.86h.76v3.69c0,1.22.53,1.67,1.24,1.67s1.25-.44,1.25-1.67v-3.69h.73v3.67c0,1.69-.83,2.34-1.98,2.34s-2-.65-2-2.34v-3.67Z"/>
      <path class="cls-7" d="M180.86,212.86h3.61v.63h-2.86v2h2.42v.63h-2.42v2.65h-.75v-5.91Z"/>
      <path class="cls-7" d="M186.26,212.86h3.61v.63h-2.86v2h2.42v.63h-2.42v2.65h-.75v-5.91Z"/>
      <path class="cls-7" d="M191.48,212.86h3.65v.63h-2.89v1.85h2.44v.64h-2.44v2.14h2.98v.64h-3.74v-5.91Z"/>
      <path class="cls-7" d="M199.97,218.76l-1.42-2.49h-1.05v2.49h-.75v-5.91h1.84c1.2,0,2.06.43,2.06,1.66,0,.92-.52,1.47-1.32,1.67l1.5,2.58h-.86ZM197.49,215.66h.98c.92,0,1.42-.38,1.42-1.14s-.5-1.05-1.42-1.05h-.98v2.2Z"/>
      <path class="cls-7" d="M206.1,219.38v.64h-4.32v-.64h4.32Z"/>
      <path class="cls-7" d="M207.3,218.32c1.94-1.72,3.02-2.73,3.02-3.68,0-.66-.41-1.13-1.25-1.13-.54,0-1.01.31-1.38.69l-.42-.42c.51-.52,1.08-.87,1.89-.87,1.15,0,1.87.67,1.87,1.69,0,1.08-1.08,2.15-2.65,3.57.35-.03.73-.05,1.07-.05h1.89v.64h-4.04v-.44Z"/>
    </g>
  </g>
  <rect class="cls-2" x="244.84" y="277.1" width="107.72" height="21.26" rx="8.77" ry="8.77"/>
  <g>
    <path class="cls-7" d="M265.1,286.95c.37-.43.91-.67,1.4-.67.71,0,1.15.3,1.43.67.43-.4,1.04-.67,1.55-.67,1,0,1.5.65,1.53,1.6v3.01h-.81v-2.68c0-.65-.16-1.3-.99-1.3-.68,0-1.15.36-1.15,1.27v2.71h-.81v-2.68c0-.85-.36-1.3-1.02-1.3s-1.12.44-1.12,1.3v2.67h-.81v-4.5h.8v.56Z"/>
    <path class="cls-7" d="M272.88,288.7c0,.9.63,1.73,1.52,1.73.41,0,.92-.15,1.23-.39l.23.44c-.47.33-1.03.52-1.49.52-1.4,0-2.33-.86-2.33-2.45s1.12-2.27,2.13-2.27c1.37,0,1.83,1.23,1.74,2.41h-3.03ZM275.17,288.16c0-.7-.3-1.3-1.01-1.3-.86,0-1.21.72-1.23,1.3h2.24Z"/>
    <path class="cls-7" d="M279.03,287.11c-.32-.22-.58-.29-.83-.29-.29,0-.66.14-.66.51s.41.57.93.95c.58.44.95.81.95,1.44,0,.76-.75,1.27-1.58,1.27-.51,0-1.09-.23-1.39-.57l.4-.46c.26.24.61.45.97.45s.77-.2.77-.64c0-.52-.47-.75-.89-1.05-.51-.37-.96-.68-.96-1.29,0-.71.7-1.16,1.49-1.16.44,0,.87.18,1.11.41l-.32.41Z"/>
    <path class="cls-7" d="M282.53,287.11c-.32-.22-.58-.29-.83-.29-.29,0-.66.14-.66.51s.41.57.93.95c.58.44.95.81.95,1.44,0,.76-.75,1.27-1.58,1.27-.51,0-1.09-.23-1.39-.57l.4-.46c.26.24.61.45.97.45s.77-.2.77-.64c0-.52-.47-.75-.89-1.05-.51-.37-.96-.68-.96-1.29,0-.71.7-1.16,1.49-1.16.44,0,.87.18,1.11.41l-.32.41Z"/>
    <path class="cls-7" d="M286.01,290.41c-.31.32-.71.59-1.12.59-.76,0-1.28-.54-1.28-1.39,0-.78.67-1.28,1.6-1.56l1.09-.34c-.04-.55-.46-.9-.9-.9-.52,0-.86.22-1.18.49l-.31-.41c.45-.43.91-.61,1.54-.61.68,0,1.67.22,1.67,1.53v1.98c0,.34.04.77.2,1.1h-.88c-.11-.19-.13-.48-.13-.76l-.29.28ZM285.52,288.48c-.71.22-1.08.56-1.08,1.12,0,.47.32.77.65.77.58,0,1.31-.71,1.21-2.12l-.77.23Z"/>
    <path class="cls-7" d="M292.45,290.73c0,1.72-1.07,2.41-2.29,2.41-.67,0-1.33-.13-1.85-.45l.23-.53c.55.32,1.05.41,1.61.41.93,0,1.49-.59,1.49-1.77v-.61h-.02c-.32.44-.79.82-1.5.82-1.24,0-2.02-.97-2.02-2.41,0-1.17.86-2.3,2.15-2.3.54,0,1.12.27,1.37.73h.02v-.62h.81v4.34ZM291.64,288.5c0-.85-.46-1.64-1.34-1.64-.94,0-1.32.74-1.32,1.69s.41,1.87,1.27,1.87c.98,0,1.4-.93,1.4-1.93Z"/>
    <path class="cls-7" d="M294.3,288.7c0,.9.63,1.73,1.52,1.73.41,0,.92-.15,1.23-.39l.23.44c-.47.33-1.03.52-1.49.52-1.4,0-2.33-.86-2.33-2.45s1.12-2.27,2.13-2.27c1.37,0,1.83,1.23,1.74,2.41h-3.03ZM296.59,288.16c0-.7-.3-1.3-1.01-1.3-.86,0-1.21.72-1.23,1.3h2.24Z"/>
    <path class="cls-7" d="M300.89,284.28h.81v2.82h.02c.33-.54.97-.81,1.48-.81,1.76,0,2.04,1.58,2.04,2.22,0,1.37-.81,2.49-2.13,2.49-.57,0-1.05-.27-1.39-.7h-.02v.59h-.81v-6.62ZM304.37,288.52c0-.82-.41-1.66-1.25-1.66-.92,0-1.41.71-1.41,1.87,0,.86.4,1.69,1.4,1.69s1.26-1.09,1.26-1.91Z"/>
    <path class="cls-7" d="M309.27,290.37c-.46.4-.86.63-1.45.63-1.04,0-1.59-.58-1.59-1.71v-2.9h.81v2.72c0,.85.36,1.3,1.09,1.3.62,0,1.13-.51,1.13-1.39v-2.63h.81v4.5h-.8v-.52Z"/>
    <path class="cls-7" d="M311.45,290.9v-4.03h-.72v-.47h.72v-.55c0-1.21.81-1.57,1.31-1.57.23,0,.51.05.71.19l-.18.41c-.13-.04-.26-.06-.44-.06-.13,0-.59.04-.59.76v.81h1.08v.47h-1.08v4.03h-.81Z"/>
    <path class="cls-7" d="M314.11,290.9v-4.03h-.72v-.47h.72v-.55c0-1.21.81-1.57,1.31-1.57.23,0,.51.05.71.19l-.18.41c-.13-.04-.26-.06-.44-.06-.14,0-.59.04-.59.76v.81h1.08v.47h-1.08v4.03h-.81Z"/>
    <path class="cls-7" d="M317.26,288.7c0,.9.63,1.73,1.52,1.73.41,0,.92-.15,1.23-.39l.23.44c-.47.33-1.03.52-1.49.52-1.4,0-2.33-.86-2.33-2.45s1.12-2.27,2.13-2.27c1.37,0,1.83,1.23,1.74,2.41h-3.03ZM319.56,288.16c0-.7-.3-1.3-1.01-1.3-.86,0-1.21.72-1.23,1.3h2.24Z"/>
    <path class="cls-7" d="M322.09,286.95l.32-.34c.19-.19.49-.32.67-.32.2,0,.5.14.75.44l-.37.52c-.2-.1-.4-.19-.6-.19-.41,0-.76.41-.76,1.41v2.42h-.81v-4.5h.79v.56Z"/>
    <path class="cls-7" d="M327.91,287.84v-.52c.88-.04,1.69-.42,1.69-1.3,0-.72-.58-.9-.96-.9-.46,0-.95.17-1.24.39l-.26-.53c.52-.3,1.08-.49,1.62-.49.48,0,1.69.16,1.73,1.44.03.86-.82,1.39-1.14,1.52v.02c.35.07,1.5.35,1.53,1.64.02.91-.77,1.92-2.24,1.9-.74,0-1.28-.23-1.54-.36l.25-.55c.28.15.72.28,1.27.28.77,0,1.32-.51,1.32-1.25,0-.96-.86-1.28-1.59-1.28h-.43Z"/>
  </g>
  <g>
    <rect class="cls-2" x="244.84" y="204.97" width="107.72" height="21.26" rx="8.77" ry="8.77"/>
    <g>
      <path class="cls-7" d="M270.04,214.28c1.25,0,1.99.82,1.99,2.05,0,.15,0,.3-.03.41h-3.42c.05.95.72,1.54,1.67,1.54.51,0,.93-.15,1.33-.41l.26.49c-.43.28-.98.51-1.68.51-1.3,0-2.35-.85-2.35-2.29s1.09-2.3,2.22-2.3ZM271.35,216.25c0-.89-.49-1.39-1.3-1.39-.71,0-1.37.5-1.48,1.39h2.77Z"/>
      <path class="cls-7" d="M275.83,212.75c.71,0,1.27.34,1.61.72l-.42.48c-.31-.32-.69-.54-1.19-.54-1.13,0-1.86.92-1.86,2.39s.73,2.42,1.86,2.42c.54,0,.95-.23,1.32-.66l.43.46c-.47.54-1.04.85-1.8.85-1.49,0-2.59-1.13-2.59-3.06s1.1-3.06,2.64-3.06Z"/>
      <path class="cls-7" d="M278.92,212.86h1.81c1.31,0,2.18.44,2.18,1.74s-.88,1.83-2.18,1.83h-1.06v2.34h-.75v-5.91ZM280.63,215.81c1.04,0,1.53-.38,1.53-1.22s-.5-1.13-1.53-1.13h-.96v2.35h.96Z"/>
      <path class="cls-7" d="M288.26,219.38v.64h-4.32v-.64h4.32Z"/>
      <path class="cls-7" d="M289.72,212.86h1.62c1.21,0,2.03.41,2.03,1.44,0,.58-.34,1.11-1.04,1.29v.04c.86.14,1.37.6,1.37,1.41,0,1.16-.91,1.73-2.22,1.73h-1.76v-5.91ZM291.22,215.38c1.01,0,1.41-.36,1.41-1.02s-.47-.91-1.38-.91h-.77v1.93h.74ZM291.37,218.17c1.01,0,1.59-.37,1.59-1.17,0-.73-.56-1.06-1.59-1.06h-.89v2.23h.89Z"/>
      <path class="cls-7" d="M294.91,212.86h.76v3.69c0,1.22.53,1.67,1.24,1.67s1.25-.44,1.25-1.67v-3.69h.73v3.67c0,1.69-.83,2.34-1.98,2.34s-2-.65-2-2.34v-3.67Z"/>
      <path class="cls-7" d="M300.81,212.86h3.61v.63h-2.86v2h2.42v.63h-2.42v2.65h-.75v-5.91Z"/>
      <path class="cls-7" d="M306.21,212.86h3.61v.63h-2.86v2h2.42v.63h-2.42v2.65h-.75v-5.91Z"/>
      <path class="cls-7" d="M311.43,212.86h3.65v.63h-2.89v1.85h2.44v.64h-2.44v2.14h2.98v.64h-3.74v-5.91Z"/>
      <path class="cls-7" d="M319.92,218.76l-1.42-2.49h-1.05v2.49h-.75v-5.91h1.84c1.2,0,2.06.43,2.06,1.66,0,.92-.52,1.47-1.32,1.67l1.5,2.58h-.86ZM317.44,215.66h.98c.92,0,1.42-.38,1.42-1.14s-.5-1.05-1.42-1.05h-.98v2.2Z"/>
      <path class="cls-7" d="M326.06,219.38v.64h-4.32v-.64h4.32Z"/>
      <path class="cls-7" d="M327.49,217.57c.38.36.91.68,1.65.68.78,0,1.38-.42,1.38-1.05,0-.68-.58-1.14-2.09-1.14v-.57c1.36,0,1.88-.47,1.88-1.07,0-.56-.47-.91-1.17-.91-.54,0-1.04.24-1.41.58l-.4-.47c.48-.41,1.1-.72,1.84-.72,1.08,0,1.9.53,1.9,1.46,0,.69-.51,1.13-1.22,1.37v.04c.77.16,1.42.67,1.42,1.46,0,1.02-.94,1.64-2.08,1.64-.99,0-1.65-.39-2.07-.81l.38-.49Z"/>
    </g>
  </g>
  <rect class="cls-2" x="386.01" y="277.1" width="107.72" height="21.26" rx="8.77" ry="8.77"/>
  <g>
    <path class="cls-7" d="M406.41,286.95c.37-.43.91-.67,1.4-.67.71,0,1.15.3,1.43.67.43-.4,1.04-.67,1.55-.67,1,0,1.5.65,1.53,1.6v3.01h-.81v-2.68c0-.65-.16-1.3-.99-1.3-.68,0-1.15.36-1.15,1.27v2.71h-.81v-2.68c0-.85-.36-1.3-1.02-1.3s-1.12.44-1.12,1.3v2.67h-.81v-4.5h.8v.56Z"/>
    <path class="cls-7" d="M414.19,288.69c0,.9.63,1.73,1.52,1.73.41,0,.92-.15,1.23-.39l.23.44c-.47.33-1.03.52-1.49.52-1.4,0-2.33-.86-2.33-2.45s1.12-2.27,2.13-2.27c1.37,0,1.83,1.23,1.74,2.41h-3.03ZM416.48,288.15c0-.7-.3-1.3-1.01-1.3-.86,0-1.21.72-1.23,1.3h2.24Z"/>
    <path class="cls-7" d="M420.33,287.11c-.32-.22-.58-.29-.83-.29-.29,0-.66.14-.66.51s.41.57.93.95c.58.44.95.81.95,1.44,0,.76-.75,1.27-1.58,1.27-.51,0-1.09-.23-1.39-.57l.4-.46c.26.24.61.45.97.45s.77-.2.77-.64c0-.52-.47-.75-.89-1.05-.51-.37-.96-.68-.96-1.29,0-.71.7-1.16,1.49-1.16.44,0,.87.18,1.11.41l-.32.41Z"/>
    <path class="cls-7" d="M423.83,287.11c-.32-.22-.58-.29-.83-.29-.29,0-.66.14-.66.51s.41.57.93.95c.58.44.95.81.95,1.44,0,.76-.75,1.27-1.58,1.27-.51,0-1.09-.23-1.39-.57l.4-.46c.26.24.61.45.97.45s.77-.2.77-.64c0-.52-.47-.75-.89-1.05-.51-.37-.96-.68-.96-1.29,0-.71.7-1.16,1.49-1.16.44,0,.87.18,1.11.41l-.32.41Z"/>
    <path class="cls-7" d="M427.32,290.4c-.32.32-.71.59-1.12.59-.76,0-1.28-.54-1.28-1.39,0-.78.67-1.28,1.6-1.56l1.09-.34c-.04-.55-.46-.9-.9-.9-.52,0-.86.22-1.18.49l-.31-.41c.45-.43.91-.61,1.54-.61.68,0,1.67.22,1.67,1.53v1.98c0,.34.04.77.2,1.1h-.88c-.11-.19-.13-.48-.13-.76l-.29.28ZM426.83,288.48c-.71.22-1.08.56-1.08,1.12,0,.47.32.77.65.77.58,0,1.31-.71,1.21-2.12l-.77.23Z"/>
    <path class="cls-7" d="M433.76,290.73c0,1.72-1.07,2.41-2.29,2.41-.67,0-1.33-.13-1.85-.45l.22-.53c.55.32,1.05.41,1.61.41.93,0,1.49-.59,1.49-1.77v-.61h-.02c-.32.44-.79.82-1.5.82-1.24,0-2.02-.97-2.02-2.41,0-1.17.86-2.3,2.15-2.3.54,0,1.12.27,1.37.73h.02v-.62h.81v4.34ZM432.95,288.5c0-.85-.46-1.64-1.34-1.64-.94,0-1.32.74-1.32,1.69s.41,1.87,1.27,1.87c.98,0,1.39-.93,1.39-1.93Z"/>
    <path class="cls-7" d="M435.61,288.69c0,.9.63,1.73,1.52,1.73.41,0,.92-.15,1.23-.39l.23.44c-.47.33-1.03.52-1.49.52-1.4,0-2.33-.86-2.33-2.45s1.12-2.27,2.13-2.27c1.37,0,1.83,1.23,1.74,2.41h-3.03ZM437.9,288.15c0-.7-.3-1.3-1.01-1.3-.86,0-1.21.72-1.23,1.3h2.24Z"/>
    <path class="cls-7" d="M442.2,284.27h.81v2.82h.02c.33-.54.97-.81,1.48-.81,1.76,0,2.04,1.58,2.04,2.22,0,1.37-.81,2.49-2.13,2.49-.57,0-1.05-.27-1.39-.7h-.02v.59h-.81v-6.62ZM445.68,288.51c0-.82-.41-1.66-1.25-1.66-.92,0-1.41.71-1.41,1.87,0,.86.4,1.69,1.4,1.69s1.26-1.09,1.26-1.91Z"/>
    <path class="cls-7" d="M450.58,290.37c-.46.4-.86.63-1.45.63-1.04,0-1.59-.58-1.59-1.71v-2.9h.81v2.72c0,.85.36,1.3,1.09,1.3.62,0,1.13-.51,1.13-1.39v-2.63h.81v4.5h-.8v-.52Z"/>
    <path class="cls-7" d="M452.76,290.89v-4.03h-.72v-.47h.72v-.55c0-1.21.81-1.57,1.31-1.57.23,0,.51.05.71.19l-.18.41c-.13-.04-.26-.06-.44-.06-.14,0-.59.04-.59.76v.81h1.08v.47h-1.08v4.03h-.81Z"/>
    <path class="cls-7" d="M455.42,290.89v-4.03h-.72v-.47h.72v-.55c0-1.21.81-1.57,1.31-1.57.23,0,.51.05.71.19l-.18.41c-.13-.04-.26-.06-.44-.06-.13,0-.59.04-.59.76v.81h1.08v.47h-1.08v4.03h-.81Z"/>
    <path class="cls-7" d="M458.57,288.69c0,.9.63,1.73,1.52,1.73.41,0,.92-.15,1.23-.39l.23.44c-.47.33-1.03.52-1.49.52-1.4,0-2.33-.86-2.33-2.45s1.12-2.27,2.13-2.27c1.37,0,1.83,1.23,1.74,2.41h-3.03ZM460.87,288.15c0-.7-.3-1.3-1.01-1.3-.86,0-1.21.72-1.23,1.3h2.24Z"/>
    <path class="cls-7" d="M463.4,286.95l.32-.34c.19-.19.49-.32.67-.32s.5.14.75.44l-.37.52c-.2-.1-.4-.19-.6-.19-.41,0-.76.41-.76,1.41v2.42h-.81v-4.5h.79v.56Z"/>
    <path class="cls-7" d="M473.93,290.89h-.68c-1.37-1.64-3.72-4.46-4.1-5.01h-.02v5.01h-.72v-6.3h.65c1.39,1.64,3.71,4.39,4.13,5.02h.02v-5.02h.72v6.3Z"/>
  </g>
  <g>
    <rect class="cls-2" x="386.01" y="204.97" width="107.72" height="21.26" rx="8.77" ry="8.77"/>
    <g>
      <path class="cls-7" d="M411.6,212.75c.71,0,1.27.34,1.61.72l-.42.48c-.31-.32-.69-.54-1.19-.54-1.13,0-1.86.92-1.86,2.39s.73,2.42,1.86,2.42c.54,0,.95-.23,1.32-.66l.43.46c-.47.54-1.04.85-1.8.85-1.49,0-2.59-1.13-2.59-3.06s1.1-3.06,2.64-3.06Z"/>
      <path class="cls-7" d="M414.69,212.86h1.81c1.3,0,2.18.44,2.18,1.74s-.88,1.83-2.18,1.83h-1.06v2.34h-.75v-5.91ZM416.4,215.81c1.04,0,1.53-.38,1.53-1.22s-.5-1.13-1.53-1.13h-.96v2.35h.96Z"/>
      <path class="cls-7" d="M424.03,219.38v.64h-4.32v-.64h4.32Z"/>
      <path class="cls-7" d="M425.49,212.86h1.62c1.21,0,2.03.41,2.03,1.44,0,.58-.34,1.11-1.04,1.29v.04c.86.14,1.37.6,1.37,1.41,0,1.16-.91,1.73-2.22,1.73h-1.75v-5.91ZM426.99,215.38c1.01,0,1.41-.36,1.41-1.02s-.47-.91-1.38-.91h-.77v1.93h.74ZM427.14,218.17c1.01,0,1.59-.37,1.59-1.17,0-.73-.56-1.06-1.59-1.06h-.89v2.23h.89Z"/>
      <path class="cls-7" d="M430.68,212.86h.76v3.69c0,1.22.53,1.67,1.24,1.67s1.25-.44,1.25-1.67v-3.69h.73v3.67c0,1.69-.83,2.34-1.98,2.34s-2-.65-2-2.34v-3.67Z"/>
      <path class="cls-7" d="M436.58,212.86h3.61v.63h-2.86v2h2.42v.63h-2.42v2.65h-.75v-5.91Z"/>
      <path class="cls-7" d="M441.98,212.86h3.61v.63h-2.86v2h2.42v.63h-2.42v2.65h-.75v-5.91Z"/>
      <path class="cls-7" d="M447.2,212.86h3.65v.63h-2.89v1.85h2.44v.64h-2.44v2.14h2.98v.64h-3.74v-5.91Z"/>
      <path class="cls-7" d="M455.69,218.76l-1.42-2.49h-1.05v2.49h-.75v-5.91h1.84c1.2,0,2.06.43,2.06,1.66,0,.92-.52,1.47-1.32,1.67l1.5,2.58h-.86ZM453.21,215.66h.98c.92,0,1.42-.38,1.42-1.14s-.5-1.05-1.42-1.05h-.98v2.2Z"/>
      <path class="cls-7" d="M461.83,219.38v.64h-4.32v-.64h4.32Z"/>
      <path class="cls-7" d="M463.09,212.86h.83l.84,2.51.3.95h.04l.29-.95.83-2.51h.83v5.91h-.64v-3.32c0-.49.05-1.34.09-1.82h-.03l-.39,1.26-.81,2.28h-.41l-.81-2.28-.4-1.26h-.03c.04.48.1,1.33.1,1.82v3.32h-.63v-5.91Z"/>
      <path class="cls-7" d="M471.53,216.96h-2.14l-.57,1.8h-.77l1.99-5.91h.85l1.99,5.91h-.79l-.56-1.8ZM471.34,216.36l-.28-.9c-.21-.66-.4-1.3-.58-1.99h-.04c-.19.68-.38,1.33-.58,1.99l-.28.9h1.76Z"/>
      <path class="cls-7" d="M475.42,215.71l-1.65-2.85h.83l.83,1.51c.15.27.29.51.48.86h.04c.16-.34.28-.58.42-.86l.81-1.51h.79l-1.65,2.89,1.76,3.02h-.83l-.89-1.59c-.16-.29-.32-.58-.52-.95h-.04c-.17.36-.32.66-.48.95l-.88,1.59h-.79l1.76-3.05Z"/>
    </g>
  </g>
  <g>
    <line class="cls-1" x1="386.01" y1="215.6" x2="384.59" y2="215.6"/>
    <line class="cls-5" x1="381.81" y1="215.6" x2="355.36" y2="215.6"/>
    <line class="cls-1" x1="353.97" y1="215.6" x2="352.55" y2="215.6"/>
  </g>
  <g>
    <line class="cls-3" x1="180.03" y1="273.52" x2="180.03" y2="229.82"/>
    <polygon class="cls-7" points="182.52 272.79 180.03 277.1 177.53 272.79 182.52 272.79"/>
    <polygon class="cls-7" points="182.52 230.55 180.03 226.23 177.53 230.55 182.52 230.55"/>
  </g>
  <g>
    <line class="cls-3" x1="298.7" y1="273.52" x2="298.7" y2="229.82"/>
    <polygon class="cls-7" points="301.19 272.79 298.7 277.1 296.2 272.79 301.19 272.79"/>
    <polygon class="cls-7" points="301.19 230.55 298.7 226.23 296.2 230.55 301.19 230.55"/>
  </g>
  <g>
    <line class="cls-3" x1="439.87" y1="273.52" x2="439.87" y2="229.82"/>
    <polygon class="cls-7" points="442.36 272.79 439.87 277.1 437.37 272.79 442.36 272.79"/>
    <polygon class="cls-7" points="442.36 230.55 439.87 226.23 437.37 230.55 442.36 230.55"/>
  </g>
  <rect class="cls-2" x="126.17" y="124.86" width="107.72" height="53.62" rx="8.77" ry="8.77"/>
  <rect class="cls-2" x="244.84" y="124.86" width="107.72" height="53.62" rx="8.77" ry="8.77"/>
  <g>
    <path class="cls-7" d="M152.93,154.47v-5.67h-2.02v-.63h4.92v.63h-2.03v5.67h-.87Z"/>
    <path class="cls-7" d="M156.65,150.53l.32-.34c.19-.19.49-.32.67-.32.2,0,.5.14.75.44l-.37.52c-.2-.1-.4-.19-.6-.19-.41,0-.76.41-.76,1.41v2.42h-.81v-4.5h.79v.56Z"/>
    <path class="cls-7" d="M161.08,153.98c-.31.32-.71.59-1.12.59-.76,0-1.28-.54-1.28-1.39,0-.78.67-1.28,1.6-1.56l1.09-.34c-.04-.55-.46-.9-.9-.9-.52,0-.86.22-1.18.49l-.31-.4c.45-.43.91-.61,1.54-.61.68,0,1.67.22,1.67,1.53v1.98c0,.34.04.77.2,1.1h-.88c-.11-.19-.13-.48-.13-.77l-.29.28ZM160.6,152.06c-.71.22-1.08.56-1.08,1.12,0,.47.32.77.65.77.58,0,1.31-.71,1.21-2.12l-.77.22Z"/>
    <path class="cls-7" d="M164.29,150.53c.42-.45,1.07-.67,1.54-.67,1.04,0,1.59.58,1.59,1.71v2.9h-.81v-2.73c0-.85-.36-1.29-1.09-1.29-.64,0-1.22.44-1.22,1.31v2.71h-.81v-4.5h.8v.56Z"/>
    <path class="cls-7" d="M170.87,150.69c-.32-.22-.58-.29-.83-.29-.29,0-.66.13-.66.51s.41.57.93.96c.58.44.95.81.95,1.44,0,.76-.75,1.27-1.58,1.27-.51,0-1.09-.22-1.39-.57l.4-.46c.26.24.61.45.97.45.38,0,.77-.2.77-.64,0-.52-.47-.75-.89-1.05-.51-.37-.96-.67-.96-1.29,0-.71.7-1.16,1.49-1.16.44,0,.87.18,1.11.41l-.31.41Z"/>
    <path class="cls-7" d="M173.05,150.53c.37-.43.91-.67,1.4-.67.71,0,1.15.3,1.43.67.43-.4,1.04-.67,1.55-.67,1,0,1.5.65,1.53,1.6v3.01h-.81v-2.68c0-.65-.16-1.3-.99-1.3-.68,0-1.15.36-1.15,1.27v2.71h-.81v-2.68c0-.85-.36-1.3-1.02-1.3s-1.12.44-1.12,1.31v2.67h-.81v-4.5h.8v.56Z"/>
    <path class="cls-7" d="M180.19,148.48c0-.22.19-.48.51-.48s.51.25.51.48c0,.24-.12.55-.51.55s-.51-.31-.51-.55ZM181.11,149.97v4.5h-.81v-4.5h.81Z"/>
    <path class="cls-7" d="M183.44,149.97h1.18v.47h-1.18v2.55c0,.63.13,1.01.62,1.01.3,0,.47-.07.62-.15l.2.45c-.28.18-.61.29-.92.29-.9,0-1.33-.52-1.33-1.44v-2.7h-.63v-.47h.63v-1.08l.81-.27v1.35Z"/>
    <path class="cls-7" d="M191.32,148.8h-2.23v2.39h2.19v.63h-2.19v2.65h-.87v-6.3h3.11v.63Z"/>
    <path class="cls-7" d="M192.55,154.47v-6.3h.87v6.3h-.87Z"/>
    <path class="cls-7" d="M198.04,148.8h-2.23v2.39h2.19v.63h-2.19v2.65h-.87v-6.3h3.11v.63Z"/>
    <path class="cls-7" d="M198.94,151.21c0-1.76,1.33-3.15,3.15-3.15s3.15,1.39,3.15,3.15c0,1.88-1.21,3.37-3.15,3.37s-3.15-1.49-3.15-3.37ZM204.27,151.21c0-1.18-.63-2.52-2.19-2.52s-2.19,1.34-2.19,2.52.56,2.74,2.19,2.74,2.19-1.5,2.19-2.74Z"/>
  </g>
  <g>
    <path class="cls-7" d="M273.3,148.17h1.8c1.03,0,1.83.53,1.83,1.62,0,.93-.45,1.45-1.05,1.84l1.57,2.68-.88.27-1.46-2.72h-.93v2.61h-.87v-6.3ZM274.17,151.23h.5c1.12,0,1.32-.83,1.32-1.36,0-.77-.49-1.07-1.07-1.07h-.75v2.43Z"/>
    <path class="cls-7" d="M278.74,152.27c0,.9.63,1.73,1.52,1.73.41,0,.92-.15,1.23-.39l.23.44c-.47.33-1.03.52-1.49.52-1.4,0-2.33-.86-2.33-2.45s1.12-2.27,2.13-2.27c1.37,0,1.83,1.23,1.74,2.41h-3.03ZM281.04,151.73c0-.7-.3-1.3-1.01-1.3-.86,0-1.21.72-1.23,1.3h2.24Z"/>
    <path class="cls-7" d="M286.23,154.11c-.44.32-.97.47-1.36.47-2.13,0-2.4-1.75-2.4-2.37,0-1.12.75-2.35,2.44-2.35.46,0,.87.12,1.21.37l-.27.46c-.26-.13-.59-.23-.93-.23-.74,0-1.58.49-1.58,1.71,0,.94.48,1.82,1.57,1.82.39,0,.75-.1,1.1-.32l.23.45Z"/>
    <path class="cls-7" d="M287.63,152.27c0,.9.63,1.73,1.52,1.73.41,0,.92-.15,1.23-.39l.23.44c-.47.33-1.03.52-1.49.52-1.4,0-2.33-.86-2.33-2.45s1.12-2.27,2.13-2.27c1.37,0,1.83,1.23,1.74,2.41h-3.03ZM289.93,151.73c0-.7-.3-1.3-1.01-1.3-.86,0-1.21.72-1.23,1.3h2.24Z"/>
    <path class="cls-7" d="M291.56,148.48c0-.23.19-.48.51-.48s.51.25.51.48c0,.24-.12.55-.51.55s-.51-.31-.51-.55ZM292.47,149.97v4.5h-.81v-4.5h.81Z"/>
    <path class="cls-7" d="M295.05,154.47l-1.86-4.38.81-.22c.46,1.14.92,2.29,1.37,3.65h.02c.47-1.36.94-2.51,1.41-3.65l.71.16-1.95,4.43h-.5Z"/>
    <path class="cls-7" d="M298.75,152.27c0,.9.63,1.73,1.52,1.73.41,0,.92-.15,1.23-.39l.23.44c-.47.33-1.03.52-1.49.52-1.4,0-2.33-.86-2.33-2.45s1.12-2.27,2.13-2.27c1.37,0,1.83,1.23,1.74,2.41h-3.03ZM301.04,151.73c0-.7-.3-1.3-1.01-1.3-.86,0-1.21.72-1.23,1.3h2.24Z"/>
    <path class="cls-7" d="M308.56,148.8h-2.23v2.4h2.19v.63h-2.19v2.65h-.87v-6.3h3.11v.63Z"/>
    <path class="cls-7" d="M309.78,154.47v-6.3h.87v6.3h-.87Z"/>
    <path class="cls-7" d="M315.27,148.8h-2.23v2.4h2.19v.63h-2.19v2.65h-.87v-6.3h3.11v.63Z"/>
    <path class="cls-7" d="M316.17,151.21c0-1.76,1.33-3.15,3.15-3.15s3.15,1.39,3.15,3.15c0,1.88-1.21,3.37-3.15,3.37s-3.15-1.49-3.15-3.37ZM321.51,151.21c0-1.18-.63-2.52-2.19-2.52s-2.19,1.34-2.19,2.52.56,2.74,2.19,2.74,2.19-1.5,2.19-2.74Z"/>
  </g>
  <rect class="cls-2" x="520.18" y="277.1" width="107.72" height="21.26" rx="8.77" ry="8.77"/>
  <g>
    <rect class="cls-6" x="386.01" y="68.3" width="107.72" height="21.26"/>
    <g>
      <path class="cls-7" d="M392.94,76.27c.63,0,1.13.3,1.43.64l-.38.42c-.27-.29-.62-.48-1.06-.48-1.01,0-1.66.82-1.66,2.12s.65,2.15,1.66,2.15c.48,0,.84-.21,1.18-.58l.38.41c-.42.48-.93.76-1.6.76-1.32,0-2.3-1.01-2.3-2.72s.98-2.72,2.34-2.72Z"/>
      <path class="cls-7" d="M396.27,81.94v1.31h-.66v-5.52h.54l.06.5h.02c.36-.34.86-.59,1.34-.59,1.05,0,1.61.78,1.61,1.98,0,1.32-.83,2.09-1.77,2.09-.36,0-.82-.18-1.17-.5l.02.74ZM397.31,81.15c.7,0,1.2-.58,1.2-1.54,0-.86-.32-1.43-1.1-1.43-.34,0-.74.18-1.14.58v1.93c.37.33.78.46,1.04.46Z"/>
      <path class="cls-7" d="M402.54,76.27c.63,0,1.13.3,1.43.64l-.38.42c-.27-.29-.62-.48-1.06-.48-1.01,0-1.66.82-1.66,2.12s.65,2.15,1.66,2.15c.48,0,.84-.21,1.18-.58l.38.41c-.42.48-.93.76-1.6.76-1.32,0-2.3-1.01-2.3-2.72s.98-2.72,2.34-2.72Z"/>
      <path class="cls-7" d="M406.87,77.63c1.02,0,1.92.74,1.92,2.05s-.9,2.03-1.92,2.03-1.92-.74-1.92-2.03.9-2.05,1.92-2.05ZM406.87,81.16c.74,0,1.24-.6,1.24-1.49s-.5-1.5-1.24-1.5-1.24.61-1.24,1.5.5,1.49,1.24,1.49Z"/>
      <path class="cls-7" d="M410.44,77.72h.54l.06.92h.02c.41-.62,1.02-1.02,1.74-1.02.29,0,.52.04.76.16l-.14.57c-.27-.1-.42-.14-.73-.14-.58,0-1.14.3-1.6,1.11v2.28h-.66v-3.89Z"/>
      <path class="cls-7" d="M416.6,77.63c1.11,0,1.77.73,1.77,1.82,0,.14,0,.26-.02.36h-3.04c.05.84.64,1.37,1.49,1.37.46,0,.82-.14,1.18-.36l.23.43c-.38.25-.87.46-1.5.46-1.15,0-2.09-.76-2.09-2.03s.97-2.05,1.98-2.05ZM417.76,79.38c0-.79-.43-1.23-1.15-1.23-.63,0-1.22.45-1.31,1.23h2.46Z"/>
      <path class="cls-7" d="M419.7,76.36h1.44c1.07,0,1.8.36,1.8,1.28,0,.52-.3.98-.92,1.14v.03c.77.12,1.22.54,1.22,1.26,0,1.03-.81,1.54-1.97,1.54h-1.56v-5.25ZM421.02,78.6c.9,0,1.26-.32,1.26-.9s-.42-.81-1.22-.81h-.69v1.71h.66ZM421.16,81.08c.9,0,1.42-.33,1.42-1.04,0-.65-.5-.94-1.42-.94h-.79v1.98h.79Z"/>
      <path class="cls-7" d="M427.71,81.61h-.54l-.06-.68h-.03c-.39.46-.85.78-1.45.78-.93,0-1.35-.54-1.35-1.57v-2.41h.66v2.33c0,.74.25,1.09.9,1.09.45,0,.78-.22,1.21-.72v-2.69h.66v3.89Z"/>
      <path class="cls-7" d="M432.94,76.54c-.32-.14-.57-.18-.9-.18-.7,0-.98.38-.98,1.01v.35h1.63v.54h-1.63v3.35h-.65v-3.35h-1.11v-.5l1.11-.04v-.33c0-.95.5-1.58,1.57-1.58.38,0,.75.07,1.12.22l-.15.5Z"/>
      <path class="cls-7" d="M437.74,76.54c-.32-.14-.57-.18-.9-.18-.7,0-.98.38-.98,1.01v.35h1.63v.54h-1.63v3.35h-.65v-3.35h-1.11v-.5l1.11-.04v-.33c0-.95.5-1.58,1.57-1.58.38,0,.75.07,1.12.22l-.15.5Z"/>
      <path class="cls-7" d="M440.6,77.63c1.11,0,1.77.73,1.77,1.82,0,.14,0,.26-.02.36h-3.04c.05.84.64,1.37,1.49,1.37.46,0,.82-.14,1.18-.36l.23.43c-.38.25-.87.46-1.5.46-1.15,0-2.09-.76-2.09-2.03s.97-2.05,1.97-2.05ZM441.76,79.38c0-.79-.43-1.23-1.15-1.23-.63,0-1.21.45-1.31,1.23h2.46Z"/>
      <path class="cls-7" d="M444.04,77.72h.54l.06.92h.02c.41-.62,1.02-1.02,1.74-1.02.29,0,.52.04.76.16l-.14.57c-.27-.1-.42-.14-.73-.14-.58,0-1.14.3-1.6,1.11v2.28h-.66v-3.89Z"/>
      <path class="cls-7" d="M450.42,76.27c.7,0,1.15.33,1.45.64l-.38.42c-.26-.27-.57-.48-1.07-.48-.98,0-1.63.82-1.63,2.12s.58,2.15,1.61,2.15c.37,0,.71-.12.91-.31v-1.37h-1.05v-.55h1.66v2.21c-.34.34-.89.61-1.57.61-1.32,0-2.27-1.01-2.27-2.72s.97-2.72,2.33-2.72Z"/>
      <path class="cls-7" d="M455,77.63c1.11,0,1.77.73,1.77,1.82,0,.14,0,.26-.02.36h-3.04c.05.84.64,1.37,1.49,1.37.46,0,.82-.14,1.18-.36l.23.43c-.38.25-.87.46-1.5.46-1.15,0-2.09-.76-2.09-2.03s.97-2.05,1.98-2.05ZM456.16,79.38c0-.79-.43-1.23-1.15-1.23-.63,0-1.22.45-1.31,1.23h2.46Z"/>
      <path class="cls-7" d="M458.92,78.26h-1.09v-.5l1.12-.04.09-1.09h.54v1.09h1.9v.54h-1.9v1.85c0,.7.23,1.06.98,1.06.37,0,.66-.07.94-.18l.14.48c-.34.13-.79.23-1.22.23-1.13,0-1.5-.65-1.5-1.61v-1.84Z"/>
      <path class="cls-7" d="M462.75,76.36h1.28c1.58,0,2.43.94,2.43,2.6s-.85,2.65-2.4,2.65h-1.31v-5.25ZM463.99,81.06c1.19,0,1.78-.78,1.78-2.1s-.59-2.05-1.78-2.05h-.58v4.16h.58Z"/>
      <path class="cls-7" d="M467.52,75.91h1.98v4.44c0,.57.3.81.76.81.22,0,.45-.06.74-.18l.17.5c-.35.13-.62.23-1.05.23-.82,0-1.27-.48-1.27-1.4v-3.85h-1.33v-.54Z"/>
      <path class="cls-7" d="M474.48,77.63c.63,0,1.09.26,1.42.57l-.33.42c-.32-.28-.66-.45-1.06-.45-.9,0-1.51.61-1.51,1.5s.6,1.49,1.5,1.49c.48,0,.88-.22,1.21-.49l.29.42c-.42.38-.97.61-1.54.61-1.22,0-2.13-.74-2.13-2.03s.99-2.05,2.17-2.05Z"/>
      <path class="cls-7" d="M478.13,79.39c0-1.54.69-2.77,1.8-3.63l.36.33c-1.07.9-1.57,1.95-1.57,3.29s.5,2.39,1.57,3.29l-.36.34c-1.11-.86-1.8-2.09-1.8-3.63Z"/>
      <path class="cls-7" d="M482.25,82.68c1.07-.9,1.57-1.95,1.57-3.29s-.5-2.39-1.57-3.29l.36-.33c1.11.86,1.8,2.09,1.8,3.63s-.69,2.77-1.8,3.63l-.36-.34Z"/>
    </g>
  </g>
  <g>
    <rect class="cls-6" x="7.5" y="68.3" width="107.72" height="21.26"/>
    <g>
      <path class="cls-7" d="M14.44,76.27c.63,0,1.13.3,1.43.64l-.38.42c-.27-.29-.62-.48-1.06-.48-1.01,0-1.66.82-1.66,2.12s.65,2.15,1.66,2.15c.48,0,.84-.21,1.18-.58l.38.41c-.42.48-.93.76-1.6.76-1.32,0-2.3-1.01-2.3-2.72s.98-2.72,2.34-2.72Z"/>
      <path class="cls-7" d="M17.76,81.94v1.31h-.66v-5.52h.54l.06.5h.02c.36-.34.86-.59,1.34-.59,1.05,0,1.61.78,1.61,1.98,0,1.32-.83,2.09-1.77,2.09-.36,0-.82-.18-1.17-.5l.02.74ZM18.8,81.15c.7,0,1.2-.58,1.2-1.54,0-.86-.32-1.43-1.1-1.43-.34,0-.74.18-1.14.58v1.93c.37.33.78.46,1.04.46Z"/>
      <path class="cls-7" d="M24.04,76.27c.63,0,1.13.3,1.43.64l-.38.42c-.27-.29-.62-.48-1.06-.48-1.01,0-1.66.82-1.66,2.12s.65,2.15,1.66,2.15c.48,0,.84-.21,1.18-.58l.38.41c-.42.48-.93.76-1.6.76-1.32,0-2.3-1.01-2.3-2.72s.98-2.72,2.34-2.72Z"/>
      <path class="cls-7" d="M28.36,77.63c1.02,0,1.92.74,1.92,2.05s-.9,2.03-1.92,2.03-1.92-.74-1.92-2.03.9-2.05,1.92-2.05ZM28.36,81.16c.74,0,1.24-.6,1.24-1.49s-.5-1.5-1.24-1.5-1.24.61-1.24,1.5.5,1.49,1.24,1.49Z"/>
      <path class="cls-7" d="M31.93,77.72h.54l.06.92h.02c.41-.62,1.02-1.02,1.73-1.02.29,0,.52.04.76.16l-.14.57c-.27-.1-.42-.14-.73-.14-.58,0-1.14.3-1.6,1.11v2.28h-.66v-3.89Z"/>
      <path class="cls-7" d="M38.09,77.63c1.11,0,1.77.73,1.77,1.82,0,.14,0,.26-.02.36h-3.04c.05.84.64,1.37,1.49,1.37.46,0,.82-.14,1.18-.36l.23.43c-.38.25-.87.46-1.5.46-1.15,0-2.09-.76-2.09-2.03s.97-2.05,1.98-2.05ZM39.25,79.38c0-.79-.43-1.23-1.15-1.23-.63,0-1.22.45-1.31,1.23h2.46Z"/>
      <path class="cls-7" d="M41.19,76.36h1.44c1.07,0,1.8.36,1.8,1.28,0,.52-.3.98-.92,1.14v.03c.77.12,1.22.54,1.22,1.26,0,1.03-.81,1.54-1.97,1.54h-1.56v-5.25ZM42.52,78.6c.9,0,1.26-.32,1.26-.9s-.42-.81-1.22-.81h-.69v1.71h.66ZM42.65,81.08c.9,0,1.42-.33,1.42-1.04,0-.65-.5-.94-1.42-.94h-.79v1.98h.79Z"/>
      <path class="cls-7" d="M49.2,81.61h-.54l-.06-.68h-.03c-.39.46-.85.78-1.45.78-.93,0-1.35-.54-1.35-1.57v-2.41h.66v2.33c0,.74.25,1.09.9,1.09.45,0,.78-.22,1.21-.72v-2.69h.66v3.89Z"/>
      <path class="cls-7" d="M54.43,76.54c-.32-.14-.57-.18-.9-.18-.7,0-.98.38-.98,1.01v.35h1.63v.54h-1.63v3.35h-.65v-3.35h-1.11v-.5l1.11-.04v-.33c0-.95.5-1.58,1.57-1.58.38,0,.75.07,1.12.22l-.15.5Z"/>
      <path class="cls-7" d="M59.23,76.54c-.32-.14-.57-.18-.9-.18-.7,0-.98.38-.98,1.01v.35h1.63v.54h-1.63v3.35h-.65v-3.35h-1.11v-.5l1.11-.04v-.33c0-.95.5-1.58,1.57-1.58.38,0,.75.07,1.12.22l-.15.5Z"/>
      <path class="cls-7" d="M62.09,77.63c1.11,0,1.77.73,1.77,1.82,0,.14,0,.26-.02.36h-3.04c.05.84.64,1.37,1.49,1.37.46,0,.82-.14,1.18-.36l.23.43c-.38.25-.87.46-1.5.46-1.15,0-2.09-.76-2.09-2.03s.97-2.05,1.97-2.05ZM63.25,79.38c0-.79-.43-1.23-1.15-1.23-.63,0-1.22.45-1.31,1.23h2.46Z"/>
      <path class="cls-7" d="M65.53,77.72h.54l.06.92h.02c.41-.62,1.02-1.02,1.73-1.02.29,0,.52.04.76.16l-.14.57c-.27-.1-.42-.14-.73-.14-.58,0-1.14.3-1.6,1.11v2.28h-.66v-3.89Z"/>
      <path class="cls-7" d="M70.1,80.46c.39.39.94.66,1.51.66.74,0,1.17-.34,1.17-.86s-.41-.7-.94-.93l-.75-.33c-.53-.21-1.14-.58-1.14-1.35s.72-1.39,1.72-1.39c.66,0,1.23.26,1.62.65l-.35.43c-.34-.3-.74-.5-1.26-.5-.63,0-1.04.3-1.04.77,0,.5.49.69.94.87l.74.32c.65.26,1.16.62,1.16,1.4,0,.83-.7,1.5-1.85,1.5-.77,0-1.43-.3-1.9-.78l.4-.46Z"/>
      <path class="cls-7" d="M76.49,77.63c1.11,0,1.77.73,1.77,1.82,0,.14,0,.26-.02.36h-3.04c.05.84.64,1.37,1.49,1.37.46,0,.82-.14,1.18-.36l.23.43c-.38.25-.87.46-1.5.46-1.15,0-2.09-.76-2.09-2.03s.97-2.05,1.98-2.05ZM77.65,79.38c0-.79-.43-1.23-1.15-1.23-.63,0-1.22.45-1.31,1.23h2.46Z"/>
      <path class="cls-7" d="M80.41,78.26h-1.1v-.5l1.12-.04.09-1.09h.54v1.09h1.9v.54h-1.9v1.85c0,.7.23,1.06.98,1.06.37,0,.66-.07.94-.18l.14.48c-.34.13-.79.23-1.22.23-1.13,0-1.5-.65-1.5-1.61v-1.84Z"/>
      <path class="cls-7" d="M84.24,76.36h1.28c1.58,0,2.43.94,2.43,2.6s-.85,2.65-2.4,2.65h-1.31v-5.25ZM85.48,81.06c1.19,0,1.78-.78,1.78-2.1s-.59-2.05-1.78-2.05h-.58v4.16h.58Z"/>
      <path class="cls-7" d="M89.01,75.91h1.98v4.44c0,.57.3.81.76.81.22,0,.45-.06.74-.18l.17.5c-.35.13-.62.23-1.05.23-.82,0-1.27-.48-1.27-1.4v-3.85h-1.33v-.54Z"/>
      <path class="cls-7" d="M95.97,77.63c.63,0,1.1.26,1.42.57l-.33.42c-.32-.28-.66-.45-1.06-.45-.9,0-1.51.61-1.51,1.5s.6,1.49,1.5,1.49c.48,0,.88-.22,1.21-.49l.29.42c-.42.38-.97.61-1.54.61-1.22,0-2.13-.74-2.13-2.03s.99-2.05,2.17-2.05Z"/>
      <path class="cls-7" d="M99.63,79.39c0-1.54.69-2.77,1.8-3.63l.36.33c-1.07.9-1.57,1.95-1.57,3.29s.5,2.39,1.57,3.29l-.36.34c-1.11-.86-1.8-2.09-1.8-3.63Z"/>
      <path class="cls-7" d="M103.74,82.68c1.07-.9,1.57-1.95,1.57-3.29s-.5-2.39-1.57-3.29l.36-.33c1.11.86,1.8,2.09,1.8,3.63s-.69,2.77-1.8,3.63l-.36-.34Z"/>
    </g>
  </g>
  <g>
    <rect class="cls-6" x="126.13" y="68.3" width="107.72" height="21.26"/>
    <g>
      <path class="cls-7" d="M133.06,76.27c.63,0,1.13.3,1.43.64l-.38.42c-.27-.29-.62-.48-1.06-.48-1.01,0-1.66.82-1.66,2.12s.65,2.15,1.66,2.15c.48,0,.84-.21,1.18-.58l.38.41c-.42.48-.93.76-1.6.76-1.32,0-2.3-1.01-2.3-2.72s.98-2.72,2.34-2.72Z"/>
      <path class="cls-7" d="M136.39,81.94v1.31h-.66v-5.52h.54l.06.5h.02c.36-.34.86-.59,1.34-.59,1.05,0,1.61.78,1.61,1.98,0,1.32-.83,2.09-1.77,2.09-.36,0-.82-.18-1.17-.5l.02.74ZM137.43,81.15c.7,0,1.2-.58,1.2-1.54,0-.86-.32-1.43-1.1-1.43-.34,0-.74.18-1.14.58v1.93c.37.33.78.46,1.04.46Z"/>
      <path class="cls-7" d="M142.66,76.27c.63,0,1.13.3,1.43.64l-.38.42c-.27-.29-.62-.48-1.06-.48-1.01,0-1.66.82-1.66,2.12s.65,2.15,1.66,2.15c.48,0,.84-.21,1.18-.58l.38.41c-.42.48-.93.76-1.6.76-1.32,0-2.3-1.01-2.3-2.72s.98-2.72,2.34-2.72Z"/>
      <path class="cls-7" d="M146.99,77.63c1.02,0,1.92.74,1.92,2.05s-.9,2.03-1.92,2.03-1.92-.74-1.92-2.03.9-2.05,1.92-2.05ZM146.99,81.16c.74,0,1.24-.6,1.24-1.49s-.5-1.5-1.24-1.5-1.24.61-1.24,1.5.5,1.49,1.24,1.49Z"/>
      <path class="cls-7" d="M150.56,77.72h.54l.06.92h.02c.41-.62,1.02-1.02,1.73-1.02.29,0,.52.04.76.16l-.14.57c-.27-.1-.42-.14-.73-.14-.58,0-1.14.3-1.6,1.11v2.28h-.66v-3.89Z"/>
      <path class="cls-7" d="M156.72,77.63c1.11,0,1.77.73,1.77,1.82,0,.14,0,.26-.02.36h-3.04c.05.84.64,1.37,1.49,1.37.46,0,.82-.14,1.18-.36l.23.43c-.38.25-.87.46-1.5.46-1.15,0-2.09-.76-2.09-2.03s.97-2.05,1.98-2.05ZM157.88,79.38c0-.79-.43-1.23-1.15-1.23-.63,0-1.22.45-1.31,1.23h2.46Z"/>
      <path class="cls-7" d="M160.07,76.36h3.21v.56h-2.54v1.78h2.15v.56h-2.15v2.35h-.66v-5.25Z"/>
      <path class="cls-7" d="M164.51,77.72h2.46v3.89h-.66v-3.35h-1.81v-.54ZM166.05,76.42c0-.31.22-.51.53-.51s.53.2.53.51-.23.5-.53.5-.53-.2-.53-.5Z"/>
      <path class="cls-7" d="M173.06,76.54c-.32-.14-.57-.18-.9-.18-.7,0-.98.38-.98,1.01v.35h1.63v.54h-1.63v3.35h-.65v-3.35h-1.11v-.5l1.11-.04v-.33c0-.95.5-1.58,1.57-1.58.38,0,.75.07,1.12.22l-.15.5Z"/>
      <path class="cls-7" d="M175.79,77.63c1.02,0,1.92.74,1.92,2.05s-.9,2.03-1.92,2.03-1.92-.74-1.92-2.03.9-2.05,1.92-2.05ZM175.79,81.16c.74,0,1.24-.6,1.24-1.49s-.5-1.5-1.24-1.5-1.24.61-1.24,1.5.5,1.49,1.24,1.49Z"/>
      <path class="cls-7" d="M178.27,76.36h.66l.42,3.29c.02.44.08.86.11,1.29h.02c.11-.43.23-.86.34-1.29l.55-1.94h.47l.55,1.94c.1.42.22.86.33,1.29h.03c.03-.43.08-.86.11-1.29l.4-3.29h.63l-.78,5.25h-.74l-.6-2.2c-.07-.31-.14-.63-.19-.94h-.02c-.06.31-.13.63-.21.94l-.58,2.2h-.72l-.81-5.25Z"/>
      <path class="cls-7" d="M184.16,77.72h.54l.06.92h.02c.41-.62,1.02-1.02,1.73-1.02.29,0,.52.04.76.16l-.14.57c-.27-.1-.42-.14-.73-.14-.58,0-1.14.3-1.6,1.11v2.28h-.66v-3.89Z"/>
      <path class="cls-7" d="M188.51,77.72h2.46v3.89h-.66v-3.35h-1.81v-.54ZM190.05,76.42c0-.31.22-.51.53-.51s.53.2.53.51-.23.5-.53.5-.53-.2-.53-.5Z"/>
      <path class="cls-7" d="M194.24,78.26h-1.1v-.5l1.12-.04.09-1.09h.54v1.09h1.9v.54h-1.9v1.85c0,.7.23,1.06.98,1.06.37,0,.66-.07.94-.18l.14.48c-.34.13-.79.23-1.22.23-1.13,0-1.5-.65-1.5-1.61v-1.84Z"/>
      <path class="cls-7" d="M199.92,77.63c1.11,0,1.77.73,1.77,1.82,0,.14,0,.26-.02.36h-3.04c.05.84.64,1.37,1.49,1.37.46,0,.82-.14,1.18-.36l.23.43c-.38.25-.87.46-1.5.46-1.15,0-2.09-.76-2.09-2.03s.97-2.05,1.97-2.05ZM201.08,79.38c0-.79-.43-1.23-1.15-1.23-.63,0-1.22.45-1.31,1.23h2.46Z"/>
      <path class="cls-7" d="M203.85,79.39c0-1.54.69-2.77,1.8-3.63l.36.33c-1.07.9-1.57,1.95-1.57,3.29s.5,2.39,1.57,3.29l-.36.34c-1.11-.86-1.8-2.09-1.8-3.63Z"/>
      <path class="cls-7" d="M207.97,82.68c1.07-.9,1.57-1.95,1.57-3.29s-.5-2.39-1.57-3.29l.36-.33c1.11.86,1.8,2.09,1.8,3.63s-.69,2.77-1.8,3.63l-.36-.34Z"/>
    </g>
  </g>
  <g>
    <line class="cls-3" x1="61.36" y1="201.44" x2="61.31" y2="89.56"/>
    <polygon class="cls-7" points="63.86 200.71 61.36 205.03 58.87 200.71 63.86 200.71"/>
  </g>
  <g>
    <rect class="cls-6" x="244.84" y="68.3" width="107.72" height="21.26"/>
    <g>
      <path class="cls-7" d="M251.77,76.27c.63,0,1.13.3,1.43.64l-.38.42c-.27-.29-.62-.48-1.06-.48-1.01,0-1.66.82-1.66,2.12s.65,2.15,1.66,2.15c.48,0,.84-.21,1.18-.58l.38.41c-.42.48-.93.76-1.6.76-1.32,0-2.3-1.01-2.3-2.72s.98-2.72,2.34-2.72Z"/>
      <path class="cls-7" d="M255.1,81.94v1.31h-.66v-5.52h.54l.06.5h.02c.36-.34.86-.59,1.34-.59,1.05,0,1.61.78,1.61,1.98,0,1.32-.83,2.09-1.77,2.09-.36,0-.82-.18-1.17-.5l.02.74ZM256.14,81.15c.7,0,1.2-.58,1.2-1.54,0-.86-.32-1.43-1.1-1.43-.34,0-.74.18-1.14.58v1.93c.37.33.78.46,1.04.46Z"/>
      <path class="cls-7" d="M261.37,76.27c.63,0,1.13.3,1.43.64l-.38.42c-.27-.29-.62-.48-1.06-.48-1.01,0-1.66.82-1.66,2.12s.65,2.15,1.66,2.15c.48,0,.84-.21,1.18-.58l.38.41c-.42.48-.93.76-1.6.76-1.32,0-2.3-1.01-2.3-2.72s.98-2.72,2.34-2.72Z"/>
      <path class="cls-7" d="M265.7,77.63c1.02,0,1.92.74,1.92,2.05s-.9,2.03-1.92,2.03-1.92-.74-1.92-2.03.9-2.05,1.92-2.05ZM265.7,81.16c.74,0,1.24-.6,1.24-1.49s-.5-1.5-1.24-1.5-1.24.61-1.24,1.5.5,1.49,1.24,1.49Z"/>
      <path class="cls-7" d="M269.27,77.72h.54l.06.92h.02c.41-.62,1.02-1.02,1.73-1.02.29,0,.52.04.76.16l-.14.57c-.27-.1-.42-.14-.73-.14-.58,0-1.14.3-1.6,1.11v2.28h-.66v-3.89Z"/>
      <path class="cls-7" d="M275.43,77.63c1.11,0,1.77.73,1.77,1.82,0,.14,0,.26-.02.36h-3.04c.05.84.64,1.37,1.49,1.37.46,0,.82-.14,1.18-.36l.23.43c-.38.25-.87.46-1.5.46-1.15,0-2.09-.76-2.09-2.03s.97-2.05,1.98-2.05ZM276.59,79.38c0-.79-.43-1.23-1.15-1.23-.63,0-1.22.45-1.31,1.23h2.46Z"/>
      <path class="cls-7" d="M278.78,76.36h3.21v.56h-2.54v1.78h2.15v.56h-2.15v2.35h-.66v-5.25Z"/>
      <path class="cls-7" d="M283.22,77.72h2.46v3.89h-.66v-3.35h-1.81v-.54ZM284.76,76.42c0-.31.22-.51.53-.51s.53.2.53.51-.23.5-.53.5-.53-.2-.53-.5Z"/>
      <path class="cls-7" d="M291.77,76.54c-.32-.14-.57-.18-.9-.18-.7,0-.98.38-.98,1.01v.35h1.63v.54h-1.63v3.35h-.65v-3.35h-1.11v-.5l1.11-.04v-.33c0-.95.5-1.58,1.57-1.58.38,0,.75.07,1.12.22l-.15.5Z"/>
      <path class="cls-7" d="M294.5,77.63c1.02,0,1.92.74,1.92,2.05s-.9,2.03-1.92,2.03-1.92-.74-1.92-2.03.9-2.05,1.92-2.05ZM294.5,81.16c.74,0,1.24-.6,1.24-1.49s-.5-1.5-1.24-1.5-1.24.61-1.24,1.5.5,1.49,1.24,1.49Z"/>
      <path class="cls-7" d="M300.56,81.61l-1.26-2.21h-.94v2.21h-.66v-5.25h1.63c1.06,0,1.83.38,1.83,1.47,0,.82-.46,1.3-1.18,1.49l1.33,2.29h-.76ZM298.37,78.85h.87c.82,0,1.26-.34,1.26-1.02s-.45-.94-1.26-.94h-.87v1.95Z"/>
      <path class="cls-7" d="M304.23,77.63c1.11,0,1.77.73,1.77,1.82,0,.14,0,.26-.02.36h-3.04c.05.84.64,1.37,1.49,1.37.46,0,.82-.14,1.18-.36l.23.43c-.38.25-.87.46-1.49.46-1.15,0-2.09-.76-2.09-2.03s.97-2.05,1.98-2.05ZM305.39,79.38c0-.79-.43-1.23-1.15-1.23-.63,0-1.22.45-1.31,1.23h2.46Z"/>
      <path class="cls-7" d="M309.96,79.15c-.02-.53-.28-.98-1.03-.98-.5,0-1,.24-1.36.46l-.26-.45c.39-.26,1.05-.56,1.73-.56,1.06,0,1.58.63,1.58,1.6v2.38h-.54l-.06-.53h-.02c-.43.34-.98.62-1.54.62-.73,0-1.32-.41-1.32-1.1,0-.87.81-1.29,2.81-1.46ZM308.65,81.18c.44,0,.88-.21,1.32-.58v-1.02c-1.66.14-2.17.46-2.17.98,0,.44.41.62.86.62Z"/>
      <path class="cls-7" d="M313.55,77.63c.47,0,.82.19,1.18.5l-.02-.72v-1.5h.66v5.69h-.54l-.06-.51h-.02c-.32.33-.78.61-1.26.61-1.02,0-1.69-.74-1.69-2.03s.85-2.05,1.77-2.05ZM313.6,81.15c.38,0,.75-.2,1.1-.58v-1.93c-.35-.33-.69-.46-1.02-.46-.67,0-1.22.6-1.22,1.49s.42,1.49,1.14,1.49Z"/>
      <path class="cls-7" d="M317.77,79.39c0-1.54.69-2.77,1.8-3.63l.36.33c-1.07.9-1.57,1.95-1.57,3.29s.5,2.39,1.57,3.29l-.36.34c-1.11-.86-1.8-2.09-1.8-3.63Z"/>
      <path class="cls-7" d="M321.88,82.68c1.07-.9,1.57-1.95,1.57-3.29s-.5-2.39-1.57-3.29l.36-.33c1.11.86,1.8,2.09,1.8,3.63s-.69,2.77-1.8,3.63l-.36-.34Z"/>
    </g>
  </g>
  <g>
    <rect class="cls-6" x="7.47" y="114.23" width="107.72" height="21.26"/>
    <g>
      <path class="cls-7" d="M14.4,122.2c.63,0,1.13.3,1.43.64l-.38.42c-.27-.29-.62-.48-1.06-.48-1.01,0-1.66.82-1.66,2.12s.65,2.15,1.66,2.15c.48,0,.84-.21,1.18-.58l.38.41c-.42.48-.93.76-1.6.76-1.32,0-2.3-1.01-2.3-2.72s.98-2.72,2.34-2.72Z"/>
      <path class="cls-7" d="M17.73,127.87v1.31h-.66v-5.52h.54l.06.5h.02c.36-.34.86-.59,1.34-.59,1.05,0,1.61.78,1.61,1.98,0,1.32-.83,2.09-1.77,2.09-.36,0-.82-.18-1.17-.5l.02.74ZM18.77,127.08c.7,0,1.2-.58,1.2-1.54,0-.86-.32-1.43-1.1-1.43-.34,0-.74.18-1.14.58v1.93c.37.33.78.46,1.04.46Z"/>
      <path class="cls-7" d="M24,122.2c.63,0,1.13.3,1.43.64l-.38.42c-.27-.29-.62-.48-1.06-.48-1.01,0-1.66.82-1.66,2.12s.65,2.15,1.66,2.15c.48,0,.84-.21,1.18-.58l.38.41c-.42.48-.93.76-1.6.76-1.32,0-2.3-1.01-2.3-2.72s.98-2.72,2.34-2.72Z"/>
      <path class="cls-7" d="M28.33,123.56c1.02,0,1.92.74,1.92,2.05s-.9,2.03-1.92,2.03-1.92-.74-1.92-2.03.9-2.05,1.92-2.05ZM28.33,127.09c.74,0,1.24-.6,1.24-1.49s-.5-1.5-1.24-1.5-1.24.61-1.24,1.5.5,1.49,1.24,1.49Z"/>
      <path class="cls-7" d="M31.9,123.65h.54l.06.92h.02c.41-.62,1.02-1.02,1.73-1.02.29,0,.52.04.76.16l-.14.57c-.27-.1-.42-.14-.73-.14-.58,0-1.14.3-1.6,1.11v2.28h-.66v-3.89Z"/>
      <path class="cls-7" d="M38.06,123.56c1.11,0,1.77.73,1.77,1.82,0,.14,0,.26-.02.36h-3.04c.05.84.64,1.37,1.49,1.37.46,0,.82-.14,1.18-.36l.23.43c-.38.25-.87.46-1.5.46-1.15,0-2.09-.76-2.09-2.03s.97-2.05,1.98-2.05ZM39.22,125.31c0-.79-.43-1.23-1.15-1.23-.63,0-1.22.45-1.31,1.23h2.46Z"/>
      <path class="cls-7" d="M41.16,122.29h1.44c1.07,0,1.8.36,1.8,1.28,0,.52-.3.98-.92,1.14v.03c.77.12,1.22.54,1.22,1.26,0,1.03-.81,1.54-1.97,1.54h-1.56v-5.25ZM42.48,124.53c.9,0,1.26-.32,1.26-.9s-.42-.81-1.22-.81h-.69v1.71h.66ZM42.62,127.01c.9,0,1.42-.33,1.42-1.04,0-.65-.5-.94-1.42-.94h-.79v1.98h.79Z"/>
      <path class="cls-7" d="M49.17,127.54h-.54l-.06-.68h-.03c-.39.46-.85.78-1.45.78-.93,0-1.35-.54-1.35-1.57v-2.41h.66v2.33c0,.74.25,1.09.9,1.09.45,0,.78-.22,1.21-.72v-2.69h.66v3.89Z"/>
      <path class="cls-7" d="M54.4,122.47c-.32-.14-.57-.18-.9-.18-.7,0-.98.38-.98,1.01v.35h1.63v.54h-1.63v3.35h-.65v-3.35h-1.11v-.5l1.11-.04v-.33c0-.95.5-1.58,1.57-1.58.38,0,.75.07,1.12.22l-.15.5Z"/>
      <path class="cls-7" d="M59.2,122.47c-.32-.14-.57-.18-.9-.18-.7,0-.98.38-.98,1.01v.35h1.63v.54h-1.63v3.35h-.65v-3.35h-1.11v-.5l1.11-.04v-.33c0-.95.5-1.58,1.57-1.58.38,0,.75.07,1.12.22l-.15.5Z"/>
      <path class="cls-7" d="M62.06,123.56c1.11,0,1.77.73,1.77,1.82,0,.14,0,.26-.02.36h-3.04c.05.84.64,1.37,1.49,1.37.46,0,.82-.14,1.18-.36l.23.43c-.38.25-.87.46-1.5.46-1.15,0-2.09-.76-2.09-2.03s.97-2.05,1.97-2.05ZM63.22,125.31c0-.79-.43-1.23-1.15-1.23-.63,0-1.22.45-1.31,1.23h2.46Z"/>
      <path class="cls-7" d="M65.5,123.65h.54l.06.92h.02c.41-.62,1.02-1.02,1.73-1.02.29,0,.52.04.76.16l-.14.57c-.27-.1-.42-.14-.73-.14-.58,0-1.14.3-1.6,1.11v2.28h-.66v-3.89Z"/>
      <path class="cls-7" d="M70.07,126.4c.39.39.94.66,1.51.66.74,0,1.17-.34,1.17-.86s-.41-.7-.94-.93l-.75-.33c-.53-.21-1.14-.58-1.14-1.35s.72-1.39,1.72-1.39c.66,0,1.23.26,1.62.65l-.35.43c-.34-.3-.74-.5-1.26-.5-.63,0-1.04.3-1.04.77,0,.5.49.69.94.87l.74.32c.65.26,1.16.62,1.16,1.4,0,.83-.7,1.5-1.85,1.5-.77,0-1.43-.3-1.9-.78l.4-.46Z"/>
      <path class="cls-7" d="M76.46,123.56c1.11,0,1.77.73,1.77,1.82,0,.14,0,.26-.02.36h-3.04c.05.84.64,1.37,1.49,1.37.46,0,.82-.14,1.18-.36l.23.43c-.38.25-.87.46-1.5.46-1.15,0-2.09-.76-2.09-2.03s.97-2.05,1.98-2.05ZM77.62,125.31c0-.79-.43-1.23-1.15-1.23-.63,0-1.22.45-1.31,1.23h2.46Z"/>
      <path class="cls-7" d="M80.38,124.19h-1.1v-.5l1.12-.04.09-1.09h.54v1.09h1.9v.54h-1.9v1.85c0,.7.23,1.06.98,1.06.37,0,.66-.07.94-.18l.14.48c-.34.13-.79.23-1.22.23-1.13,0-1.5-.65-1.5-1.61v-1.84Z"/>
      <path class="cls-7" d="M84.21,122.29h1.28c1.58,0,2.43.94,2.43,2.6s-.85,2.65-2.4,2.65h-1.31v-5.25ZM85.45,127c1.19,0,1.78-.78,1.78-2.1s-.59-2.05-1.78-2.05h-.58v4.16h.58Z"/>
      <path class="cls-7" d="M91.79,125.08c-.02-.53-.28-.98-1.03-.98-.5,0-1,.24-1.36.46l-.26-.45c.39-.26,1.05-.56,1.73-.56,1.06,0,1.58.63,1.58,1.6v2.38h-.54l-.06-.53h-.02c-.43.34-.98.62-1.54.62-.73,0-1.32-.41-1.32-1.1,0-.87.81-1.29,2.81-1.46ZM90.47,127.11c.44,0,.88-.21,1.32-.58v-1.02c-1.66.14-2.17.46-2.17.98,0,.44.41.62.86.62Z"/>
      <path class="cls-7" d="M94.78,124.19h-1.1v-.5l1.12-.04.09-1.09h.54v1.09h1.9v.54h-1.9v1.85c0,.7.23,1.06.98,1.06.37,0,.66-.07.94-.18l.14.48c-.34.13-.79.23-1.22.23-1.13,0-1.5-.65-1.5-1.61v-1.84Z"/>
      <path class="cls-7" d="M101.39,125.08c-.02-.53-.28-.98-1.03-.98-.5,0-1,.24-1.36.46l-.26-.45c.39-.26,1.05-.56,1.73-.56,1.06,0,1.58.63,1.58,1.6v2.38h-.54l-.06-.53h-.02c-.43.34-.98.62-1.54.62-.73,0-1.32-.41-1.32-1.1,0-.87.81-1.29,2.81-1.46ZM100.07,127.11c.44,0,.88-.21,1.32-.58v-1.02c-1.66.14-2.17.46-2.17.98,0,.44.41.62.86.62Z"/>
      <path class="cls-7" d="M104.39,125.32c0-1.54.69-2.77,1.8-3.63l.36.33c-1.07.9-1.57,1.95-1.57,3.29s.5,2.39,1.57,3.29l-.36.34c-1.11-.86-1.8-2.09-1.8-3.63Z"/>
      <path class="cls-7" d="M108.51,128.61c1.07-.9,1.57-1.95,1.57-3.29s-.5-2.39-1.57-3.29l.36-.33c1.11.86,1.8,2.09,1.8,3.63s-.69,2.77-1.8,3.63l-.36-.34Z"/>
    </g>
  </g>
  <g>
    <rect class="cls-6" x="7.5" y="157.69" width="107.72" height="21.26"/>
    <g>
      <path class="cls-7" d="M14.44,165.66c.63,0,1.13.3,1.43.64l-.38.42c-.27-.29-.62-.48-1.06-.48-1.01,0-1.66.82-1.66,2.12s.65,2.15,1.66,2.15c.48,0,.84-.21,1.18-.58l.38.41c-.42.48-.93.76-1.6.76-1.32,0-2.3-1.01-2.3-2.72s.98-2.72,2.34-2.72Z"/>
      <path class="cls-7" d="M17.76,171.32v1.31h-.66v-5.53h.54l.06.5h.02c.36-.34.86-.59,1.34-.59,1.05,0,1.61.78,1.61,1.98,0,1.32-.83,2.09-1.77,2.09-.36,0-.82-.18-1.17-.5l.02.74ZM18.8,170.54c.7,0,1.2-.58,1.2-1.54,0-.86-.32-1.43-1.1-1.43-.34,0-.74.18-1.14.58v1.94c.37.33.78.46,1.04.46Z"/>
      <path class="cls-7" d="M24.04,165.66c.63,0,1.13.3,1.43.64l-.38.42c-.27-.29-.62-.48-1.06-.48-1.01,0-1.66.82-1.66,2.12s.65,2.15,1.66,2.15c.48,0,.84-.21,1.18-.58l.38.41c-.42.48-.93.76-1.6.76-1.32,0-2.3-1.01-2.3-2.72s.98-2.72,2.34-2.72Z"/>
      <path class="cls-7" d="M28.36,167.02c1.02,0,1.92.74,1.92,2.05s-.9,2.03-1.92,2.03-1.92-.74-1.92-2.03.9-2.05,1.92-2.05ZM28.36,170.55c.74,0,1.24-.6,1.24-1.49s-.5-1.5-1.24-1.5-1.24.61-1.24,1.5.5,1.49,1.24,1.49Z"/>
      <path class="cls-7" d="M31.93,167.11h.54l.06.92h.02c.41-.62,1.02-1.02,1.73-1.02.29,0,.52.04.76.16l-.14.57c-.27-.1-.42-.14-.73-.14-.58,0-1.14.3-1.6,1.11v2.28h-.66v-3.89Z"/>
      <path class="cls-7" d="M38.09,167.02c1.11,0,1.77.73,1.77,1.82,0,.14,0,.26-.02.36h-3.04c.05.84.64,1.37,1.49,1.37.46,0,.82-.14,1.18-.36l.23.43c-.38.25-.87.46-1.5.46-1.15,0-2.09-.76-2.09-2.03s.97-2.05,1.98-2.05ZM39.25,168.77c0-.79-.43-1.23-1.15-1.23-.63,0-1.22.45-1.31,1.23h2.46Z"/>
      <path class="cls-7" d="M41.19,165.75h1.44c1.07,0,1.8.36,1.8,1.28,0,.52-.3.98-.92,1.14v.03c.77.12,1.22.54,1.22,1.25,0,1.03-.81,1.54-1.97,1.54h-1.56v-5.25ZM42.52,167.99c.9,0,1.26-.32,1.26-.9s-.42-.81-1.22-.81h-.69v1.71h.66ZM42.65,170.47c.9,0,1.42-.33,1.42-1.04,0-.65-.5-.94-1.42-.94h-.79v1.98h.79Z"/>
      <path class="cls-7" d="M49.2,171h-.54l-.06-.68h-.03c-.39.46-.85.78-1.45.78-.93,0-1.35-.54-1.35-1.57v-2.42h.66v2.33c0,.74.25,1.09.9,1.09.45,0,.78-.22,1.21-.72v-2.69h.66v3.89Z"/>
      <path class="cls-7" d="M54.43,165.93c-.32-.14-.57-.18-.9-.18-.7,0-.98.38-.98,1.02v.35h1.63v.54h-1.63v3.35h-.65v-3.35h-1.11v-.5l1.11-.04v-.33c0-.95.5-1.58,1.57-1.58.38,0,.75.07,1.12.22l-.15.5Z"/>
      <path class="cls-7" d="M59.23,165.93c-.32-.14-.57-.18-.9-.18-.7,0-.98.38-.98,1.02v.35h1.63v.54h-1.63v3.35h-.65v-3.35h-1.11v-.5l1.11-.04v-.33c0-.95.5-1.58,1.57-1.58.38,0,.75.07,1.12.22l-.15.5Z"/>
      <path class="cls-7" d="M62.09,167.02c1.11,0,1.77.73,1.77,1.82,0,.14,0,.26-.02.36h-3.04c.05.84.64,1.37,1.49,1.37.46,0,.82-.14,1.18-.36l.23.43c-.38.25-.87.46-1.5.46-1.15,0-2.09-.76-2.09-2.03s.97-2.05,1.97-2.05ZM63.25,168.77c0-.79-.43-1.23-1.15-1.23-.63,0-1.22.45-1.31,1.23h2.46Z"/>
      <path class="cls-7" d="M65.53,167.11h.54l.06.92h.02c.41-.62,1.02-1.02,1.73-1.02.29,0,.52.04.76.16l-.14.57c-.27-.1-.42-.14-.73-.14-.58,0-1.14.3-1.6,1.11v2.28h-.66v-3.89Z"/>
      <path class="cls-7" d="M70.1,169.85c.39.39.94.66,1.51.66.74,0,1.17-.34,1.17-.86s-.41-.7-.94-.93l-.75-.33c-.53-.21-1.14-.58-1.14-1.35s.72-1.39,1.72-1.39c.66,0,1.23.26,1.62.65l-.35.43c-.34-.3-.74-.5-1.26-.5-.63,0-1.04.3-1.04.77,0,.5.49.69.94.87l.74.32c.65.26,1.16.62,1.16,1.4,0,.83-.7,1.5-1.85,1.5-.77,0-1.43-.3-1.9-.78l.4-.46Z"/>
      <path class="cls-7" d="M76.49,167.02c1.11,0,1.77.73,1.77,1.82,0,.14,0,.26-.02.36h-3.04c.05.84.64,1.37,1.49,1.37.46,0,.82-.14,1.18-.36l.23.43c-.38.25-.87.46-1.5.46-1.15,0-2.09-.76-2.09-2.03s.97-2.05,1.98-2.05ZM77.65,168.77c0-.79-.43-1.23-1.15-1.23-.63,0-1.22.45-1.31,1.23h2.46Z"/>
      <path class="cls-7" d="M79.51,167.11h.54l.06.66h.03c.41-.43.86-.76,1.46-.76.92,0,1.34.54,1.34,1.57v2.41h-.66v-2.33c0-.74-.26-1.09-.9-1.09-.46,0-.78.23-1.23.7v2.71h-.66v-3.89Z"/>
      <path class="cls-7" d="M85.81,167.02c.47,0,.82.19,1.18.5l-.02-.72v-1.5h.66v5.69h-.54l-.06-.51h-.02c-.32.33-.78.61-1.26.61-1.02,0-1.69-.74-1.69-2.03s.85-2.05,1.77-2.05ZM85.87,170.54c.38,0,.75-.2,1.1-.58v-1.94c-.35-.33-.69-.46-1.02-.46-.67,0-1.22.6-1.22,1.49s.42,1.49,1.14,1.49Z"/>
      <path class="cls-7" d="M90.03,168.77c0-1.54.69-2.77,1.8-3.63l.36.34c-1.07.9-1.57,1.95-1.57,3.29s.5,2.39,1.57,3.29l-.36.34c-1.11-.86-1.8-2.09-1.8-3.63Z"/>
      <path class="cls-7" d="M94.14,172.07c1.07-.9,1.57-1.95,1.57-3.29s-.5-2.39-1.57-3.29l.36-.34c1.11.86,1.8,2.09,1.8,3.63s-.69,2.77-1.8,3.63l-.36-.34Z"/>
    </g>
  </g>
  <g>
    <line class="cls-3" x1="180.04" y1="121.27" x2="180.03" y2="89.6"/>
    <polygon class="cls-7" points="182.53 120.54 180.04 124.86 177.55 120.54 182.53 120.54"/>
  </g>
  <g>
    <line class="cls-3" x1="298.7" y1="93.15" x2="298.7" y2="124.86"/>
    <polygon class="cls-7" points="296.2 93.88 298.7 89.56 301.19 93.88 296.2 93.88"/>
  </g>
  <g>
    <rect class="cls-6" x="453.09" y="20.35" width="107.72" height="21.26"/>
    <g>
      <path class="cls-7" d="M460.03,28.32c.63,0,1.13.3,1.43.64l-.38.42c-.27-.29-.62-.48-1.05-.48-1.01,0-1.66.82-1.66,2.12s.65,2.15,1.66,2.15c.48,0,.84-.21,1.17-.58l.38.41c-.42.48-.93.76-1.6.76-1.32,0-2.3-1.01-2.3-2.72s.97-2.72,2.34-2.72Z"/>
      <path class="cls-7" d="M463.36,33.99v1.31h-.66v-5.52h.54l.06.5h.02c.36-.34.86-.59,1.34-.59,1.05,0,1.61.78,1.61,1.98,0,1.32-.83,2.09-1.77,2.09-.36,0-.82-.18-1.17-.5l.02.74ZM464.4,33.21c.7,0,1.2-.58,1.2-1.54,0-.86-.32-1.43-1.1-1.43-.34,0-.74.18-1.14.58v1.94c.37.33.78.46,1.04.46Z"/>
      <path class="cls-7" d="M469.63,28.32c.63,0,1.13.3,1.43.64l-.38.42c-.27-.29-.62-.48-1.05-.48-1.01,0-1.66.82-1.66,2.12s.65,2.15,1.66,2.15c.48,0,.84-.21,1.17-.58l.38.41c-.42.48-.93.76-1.6.76-1.32,0-2.3-1.01-2.3-2.72s.97-2.72,2.34-2.72Z"/>
      <path class="cls-7" d="M473.96,29.68c1.02,0,1.92.74,1.92,2.05s-.9,2.03-1.92,2.03-1.92-.74-1.92-2.03.9-2.05,1.92-2.05ZM473.96,33.21c.74,0,1.24-.6,1.24-1.49s-.5-1.5-1.24-1.5-1.24.61-1.24,1.5.5,1.49,1.24,1.49Z"/>
      <path class="cls-7" d="M477.53,29.78h.54l.06.92h.02c.41-.62,1.02-1.02,1.73-1.02.29,0,.52.04.76.16l-.14.57c-.27-.1-.42-.14-.73-.14-.58,0-1.14.3-1.6,1.11v2.28h-.66v-3.89Z"/>
      <path class="cls-7" d="M483.68,29.68c1.11,0,1.77.73,1.77,1.82,0,.14,0,.26-.02.36h-3.04c.05.84.64,1.37,1.49,1.37.46,0,.82-.14,1.18-.36l.23.43c-.38.25-.87.46-1.5.46-1.15,0-2.09-.76-2.09-2.03s.97-2.05,1.97-2.05ZM484.84,31.43c0-.79-.43-1.23-1.15-1.23-.63,0-1.21.45-1.31,1.23h2.46Z"/>
      <path class="cls-7" d="M486.78,28.42h1.44c1.07,0,1.8.36,1.8,1.28,0,.52-.3.98-.92,1.14v.03c.77.12,1.21.54,1.21,1.26,0,1.03-.81,1.54-1.97,1.54h-1.56v-5.25ZM488.11,30.66c.9,0,1.25-.32,1.25-.9s-.42-.81-1.22-.81h-.69v1.71h.66ZM488.24,33.13c.9,0,1.42-.33,1.42-1.04,0-.65-.5-.94-1.42-.94h-.79v1.98h.79Z"/>
      <path class="cls-7" d="M494.8,33.66h-.54l-.06-.68h-.03c-.39.46-.85.78-1.45.78-.93,0-1.35-.54-1.35-1.57v-2.41h.66v2.33c0,.74.25,1.09.9,1.09.45,0,.78-.22,1.21-.72v-2.69h.66v3.89Z"/>
      <path class="cls-7" d="M500.03,28.59c-.32-.14-.57-.18-.9-.18-.7,0-.98.38-.98,1.02v.35h1.63v.54h-1.63v3.35h-.65v-3.35h-1.11v-.5l1.11-.04v-.33c0-.95.5-1.58,1.57-1.58.38,0,.75.07,1.12.22l-.15.5Z"/>
      <path class="cls-7" d="M504.83,28.59c-.32-.14-.57-.18-.9-.18-.7,0-.98.38-.98,1.02v.35h1.63v.54h-1.63v3.35h-.65v-3.35h-1.11v-.5l1.11-.04v-.33c0-.95.5-1.58,1.57-1.58.38,0,.75.07,1.12.22l-.15.5Z"/>
      <path class="cls-7" d="M507.68,29.68c1.11,0,1.77.73,1.77,1.82,0,.14,0,.26-.02.36h-3.04c.05.84.64,1.37,1.49,1.37.46,0,.82-.14,1.18-.36l.23.43c-.38.25-.87.46-1.5.46-1.15,0-2.09-.76-2.09-2.03s.97-2.05,1.97-2.05ZM508.84,31.43c0-.79-.43-1.23-1.15-1.23-.63,0-1.22.45-1.31,1.23h2.46Z"/>
      <path class="cls-7" d="M511.12,29.78h.54l.06.92h.02c.41-.62,1.02-1.02,1.73-1.02.29,0,.52.04.76.16l-.14.57c-.27-.1-.42-.14-.73-.14-.58,0-1.14.3-1.6,1.11v2.28h-.66v-3.89Z"/>
      <path class="cls-7" d="M517.63,28.32c.63,0,1.13.3,1.43.64l-.38.42c-.27-.29-.62-.48-1.06-.48-1.01,0-1.66.82-1.66,2.12s.65,2.15,1.66,2.15c.48,0,.84-.21,1.18-.58l.38.41c-.42.48-.93.76-1.6.76-1.32,0-2.3-1.01-2.3-2.72s.98-2.72,2.34-2.72Z"/>
      <path class="cls-7" d="M521.96,29.68c1.02,0,1.92.74,1.92,2.05s-.9,2.03-1.92,2.03-1.92-.74-1.92-2.03.9-2.05,1.92-2.05ZM521.96,33.21c.74,0,1.24-.6,1.24-1.49s-.5-1.5-1.24-1.5-1.24.61-1.24,1.5.5,1.49,1.24,1.49Z"/>
      <path class="cls-7" d="M525.1,29.78h.54l.06.66h.03c.41-.43.86-.76,1.46-.76.92,0,1.34.54,1.34,1.57v2.41h-.66v-2.33c0-.74-.26-1.09-.9-1.09-.46,0-.78.23-1.23.7v2.71h-.66v-3.89Z"/>
      <path class="cls-7" d="M533.63,28.59c-.32-.14-.57-.18-.9-.18-.7,0-.98.38-.98,1.02v.35h1.63v.54h-1.63v3.35h-.65v-3.35h-1.11v-.5l1.11-.04v-.33c0-.95.5-1.58,1.57-1.58.38,0,.75.07,1.12.22l-.15.5Z"/>
      <path class="cls-7" d="M534.68,29.78h2.46v3.89h-.66v-3.35h-1.81v-.54ZM536.21,28.47c0-.31.22-.51.53-.51s.53.2.53.51-.23.5-.53.5-.53-.2-.53-.5Z"/>
      <path class="cls-7" d="M539.97,33.51v-.03c-.21-.11-.4-.31-.4-.64,0-.25.17-.53.46-.73v-.03c-.26-.2-.48-.54-.48-1.01,0-.85.7-1.39,1.53-1.39.22,0,.41.03.58.1h1.61v.5h-1.04c.18.19.36.47.36.82,0,.83-.66,1.33-1.5,1.33-.2,0-.44-.05-.66-.14-.19.12-.3.26-.3.45,0,.31.3.45.81.45h.87c1,0,1.48.26,1.48.91,0,.73-.84,1.36-2.16,1.36-1.14,0-1.79-.39-1.79-1.08,0-.31.22-.62.64-.86ZM541.17,35c.9,0,1.46-.4,1.46-.8,0-.37-.3-.47-.89-.47h-.76c-.22,0-.42-.02-.59-.06-.37.2-.5.42-.5.65,0,.41.44.69,1.27.69ZM541.98,31.07c0-.54-.4-.91-.9-.91s-.9.37-.9.91.41.92.9.92.9-.36.9-.92Z"/>
      <path class="cls-7" d="M545.22,31.44c0-1.54.69-2.77,1.8-3.63l.36.34c-1.07.9-1.57,1.95-1.57,3.29s.5,2.39,1.57,3.29l-.36.34c-1.11-.86-1.8-2.09-1.8-3.63Z"/>
      <path class="cls-7" d="M549.33,34.73c1.07-.9,1.57-1.95,1.57-3.29s-.5-2.39-1.57-3.29l.36-.34c1.11.86,1.8,2.09,1.8,3.63s-.69,2.77-1.8,3.63l-.36-.34Z"/>
    </g>
  </g>
  <g>
    <line class="cls-3" x1="439.87" y1="93.15" x2="439.87" y2="204.97"/>
    <polygon class="cls-7" points="437.37 93.88 439.87 89.56 442.36 93.88 437.37 93.88"/>
  </g>
  <g>
    <rect class="cls-6" x="386.01" y="114.23" width="107.72" height="21.26"/>
    <g>
      <path class="cls-7" d="M392.94,122.2c.63,0,1.13.3,1.43.64l-.38.42c-.27-.29-.62-.48-1.06-.48-1.01,0-1.66.82-1.66,2.12s.65,2.15,1.66,2.15c.48,0,.84-.21,1.18-.58l.38.41c-.42.48-.93.76-1.6.76-1.32,0-2.3-1.01-2.3-2.72s.98-2.72,2.34-2.72Z"/>
      <path class="cls-7" d="M396.27,127.87v1.31h-.66v-5.52h.54l.06.5h.02c.36-.34.86-.59,1.34-.59,1.05,0,1.61.78,1.61,1.98,0,1.32-.83,2.09-1.77,2.09-.36,0-.82-.18-1.17-.5l.02.74ZM397.31,127.08c.7,0,1.2-.58,1.2-1.54,0-.86-.32-1.43-1.1-1.43-.34,0-.74.18-1.14.58v1.93c.37.33.78.46,1.04.46Z"/>
      <path class="cls-7" d="M402.54,122.2c.63,0,1.13.3,1.43.64l-.38.42c-.27-.29-.62-.48-1.06-.48-1.01,0-1.66.82-1.66,2.12s.65,2.15,1.66,2.15c.48,0,.84-.21,1.18-.58l.38.41c-.42.48-.93.76-1.6.76-1.32,0-2.3-1.01-2.3-2.72s.98-2.72,2.34-2.72Z"/>
      <path class="cls-7" d="M406.87,123.56c1.02,0,1.92.74,1.92,2.05s-.9,2.03-1.92,2.03-1.92-.74-1.92-2.03.9-2.05,1.92-2.05ZM406.87,127.09c.74,0,1.24-.6,1.24-1.49s-.5-1.5-1.24-1.5-1.24.61-1.24,1.5.5,1.49,1.24,1.49Z"/>
      <path class="cls-7" d="M410.44,123.65h.54l.06.92h.02c.41-.62,1.02-1.02,1.74-1.02.29,0,.52.04.76.16l-.14.57c-.27-.1-.42-.14-.73-.14-.58,0-1.14.3-1.6,1.11v2.28h-.66v-3.89Z"/>
      <path class="cls-7" d="M416.6,123.56c1.11,0,1.77.73,1.77,1.82,0,.14,0,.26-.02.36h-3.04c.05.84.64,1.37,1.49,1.37.46,0,.82-.14,1.18-.36l.23.43c-.38.25-.87.46-1.5.46-1.15,0-2.09-.76-2.09-2.03s.97-2.05,1.98-2.05ZM417.76,125.31c0-.79-.43-1.23-1.15-1.23-.63,0-1.22.45-1.31,1.23h2.46Z"/>
      <path class="cls-7" d="M419.7,122.29h1.44c1.07,0,1.8.36,1.8,1.28,0,.52-.3.98-.92,1.14v.03c.77.12,1.22.54,1.22,1.26,0,1.03-.81,1.54-1.97,1.54h-1.56v-5.25ZM421.02,124.53c.9,0,1.26-.32,1.26-.9s-.42-.81-1.22-.81h-.69v1.71h.66ZM421.16,127.01c.9,0,1.42-.33,1.42-1.04,0-.65-.5-.94-1.42-.94h-.79v1.98h.79Z"/>
      <path class="cls-7" d="M427.71,127.54h-.54l-.06-.68h-.03c-.39.46-.85.78-1.45.78-.93,0-1.35-.54-1.35-1.57v-2.41h.66v2.33c0,.74.25,1.09.9,1.09.45,0,.78-.22,1.21-.72v-2.69h.66v3.89Z"/>
      <path class="cls-7" d="M432.94,122.47c-.32-.14-.57-.18-.9-.18-.7,0-.98.38-.98,1.01v.35h1.63v.54h-1.63v3.35h-.65v-3.35h-1.11v-.5l1.11-.04v-.33c0-.95.5-1.58,1.57-1.58.38,0,.75.07,1.12.22l-.15.5Z"/>
      <path class="cls-7" d="M437.74,122.47c-.32-.14-.57-.18-.9-.18-.7,0-.98.38-.98,1.01v.35h1.63v.54h-1.63v3.35h-.65v-3.35h-1.11v-.5l1.11-.04v-.33c0-.95.5-1.58,1.57-1.58.38,0,.75.07,1.12.22l-.15.5Z"/>
      <path class="cls-7" d="M440.6,123.56c1.11,0,1.77.73,1.77,1.82,0,.14,0,.26-.02.36h-3.04c.05.84.64,1.37,1.49,1.37.46,0,.82-.14,1.18-.36l.23.43c-.38.25-.87.46-1.5.46-1.15,0-2.09-.76-2.09-2.03s.97-2.05,1.97-2.05ZM441.76,125.31c0-.79-.43-1.23-1.15-1.23-.63,0-1.21.45-1.31,1.23h2.46Z"/>
      <path class="cls-7" d="M444.04,123.65h.54l.06.92h.02c.41-.62,1.02-1.02,1.74-1.02.29,0,.52.04.76.16l-.14.57c-.27-.1-.42-.14-.73-.14-.58,0-1.14.3-1.6,1.11v2.28h-.66v-3.89Z"/>
      <path class="cls-7" d="M450.42,122.2c.7,0,1.15.33,1.45.64l-.38.42c-.26-.27-.57-.48-1.07-.48-.98,0-1.63.82-1.63,2.12s.58,2.15,1.61,2.15c.37,0,.71-.12.91-.31v-1.37h-1.05v-.55h1.66v2.21c-.34.34-.89.61-1.57.61-1.32,0-2.27-1.01-2.27-2.72s.97-2.72,2.33-2.72Z"/>
      <path class="cls-7" d="M455,123.56c1.11,0,1.77.73,1.77,1.82,0,.14,0,.26-.02.36h-3.04c.05.84.64,1.37,1.49,1.37.46,0,.82-.14,1.18-.36l.23.43c-.38.25-.87.46-1.5.46-1.15,0-2.09-.76-2.09-2.03s.97-2.05,1.98-2.05ZM456.16,125.31c0-.79-.43-1.23-1.15-1.23-.63,0-1.22.45-1.31,1.23h2.46Z"/>
      <path class="cls-7" d="M458.92,124.19h-1.09v-.5l1.12-.04.09-1.09h.54v1.09h1.9v.54h-1.9v1.85c0,.7.23,1.06.98,1.06.37,0,.66-.07.94-.18l.14.48c-.34.13-.79.23-1.22.23-1.13,0-1.5-.65-1.5-1.61v-1.84Z"/>
      <path class="cls-7" d="M462.75,122.29h1.28c1.58,0,2.43.94,2.43,2.6s-.85,2.65-2.4,2.65h-1.31v-5.25ZM463.99,127c1.19,0,1.78-.78,1.78-2.1s-.59-2.05-1.78-2.05h-.58v4.16h.58Z"/>
      <path class="cls-7" d="M470.33,125.08c-.02-.53-.28-.98-1.03-.98-.5,0-1,.24-1.36.46l-.26-.45c.39-.26,1.05-.56,1.73-.56,1.06,0,1.58.63,1.58,1.6v2.38h-.54l-.06-.53h-.02c-.43.34-.98.62-1.54.62-.73,0-1.32-.41-1.32-1.1,0-.87.81-1.29,2.81-1.46ZM469.01,127.11c.44,0,.88-.21,1.32-.58v-1.02c-1.66.14-2.17.46-2.17.98,0,.44.41.62.86.62Z"/>
      <path class="cls-7" d="M473.32,124.19h-1.09v-.5l1.12-.04.09-1.09h.54v1.09h1.9v.54h-1.9v1.85c0,.7.23,1.06.98,1.06.37,0,.66-.07.94-.18l.14.48c-.34.13-.79.23-1.22.23-1.13,0-1.5-.65-1.5-1.61v-1.84Z"/>
      <path class="cls-7" d="M479.93,125.08c-.02-.53-.28-.98-1.03-.98-.5,0-1,.24-1.36.46l-.26-.45c.39-.26,1.05-.56,1.73-.56,1.06,0,1.58.63,1.58,1.6v2.38h-.54l-.06-.53h-.02c-.43.34-.98.62-1.54.62-.73,0-1.32-.41-1.32-1.1,0-.87.81-1.29,2.81-1.46ZM478.61,127.11c.44,0,.88-.21,1.32-.58v-1.02c-1.66.14-2.17.46-2.17.98,0,.44.41.62.86.62Z"/>
      <path class="cls-7" d="M482.93,125.32c0-1.54.69-2.77,1.8-3.63l.36.33c-1.07.9-1.57,1.95-1.57,3.29s.5,2.39,1.57,3.29l-.36.34c-1.11-.86-1.8-2.09-1.8-3.63Z"/>
      <path class="cls-7" d="M487.05,128.61c1.07-.9,1.57-1.95,1.57-3.29s-.5-2.39-1.57-3.29l.36-.33c1.11.86,1.8,2.09,1.8,3.63s-.69,2.77-1.8,3.63l-.36-.34Z"/>
    </g>
  </g>
  <rect class="cls-6" x="520.18" y="68.3" width="107.72" height="21.26"/>
  <g>
    <path class="cls-7" d="M527.11,76.27c.63,0,1.13.3,1.43.64l-.38.42c-.27-.29-.62-.48-1.06-.48-1.01,0-1.66.82-1.66,2.12s.65,2.15,1.66,2.15c.48,0,.84-.21,1.18-.58l.38.41c-.42.48-.93.76-1.6.76-1.32,0-2.3-1.01-2.3-2.72s.98-2.72,2.34-2.72Z"/>
    <path class="cls-7" d="M530.44,81.94v1.31h-.66v-5.52h.54l.06.5h.02c.36-.34.86-.59,1.34-.59,1.05,0,1.61.78,1.61,1.98,0,1.32-.83,2.09-1.77,2.09-.36,0-.82-.18-1.17-.5l.02.74ZM531.48,81.15c.7,0,1.2-.58,1.2-1.54,0-.86-.32-1.43-1.1-1.43-.34,0-.74.18-1.14.58v1.93c.37.33.78.46,1.04.46Z"/>
    <path class="cls-7" d="M536.71,76.27c.63,0,1.13.3,1.43.64l-.38.42c-.27-.29-.62-.48-1.06-.48-1.01,0-1.66.82-1.66,2.12s.65,2.15,1.66,2.15c.48,0,.84-.21,1.18-.58l.38.41c-.42.48-.93.76-1.6.76-1.32,0-2.3-1.01-2.3-2.72s.98-2.72,2.34-2.72Z"/>
    <path class="cls-7" d="M541.04,77.63c1.02,0,1.92.74,1.92,2.05s-.9,2.03-1.92,2.03-1.92-.74-1.92-2.03.9-2.05,1.92-2.05ZM541.04,81.16c.74,0,1.24-.6,1.24-1.49s-.5-1.5-1.24-1.5-1.24.61-1.24,1.5.5,1.49,1.24,1.49Z"/>
    <path class="cls-7" d="M544.61,77.72h.54l.06.92h.02c.41-.62,1.02-1.02,1.74-1.02.29,0,.52.04.76.16l-.14.57c-.27-.1-.42-.14-.73-.14-.58,0-1.14.3-1.6,1.11v2.28h-.66v-3.89Z"/>
    <path class="cls-7" d="M550.77,77.63c1.11,0,1.77.73,1.77,1.82,0,.14,0,.26-.02.36h-3.04c.05.84.64,1.37,1.49,1.37.46,0,.82-.14,1.18-.36l.23.43c-.38.25-.87.46-1.5.46-1.15,0-2.09-.76-2.09-2.03s.97-2.05,1.98-2.05ZM551.93,79.38c0-.79-.43-1.23-1.15-1.23-.63,0-1.22.45-1.31,1.23h2.46Z"/>
    <path class="cls-7" d="M553.72,76.36h1.28c1.58,0,2.43.94,2.43,2.6s-.85,2.65-2.4,2.65h-1.31v-5.25ZM554.96,81.06c1.19,0,1.78-.78,1.78-2.1s-.59-2.05-1.78-2.05h-.58v4.16h.58Z"/>
    <path class="cls-7" d="M559.01,77.72h.54l.06.92h.02c.41-.62,1.02-1.02,1.73-1.02.29,0,.52.04.76.16l-.14.57c-.27-.1-.42-.14-.73-.14-.58,0-1.14.3-1.6,1.11v2.28h-.66v-3.89Z"/>
    <path class="cls-7" d="M563.36,77.72h2.46v3.89h-.66v-3.35h-1.81v-.54ZM564.9,76.42c0-.31.22-.51.53-.51s.53.2.53.51-.23.5-.53.5-.53-.2-.53-.5Z"/>
    <path class="cls-7" d="M567.85,77.72h.66l.9,2.21c.16.39.3.78.44,1.14h.03c.14-.37.26-.75.42-1.14l.9-2.21h.63l-1.61,3.89h-.74l-1.64-3.89Z"/>
    <path class="cls-7" d="M574.77,77.63c1.11,0,1.77.73,1.77,1.82,0,.14,0,.26-.02.36h-3.04c.05.84.64,1.37,1.49,1.37.46,0,.82-.14,1.18-.36l.23.43c-.38.25-.87.46-1.5.46-1.15,0-2.09-.76-2.09-2.03s.97-2.05,1.97-2.05ZM575.93,79.38c0-.79-.43-1.23-1.15-1.23-.63,0-1.21.45-1.31,1.23h2.46Z"/>
    <path class="cls-7" d="M578.21,77.72h.54l.06.92h.02c.41-.62,1.02-1.02,1.74-1.02.29,0,.52.04.76.16l-.14.57c-.27-.1-.42-.14-.73-.14-.58,0-1.14.3-1.6,1.11v2.28h-.66v-3.89Z"/>
    <path class="cls-7" d="M582.6,81.04h1.3v-4.12h-1.3v-.56h3.28v.56h-1.3v4.12h1.3v.57h-3.28v-.57Z"/>
    <path class="cls-7" d="M587.39,77.72h.54l.06.66h.03c.41-.43.86-.76,1.46-.76.92,0,1.34.54,1.34,1.57v2.42h-.66v-2.33c0-.74-.26-1.09-.9-1.09-.46,0-.78.23-1.23.7v2.71h-.66v-3.89Z"/>
    <path class="cls-7" d="M592.16,77.72h2.46v3.89h-.66v-3.35h-1.81v-.54ZM593.7,76.42c0-.31.22-.51.53-.51s.53.2.53.51-.23.5-.53.5-.53-.2-.53-.5Z"/>
    <path class="cls-7" d="M597.89,78.26h-1.09v-.5l1.12-.04.09-1.09h.54v1.09h1.9v.54h-1.9v1.85c0,.7.23,1.06.98,1.06.37,0,.66-.07.94-.18l.14.48c-.34.13-.79.23-1.22.23-1.13,0-1.5-.65-1.5-1.61v-1.84Z"/>
    <path class="cls-7" d="M602.71,79.39c0-1.54.69-2.77,1.8-3.63l.36.33c-1.07.9-1.57,1.95-1.57,3.29s.5,2.39,1.57,3.29l-.36.34c-1.11-.86-1.8-2.09-1.8-3.63Z"/>
    <path class="cls-7" d="M606.82,82.68c1.07-.9,1.57-1.95,1.57-3.29s-.5-2.39-1.57-3.29l.36-.33c1.11.86,1.8,2.09,1.8,3.63s-.69,2.77-1.8,3.63l-.36-.34Z"/>
  </g>
  <g>
    <rect class="cls-6" x="315.42" y="20.35" width="107.72" height="21.26"/>
    <g>
      <path class="cls-7" d="M322.36,28.32c.63,0,1.13.3,1.43.64l-.38.42c-.27-.29-.62-.48-1.06-.48-1.01,0-1.66.82-1.66,2.12s.65,2.15,1.66,2.15c.48,0,.84-.21,1.18-.58l.38.41c-.42.48-.93.76-1.6.76-1.32,0-2.3-1.01-2.3-2.72s.98-2.72,2.34-2.72Z"/>
      <path class="cls-7" d="M325.69,33.99v1.31h-.66v-5.52h.54l.06.5h.02c.36-.34.86-.59,1.34-.59,1.05,0,1.61.78,1.61,1.98,0,1.32-.83,2.09-1.77,2.09-.36,0-.82-.18-1.17-.5l.02.74ZM326.73,33.21c.7,0,1.2-.58,1.2-1.54,0-.86-.32-1.43-1.1-1.43-.34,0-.74.18-1.14.58v1.94c.37.33.78.46,1.04.46Z"/>
      <path class="cls-7" d="M331.96,28.32c.63,0,1.13.3,1.43.64l-.38.42c-.27-.29-.62-.48-1.06-.48-1.01,0-1.66.82-1.66,2.12s.65,2.15,1.66,2.15c.48,0,.84-.21,1.18-.58l.38.41c-.42.48-.93.76-1.6.76-1.32,0-2.3-1.01-2.3-2.72s.98-2.72,2.34-2.72Z"/>
      <path class="cls-7" d="M336.29,29.68c1.02,0,1.92.74,1.92,2.05s-.9,2.03-1.92,2.03-1.92-.74-1.92-2.03.9-2.05,1.92-2.05ZM336.29,33.21c.74,0,1.24-.6,1.24-1.49s-.5-1.5-1.24-1.5-1.24.61-1.24,1.5.5,1.49,1.24,1.49Z"/>
      <path class="cls-7" d="M339.86,29.78h.54l.06.92h.02c.41-.62,1.02-1.02,1.74-1.02.29,0,.52.04.76.16l-.14.57c-.27-.1-.42-.14-.73-.14-.58,0-1.14.3-1.6,1.11v2.28h-.66v-3.89Z"/>
      <path class="cls-7" d="M346.01,29.68c1.11,0,1.77.73,1.77,1.82,0,.14,0,.26-.02.36h-3.04c.05.84.64,1.37,1.49,1.37.46,0,.82-.14,1.18-.36l.23.43c-.38.25-.87.46-1.5.46-1.15,0-2.09-.76-2.09-2.03s.97-2.05,1.98-2.05ZM347.17,31.43c0-.79-.43-1.23-1.15-1.23-.63,0-1.22.45-1.31,1.23h2.46Z"/>
      <path class="cls-7" d="M349.37,28.42h3.21v.56h-2.54v1.78h2.15v.56h-2.15v2.35h-.66v-5.25Z"/>
      <path class="cls-7" d="M353.81,29.78h2.46v3.89h-.66v-3.35h-1.81v-.54ZM355.34,28.47c0-.31.22-.51.53-.51s.53.2.53.51-.23.5-.53.5-.53-.2-.53-.5Z"/>
      <path class="cls-7" d="M362.36,28.59c-.32-.14-.57-.18-.9-.18-.7,0-.98.38-.98,1.02v.35h1.63v.54h-1.63v3.35h-.65v-3.35h-1.11v-.5l1.11-.04v-.33c0-.95.5-1.58,1.57-1.58.38,0,.75.07,1.12.22l-.15.5Z"/>
      <path class="cls-7" d="M365.09,29.68c1.02,0,1.92.74,1.92,2.05s-.9,2.03-1.92,2.03-1.92-.74-1.92-2.03.9-2.05,1.92-2.05ZM365.09,33.21c.74,0,1.24-.6,1.24-1.49s-.5-1.5-1.24-1.5-1.24.61-1.24,1.5.5,1.49,1.24,1.49Z"/>
      <path class="cls-7" d="M370.36,28.32c.63,0,1.13.3,1.43.64l-.38.42c-.27-.29-.62-.48-1.06-.48-1.01,0-1.66.82-1.66,2.12s.65,2.15,1.66,2.15c.48,0,.84-.21,1.18-.58l.38.41c-.42.48-.93.76-1.6.76-1.32,0-2.3-1.01-2.3-2.72s.98-2.72,2.34-2.72Z"/>
      <path class="cls-7" d="M374.69,29.68c1.02,0,1.92.74,1.92,2.05s-.9,2.03-1.92,2.03-1.92-.74-1.92-2.03.9-2.05,1.92-2.05ZM374.69,33.21c.74,0,1.24-.6,1.24-1.49s-.5-1.5-1.24-1.5-1.24.61-1.24,1.5.5,1.49,1.24,1.49Z"/>
      <path class="cls-7" d="M377.83,29.78h.54l.06.66h.03c.41-.43.86-.76,1.46-.76.92,0,1.34.54,1.34,1.57v2.41h-.66v-2.33c0-.74-.26-1.09-.9-1.09-.46,0-.78.23-1.23.7v2.71h-.66v-3.89Z"/>
      <path class="cls-7" d="M386.36,28.59c-.32-.14-.57-.18-.9-.18-.7,0-.98.38-.98,1.02v.35h1.63v.54h-1.63v3.35h-.65v-3.35h-1.11v-.5l1.11-.04v-.33c0-.95.5-1.58,1.57-1.58.38,0,.75.07,1.12.22l-.15.5Z"/>
      <path class="cls-7" d="M387.41,29.78h2.46v3.89h-.66v-3.35h-1.81v-.54ZM388.94,28.47c0-.31.22-.51.53-.51s.53.2.53.51-.23.5-.53.5-.53-.2-.53-.5Z"/>
      <path class="cls-7" d="M392.7,33.51v-.03c-.21-.11-.4-.31-.4-.64,0-.25.17-.53.46-.73v-.03c-.26-.2-.48-.54-.48-1.01,0-.85.7-1.39,1.53-1.39.22,0,.41.03.58.1h1.61v.5h-1.04c.18.19.36.47.36.82,0,.83-.66,1.33-1.5,1.33-.2,0-.44-.05-.66-.14-.19.12-.3.26-.3.45,0,.31.3.45.81.45h.87c1,0,1.48.26,1.48.91,0,.73-.84,1.36-2.16,1.36-1.13,0-1.79-.39-1.79-1.08,0-.31.22-.62.64-.86ZM393.9,35c.9,0,1.46-.4,1.46-.8,0-.37-.3-.47-.89-.47h-.76c-.22,0-.42-.02-.59-.06-.37.2-.5.42-.5.65,0,.41.44.69,1.27.69ZM394.71,31.07c0-.54-.4-.91-.9-.91s-.9.37-.9.91.41.92.9.92.9-.36.9-.92Z"/>
      <path class="cls-7" d="M397.95,31.44c0-1.54.69-2.77,1.8-3.63l.36.34c-1.07.9-1.57,1.95-1.57,3.29s.5,2.39,1.57,3.29l-.36.34c-1.11-.86-1.8-2.09-1.8-3.63Z"/>
      <path class="cls-7" d="M402.06,34.73c1.07-.9,1.57-1.95,1.57-3.29s-.5-2.39-1.57-3.29l.36-.34c1.11.86,1.8,2.09,1.8,3.63s-.69,2.77-1.8,3.63l-.36-.34Z"/>
    </g>
  </g>
  <g>
    <line class="cls-3" x1="576.89" y1="273.52" x2="574.98" y2="89.56"/>
    <polygon class="cls-7" points="579.38 272.76 576.93 277.1 574.39 272.81 579.38 272.76"/>
  </g>
  <g>
    <rect class="cls-6" x="522.11" y="201.15" width="107.72" height="21.26"/>
    <g>
      <path class="cls-7" d="M529.04,209.11c.63,0,1.13.3,1.43.64l-.38.42c-.27-.29-.62-.48-1.06-.48-1.01,0-1.66.82-1.66,2.12s.65,2.15,1.66,2.15c.48,0,.84-.21,1.18-.58l.38.41c-.42.48-.93.76-1.6.76-1.32,0-2.3-1.01-2.3-2.72s.98-2.72,2.34-2.72Z"/>
      <path class="cls-7" d="M532.37,214.78v1.31h-.66v-5.52h.54l.06.5h.02c.36-.34.86-.59,1.34-.59,1.05,0,1.61.78,1.61,1.98,0,1.32-.83,2.09-1.77,2.09-.36,0-.82-.18-1.17-.5l.02.74ZM533.41,214c.7,0,1.2-.58,1.2-1.54,0-.86-.32-1.43-1.1-1.43-.34,0-.74.18-1.14.58v1.93c.37.33.78.46,1.04.46Z"/>
      <path class="cls-7" d="M538.64,209.11c.63,0,1.13.3,1.43.64l-.38.42c-.27-.29-.62-.48-1.06-.48-1.01,0-1.66.82-1.66,2.12s.65,2.15,1.66,2.15c.48,0,.84-.21,1.18-.58l.38.41c-.42.48-.93.76-1.6.76-1.32,0-2.3-1.01-2.3-2.72s.98-2.72,2.34-2.72Z"/>
      <path class="cls-7" d="M542.97,210.47c1.02,0,1.92.74,1.92,2.05s-.9,2.03-1.92,2.03-1.92-.74-1.92-2.03.9-2.05,1.92-2.05ZM542.97,214.01c.74,0,1.24-.6,1.24-1.49s-.5-1.5-1.24-1.5-1.24.61-1.24,1.5.5,1.49,1.24,1.49Z"/>
      <path class="cls-7" d="M546.54,210.57h.54l.06.92h.02c.41-.62,1.02-1.02,1.74-1.02.29,0,.52.04.76.16l-.14.57c-.27-.1-.42-.14-.73-.14-.58,0-1.14.3-1.6,1.11v2.28h-.66v-3.89Z"/>
      <path class="cls-7" d="M552.7,210.47c1.11,0,1.77.73,1.77,1.82,0,.14,0,.26-.02.36h-3.04c.05.84.64,1.37,1.49,1.37.46,0,.82-.14,1.18-.36l.23.43c-.38.25-.87.46-1.5.46-1.15,0-2.09-.76-2.09-2.03s.97-2.05,1.98-2.05ZM553.86,212.22c0-.79-.43-1.23-1.15-1.23-.63,0-1.22.45-1.31,1.23h2.46Z"/>
      <path class="cls-7" d="M557.84,209.11c.63,0,1.13.3,1.43.64l-.38.42c-.27-.29-.62-.48-1.06-.48-1.01,0-1.66.82-1.66,2.12s.65,2.15,1.66,2.15c.48,0,.84-.21,1.18-.58l.38.41c-.42.48-.93.76-1.6.76-1.32,0-2.3-1.01-2.3-2.72s.98-2.72,2.34-2.72Z"/>
      <path class="cls-7" d="M563.23,211.99c-.02-.53-.28-.98-1.03-.98-.5,0-1,.24-1.36.46l-.26-.45c.39-.26,1.05-.56,1.73-.56,1.06,0,1.58.63,1.58,1.6v2.38h-.54l-.06-.53h-.02c-.43.34-.98.62-1.54.62-.73,0-1.32-.41-1.32-1.1,0-.87.81-1.29,2.81-1.46ZM561.91,214.02c.44,0,.88-.21,1.32-.58v-1.02c-1.66.14-2.17.46-2.17.98,0,.44.41.62.86.62Z"/>
      <path class="cls-7" d="M565.32,210.57h.54l.06.66h.03c.41-.43.86-.76,1.46-.76.92,0,1.34.54,1.34,1.57v2.42h-.66v-2.33c0-.74-.26-1.09-.9-1.09-.46,0-.78.23-1.23.7v2.71h-.66v-3.89Z"/>
      <path class="cls-7" d="M570.31,213.31c.39.39.94.66,1.51.66.74,0,1.17-.34,1.17-.86s-.41-.7-.94-.93l-.75-.33c-.53-.21-1.14-.58-1.14-1.35s.72-1.39,1.72-1.39c.66,0,1.23.26,1.62.65l-.35.43c-.34-.3-.74-.5-1.26-.5-.63,0-1.04.3-1.04.77,0,.5.49.69.94.87l.74.32c.65.26,1.16.62,1.16,1.4,0,.83-.7,1.5-1.85,1.5-.77,0-1.43-.3-1.9-.78l.4-.46Z"/>
      <path class="cls-7" d="M575.82,211.1h-1.09v-.5l1.12-.04.09-1.09h.54v1.09h1.9v.54h-1.9v1.85c0,.7.23,1.06.98,1.06.37,0,.66-.07.94-.18l.14.48c-.34.13-.79.23-1.22.23-1.13,0-1.5-.65-1.5-1.61v-1.84Z"/>
      <path class="cls-7" d="M582.43,211.99c-.02-.53-.28-.98-1.03-.98-.5,0-1,.24-1.36.46l-.26-.45c.39-.26,1.05-.56,1.73-.56,1.06,0,1.58.63,1.58,1.6v2.38h-.54l-.06-.53h-.02c-.43.34-.98.62-1.54.62-.73,0-1.32-.41-1.32-1.1,0-.87.81-1.29,2.81-1.46ZM581.11,214.02c.44,0,.88-.21,1.32-.58v-1.02c-1.66.14-2.17.46-2.17.98,0,.44.41.62.86.62Z"/>
      <path class="cls-7" d="M585.42,211.1h-1.1v-.5l1.12-.04.09-1.09h.54v1.09h1.9v.54h-1.9v1.85c0,.7.23,1.06.98,1.06.37,0,.66-.07.94-.18l.14.48c-.34.13-.79.23-1.21.23-1.13,0-1.5-.65-1.5-1.61v-1.84Z"/>
      <path class="cls-7" d="M591.1,210.47c1.11,0,1.77.73,1.77,1.82,0,.14,0,.26-.02.36h-3.04c.05.84.64,1.37,1.49,1.37.46,0,.82-.14,1.18-.36l.23.43c-.38.25-.87.46-1.5.46-1.15,0-2.09-.76-2.09-2.03s.97-2.05,1.98-2.05ZM592.26,212.22c0-.79-.43-1.23-1.15-1.23-.63,0-1.22.45-1.31,1.23h2.46Z"/>
      <path class="cls-7" d="M595.03,212.23c0-1.54.69-2.77,1.8-3.63l.36.33c-1.07.9-1.57,1.95-1.57,3.29s.5,2.39,1.57,3.29l-.36.34c-1.11-.86-1.8-2.09-1.8-3.63Z"/>
      <path class="cls-7" d="M599.15,215.53c1.07-.9,1.57-1.95,1.57-3.29s-.5-2.39-1.57-3.29l.36-.33c1.11.86,1.8,2.09,1.8,3.63s-.69,2.77-1.8,3.63l-.36-.34Z"/>
    </g>
  </g>
  <g>
    <rect class="cls-6" x="522.11" y="157.69" width="107.72" height="21.26"/>
    <g>
      <path class="cls-7" d="M529.04,165.66c.63,0,1.13.3,1.43.64l-.38.42c-.27-.29-.62-.48-1.06-.48-1.01,0-1.66.82-1.66,2.12s.65,2.15,1.66,2.15c.48,0,.84-.21,1.18-.58l.38.41c-.42.48-.93.76-1.6.76-1.32,0-2.3-1.01-2.3-2.72s.98-2.72,2.34-2.72Z"/>
      <path class="cls-7" d="M532.37,171.32v1.31h-.66v-5.53h.54l.06.5h.02c.36-.34.86-.59,1.34-.59,1.05,0,1.61.78,1.61,1.98,0,1.32-.83,2.09-1.77,2.09-.36,0-.82-.18-1.17-.5l.02.74ZM533.41,170.54c.7,0,1.2-.58,1.2-1.54,0-.86-.32-1.43-1.1-1.43-.34,0-.74.18-1.14.58v1.94c.37.33.78.46,1.04.46Z"/>
      <path class="cls-7" d="M538.64,165.66c.63,0,1.13.3,1.43.64l-.38.42c-.27-.29-.62-.48-1.06-.48-1.01,0-1.66.82-1.66,2.12s.65,2.15,1.66,2.15c.48,0,.84-.21,1.18-.58l.38.41c-.42.48-.93.76-1.6.76-1.32,0-2.3-1.01-2.3-2.72s.98-2.72,2.34-2.72Z"/>
      <path class="cls-7" d="M542.97,167.02c1.02,0,1.92.74,1.92,2.05s-.9,2.03-1.92,2.03-1.92-.74-1.92-2.03.9-2.05,1.92-2.05ZM542.97,170.55c.74,0,1.24-.6,1.24-1.49s-.5-1.5-1.24-1.5-1.24.61-1.24,1.5.5,1.49,1.24,1.49Z"/>
      <path class="cls-7" d="M546.54,167.11h.54l.06.92h.02c.41-.62,1.02-1.02,1.74-1.02.29,0,.52.04.76.16l-.14.57c-.27-.1-.42-.14-.73-.14-.58,0-1.14.3-1.6,1.11v2.28h-.66v-3.89Z"/>
      <path class="cls-7" d="M552.7,167.02c1.11,0,1.77.73,1.77,1.82,0,.14,0,.26-.02.36h-3.04c.05.84.64,1.37,1.49,1.37.46,0,.82-.14,1.18-.36l.23.43c-.38.25-.87.46-1.5.46-1.15,0-2.09-.76-2.09-2.03s.97-2.05,1.98-2.05ZM553.86,168.77c0-.79-.43-1.23-1.15-1.23-.63,0-1.22.45-1.31,1.23h2.46Z"/>
      <path class="cls-7" d="M557.84,165.66c.63,0,1.13.3,1.43.64l-.38.42c-.27-.29-.62-.48-1.06-.48-1.01,0-1.66.82-1.66,2.12s.65,2.15,1.66,2.15c.48,0,.84-.21,1.18-.58l.38.41c-.42.48-.93.76-1.6.76-1.32,0-2.3-1.01-2.3-2.72s.98-2.72,2.34-2.72Z"/>
      <path class="cls-7" d="M563.23,168.53c-.02-.53-.28-.97-1.03-.97-.5,0-1,.24-1.36.46l-.26-.45c.39-.26,1.05-.56,1.73-.56,1.06,0,1.58.63,1.58,1.6v2.38h-.54l-.06-.53h-.02c-.43.34-.98.62-1.54.62-.73,0-1.32-.41-1.32-1.1,0-.87.81-1.3,2.81-1.46ZM561.91,170.56c.44,0,.88-.21,1.32-.58v-1.02c-1.66.14-2.17.46-2.17.97,0,.44.41.62.86.62Z"/>
      <path class="cls-7" d="M565.32,167.11h.54l.06.66h.03c.41-.43.86-.76,1.46-.76.92,0,1.34.54,1.34,1.57v2.41h-.66v-2.33c0-.74-.26-1.09-.9-1.09-.46,0-.78.23-1.23.7v2.71h-.66v-3.89Z"/>
      <path class="cls-7" d="M570.02,165.75h.74l.74,2.23.26.85h.03l.26-.85.74-2.23h.74v5.25h-.57v-2.95c0-.43.05-1.19.08-1.62h-.02l-.34,1.12-.72,2.02h-.36l-.72-2.02-.35-1.12h-.02c.03.42.09,1.18.09,1.62v2.95h-.56v-5.25Z"/>
      <path class="cls-7" d="M576.57,167.02c1.02,0,1.92.74,1.92,2.05s-.9,2.03-1.92,2.03-1.92-.74-1.92-2.03.9-2.05,1.92-2.05ZM576.57,170.55c.74,0,1.24-.6,1.24-1.49s-.5-1.5-1.24-1.5-1.24.61-1.24,1.5.5,1.49,1.24,1.49Z"/>
      <path class="cls-7" d="M581.22,167.02c.47,0,.82.19,1.18.5l-.02-.72v-1.5h.66v5.69h-.54l-.06-.51h-.02c-.32.33-.78.61-1.26.61-1.02,0-1.69-.74-1.69-2.03s.85-2.05,1.77-2.05ZM581.27,170.54c.38,0,.75-.2,1.1-.58v-1.94c-.35-.33-.69-.46-1.02-.46-.67,0-1.22.6-1.22,1.49s.42,1.49,1.14,1.49Z"/>
      <path class="cls-7" d="M586.3,167.02c1.11,0,1.77.73,1.77,1.82,0,.14,0,.26-.02.36h-3.04c.05.84.64,1.37,1.49,1.37.46,0,.82-.14,1.18-.36l.23.43c-.38.25-.87.46-1.5.46-1.15,0-2.09-.76-2.09-2.03s.97-2.05,1.98-2.05ZM587.46,168.77c0-.79-.43-1.23-1.15-1.23-.63,0-1.22.45-1.31,1.23h2.46Z"/>
      <path class="cls-7" d="M590.23,168.77c0-1.54.69-2.77,1.8-3.63l.36.34c-1.07.9-1.57,1.95-1.57,3.29s.5,2.39,1.57,3.29l-.36.34c-1.11-.86-1.8-2.09-1.8-3.63Z"/>
      <path class="cls-7" d="M594.35,172.07c1.07-.9,1.57-1.95,1.57-3.29s-.5-2.39-1.57-3.29l.36-.34c1.11.86,1.8,2.09,1.8,3.63s-.69,2.77-1.8,3.63l-.36-.34Z"/>
    </g>
  </g>
  <rect class="cls-6" x="522.11" y="114.23" width="107.72" height="21.26"/>
  <g>
    <path class="cls-7" d="M529.04,122.2c.63,0,1.13.3,1.43.64l-.38.42c-.27-.29-.62-.48-1.06-.48-1.01,0-1.66.82-1.66,2.12s.65,2.15,1.66,2.15c.48,0,.84-.21,1.18-.58l.38.41c-.42.48-.93.76-1.6.76-1.32,0-2.3-1.01-2.3-2.72s.98-2.72,2.34-2.72Z"/>
    <path class="cls-7" d="M532.37,127.87v1.31h-.66v-5.52h.54l.06.5h.02c.36-.34.86-.59,1.34-.59,1.05,0,1.61.78,1.61,1.98,0,1.32-.83,2.09-1.77,2.09-.36,0-.82-.18-1.17-.5l.02.74ZM533.41,127.08c.7,0,1.2-.58,1.2-1.54,0-.86-.32-1.43-1.1-1.43-.34,0-.74.18-1.14.58v1.93c.37.33.78.46,1.04.46Z"/>
    <path class="cls-7" d="M538.64,122.2c.63,0,1.13.3,1.43.64l-.38.42c-.27-.29-.62-.48-1.06-.48-1.01,0-1.66.82-1.66,2.12s.65,2.15,1.66,2.15c.48,0,.84-.21,1.18-.58l.38.41c-.42.48-.93.76-1.6.76-1.32,0-2.3-1.01-2.3-2.72s.98-2.72,2.34-2.72Z"/>
    <path class="cls-7" d="M542.97,123.56c1.02,0,1.92.74,1.92,2.05s-.9,2.03-1.92,2.03-1.92-.74-1.92-2.03.9-2.05,1.92-2.05ZM542.97,127.09c.74,0,1.24-.6,1.24-1.49s-.5-1.5-1.24-1.5-1.24.61-1.24,1.5.5,1.49,1.24,1.49Z"/>
    <path class="cls-7" d="M546.54,123.65h.54l.06.92h.02c.41-.62,1.02-1.02,1.74-1.02.29,0,.52.04.76.16l-.14.57c-.27-.1-.42-.14-.73-.14-.58,0-1.14.3-1.6,1.11v2.28h-.66v-3.89Z"/>
    <path class="cls-7" d="M552.7,123.56c1.11,0,1.77.73,1.77,1.82,0,.14,0,.26-.02.36h-3.04c.05.84.64,1.37,1.49,1.37.46,0,.82-.14,1.18-.36l.23.43c-.38.25-.87.46-1.5.46-1.15,0-2.09-.76-2.09-2.03s.97-2.05,1.98-2.05ZM553.86,125.31c0-.79-.43-1.23-1.15-1.23-.63,0-1.22.45-1.31,1.23h2.46Z"/>
    <path class="cls-7" d="M555.8,122.29h1.44c1.07,0,1.8.36,1.8,1.28,0,.52-.3.98-.92,1.14v.03c.77.12,1.22.54,1.22,1.26,0,1.03-.81,1.54-1.97,1.54h-1.56v-5.25ZM557.12,124.53c.9,0,1.26-.32,1.26-.9s-.42-.81-1.22-.81h-.69v1.71h.66ZM557.26,127.01c.9,0,1.42-.33,1.42-1.04,0-.65-.5-.94-1.42-.94h-.79v1.98h.79Z"/>
    <path class="cls-7" d="M560.49,123.65h2.46v3.89h-.66v-3.35h-1.81v-.54ZM562.03,122.35c0-.31.22-.51.53-.51s.53.2.53.51-.23.5-.53.5-.53-.2-.53-.5Z"/>
    <path class="cls-7" d="M566.22,124.19h-1.09v-.5l1.12-.04.09-1.09h.54v1.09h1.9v.54h-1.9v1.85c0,.7.23,1.06.98,1.06.37,0,.66-.07.94-.18l.14.48c-.34.13-.79.23-1.22.23-1.13,0-1.5-.65-1.5-1.61v-1.84Z"/>
    <path class="cls-7" d="M570.54,123.65h.54l.06.92h.02c.41-.62,1.02-1.02,1.73-1.02.29,0,.52.04.76.16l-.14.57c-.27-.1-.42-.14-.73-.14-.58,0-1.14.3-1.6,1.11v2.28h-.66v-3.89Z"/>
    <path class="cls-7" d="M577.63,125.08c-.02-.53-.28-.98-1.03-.98-.5,0-1,.24-1.36.46l-.26-.45c.39-.26,1.05-.56,1.73-.56,1.06,0,1.58.63,1.58,1.6v2.38h-.54l-.06-.53h-.02c-.43.34-.98.62-1.54.62-.73,0-1.32-.41-1.32-1.1,0-.87.81-1.29,2.81-1.46ZM576.31,127.11c.44,0,.88-.21,1.32-.58v-1.02c-1.66.14-2.17.46-2.17.98,0,.44.41.62.86.62Z"/>
    <path class="cls-7" d="M580.62,124.19h-1.1v-.5l1.12-.04.09-1.09h.54v1.09h1.9v.54h-1.9v1.85c0,.7.23,1.06.98,1.06.37,0,.66-.07.94-.18l.14.48c-.34.13-.79.23-1.21.23-1.13,0-1.5-.65-1.5-1.61v-1.84Z"/>
    <path class="cls-7" d="M586.3,123.56c1.11,0,1.77.73,1.77,1.82,0,.14,0,.26-.02.36h-3.04c.05.84.64,1.37,1.49,1.37.46,0,.82-.14,1.18-.36l.23.43c-.38.25-.87.46-1.5.46-1.15,0-2.09-.76-2.09-2.03s.97-2.05,1.98-2.05ZM587.46,125.31c0-.79-.43-1.23-1.15-1.23-.63,0-1.22.45-1.31,1.23h2.46Z"/>
    <path class="cls-7" d="M590.23,125.32c0-1.54.69-2.77,1.8-3.63l.36.33c-1.07.9-1.57,1.95-1.57,3.29s.5,2.39,1.57,3.29l-.36.34c-1.11-.86-1.8-2.09-1.8-3.63Z"/>
    <path class="cls-7" d="M594.35,128.61c1.07-.9,1.57-1.95,1.57-3.29s-.5-2.39-1.57-3.29l.36-.33c1.11.86,1.8,2.09,1.8,3.63s-.69,2.77-1.8,3.63l-.36-.34Z"/>
  </g>
  <line class="cls-3" x1="369.31" y1="151.67" x2="369.25" y2="41.61"/>
  <g>
    <line class="cls-3" x1="369.31" y1="151.67" x2="356.52" y2="151.67"/>
    <polygon class="cls-7" points="357.25 149.18 352.94 151.67 357.25 154.17 357.25 149.18"/>
  </g>
  <g>
    <line class="cls-3" x1="244.84" y1="151.67" x2="237.47" y2="151.67"/>
    <polygon class="cls-7" points="238.2 149.18 233.89 151.67 238.2 154.17 238.2 149.18"/>
  </g>
  <line class="cls-3" x1="507.01" y1="215.6" x2="506.92" y2="41.61"/>
  <g>
    <line class="cls-3" x1="507.01" y1="215.6" x2="497.31" y2="215.6"/>
    <polygon class="cls-7" points="498.04 213.11 493.72 215.6 498.04 218.1 498.04 213.11"/>
  </g>
</svg>