<?xml version="1.0" encoding="UTF-8"?>
<svg id="Ebene_1" data-name="Ebene 1" xmlns="http://www.w3.org/2000/svg" viewBox="0 0 528.27 217.4">
  <defs>
    <style>
      .cls-1 {
        fill: #c6c6c6;
      }

      .cls-1, .cls-2, .cls-3, .cls-4 {
        stroke-miterlimit: 10;
        stroke-width: .25px;
      }

      .cls-1, .cls-3, .cls-4 {
        stroke: #1d1d1b;
      }

      .cls-5 {
        fill: #ef7d00;
      }

      .cls-6 {
        fill: #575756;
      }

      .cls-2 {
        fill: none;
        stroke: #ef7d00;
      }

      .cls-3 {
        fill: #fbc998;
      }

      .cls-4 {
        fill: #bbdaf4;
      }
    </style>
  </defs>
  <rect class="cls-2" x=".12" y=".13" width="226.77" height="217.15"/>
  <g>
    <path class="cls-6" d="M12.24,13.32h-.71l3.09-5.6h.5l.81,5.6h-.74l-.21-1.66h-1.89l-.85,1.66ZM14.91,11.12c-.1-.77-.22-1.81-.26-2.51h-.02c-.39.82-.85,1.74-1.25,2.51h1.52Z"/>
    <path class="cls-6" d="M17.69,10.19l.02.02c.32-.51.87-.98,1.5-.98.84,0,1.15.74,1.15,1.54,0,1.06-.8,2.65-2.19,2.65-.38,0-.74-.14-1.01-.42l-.42,2.32h-.65l1.12-6h.65l-.17.86ZM18.27,12.94c.51,0,1.41-.83,1.41-2.22,0-.38-.13-.94-.74-.94s-1.44.88-1.66,2.72c.23.38.6.45.99.45Z"/>
    <path class="cls-6" d="M21.99,10.19l.02.02c.32-.51.87-.98,1.5-.98.84,0,1.15.74,1.15,1.54,0,1.06-.8,2.65-2.19,2.65-.38,0-.74-.14-1.01-.42l-.42,2.32h-.65l1.12-6h.65l-.17.86ZM22.57,12.94c.51,0,1.41-.83,1.41-2.22,0-.38-.13-.94-.74-.94s-1.44.88-1.66,2.72c.23.38.6.45.99.45Z"/>
    <path class="cls-6" d="M25.13,13.32l1.1-5.88h.65l-1.1,5.88h-.65Z"/>
    <path class="cls-6" d="M28.33,9.33l-.75,4h-.65l.75-4h.65ZM27.82,8.12c0-.31.26-.54.5-.54.26,0,.34.22.34.34,0,.24-.19.57-.51.57s-.34-.27-.34-.38Z"/>
    <path class="cls-6" d="M31.56,13.02c-.43.26-.85.4-1.28.4-1.26,0-1.51-1.1-1.51-1.74,0-.83.65-2.45,2.44-2.45.34,0,.67.13.87.32l-.29.38c-.1-.08-.47-.22-.76-.22-.74,0-1.57.77-1.57,1.92,0,.42.11,1.29.98,1.29.32,0,.63-.14.9-.3l.22.4Z"/>
    <path class="cls-6" d="M35.29,13.32h-.65l.14-.75-.02-.02c-.18.26-.79.86-1.48.86-.62,0-1.12-.61-1.12-1.47,0-1.46,1-2.72,2.23-2.72.34,0,.72.21.89.54h.02l.08-.45h.66l-.75,4ZM34.39,9.71c-.82,0-1.53.83-1.53,2.21,0,.61.25.96.67.96.65,0,1.5-.88,1.62-2.33.05-.37-.32-.83-.77-.83Z"/>
    <path class="cls-6" d="M38.39,13.23c-.27.11-.56.19-.81.19-.72,0-.96-.5-.81-1.26l.46-2.41h-.5l.09-.42h.5l.18-.96.7-.24-.22,1.2h.94l-.09.42h-.94l-.47,2.48c-.09.46,0,.71.31.71.22,0,.44-.06.6-.11l.06.4Z"/>
    <path class="cls-6" d="M40.52,9.33l-.75,4h-.65l.75-4h.65ZM40.01,8.12c0-.31.26-.54.5-.54.26,0,.34.22.34.34,0,.24-.19.57-.51.57s-.34-.27-.34-.38Z"/>
    <path class="cls-6" d="M44.6,10.97c0,1.26-.84,2.45-2.02,2.45s-1.62-.98-1.62-1.76c0-1.18.81-2.43,2.16-2.43.81,0,1.49.69,1.49,1.74ZM41.64,11.66c0,.34.11,1.28.95,1.28.78,0,1.32-.94,1.32-1.95,0-.29-.03-1.28-.86-1.28-.9,0-1.41.99-1.41,1.95Z"/>
    <path class="cls-6" d="M46.25,10.29l.02.02c.34-.46.84-1.07,1.81-1.07.46,0,.86.33.86.82,0,.28-.05.49-.1.75l-.5,2.53h-.65l.5-2.44c.04-.16.08-.44.08-.63,0-.3-.18-.5-.56-.5-.66,0-1.52.96-1.71,2.03l-.28,1.54h-.64l.75-4h.62l-.2.96Z"/>
    <path class="cls-6" d="M51.81,13.32l.67-3.57h-.58l.08-.42h.58l.09-.49c.2-1.13.83-1.39,1.31-1.39.19,0,.4.07.53.17l-.21.37c-.1-.03-.19-.06-.34-.06-.11,0-.48.03-.6.68l-.14.72h.86l-.08.42h-.86l-.67,3.57h-.65Z"/>
    <path class="cls-6" d="M57.64,10.97c0,1.26-.84,2.45-2.02,2.45s-1.62-.98-1.62-1.76c0-1.18.81-2.43,2.16-2.43.81,0,1.49.69,1.49,1.74ZM54.69,11.66c0,.34.11,1.28.95,1.28.78,0,1.32-.94,1.32-1.95,0-.29-.03-1.28-.86-1.28-.9,0-1.41.99-1.41,1.95Z"/>
    <path class="cls-6" d="M59.36,9.98l.02.02c.4-.5.62-.77,1.08-.77.22,0,.38.14.52.27l-.34.45c-.06-.03-.22-.08-.43-.08-.45,0-.87.48-1.1,1.69l-.34,1.77h-.65l.75-4h.63l-.14.66Z"/>
    <path class="cls-6" d="M64.18,10.25l.02.02c.29-.47.9-1.04,1.6-1.04.66,0,.84.43.79,1.02l.02.02c.22-.42.89-1.04,1.5-1.04.83,0,1.07.4.82,1.79l-.42,2.3h-.64l.42-2.29c.16-.89.16-1.27-.34-1.27-.4,0-1.32.57-1.6,2.11l-.26,1.46h-.64l.42-2.29c.16-.89.16-1.27-.34-1.27-.4,0-1.32.57-1.6,2.11l-.26,1.46h-.64l.75-4h.62l-.2.93Z"/>
    <path class="cls-6" d="M71,9.33l-.75,4h-.65l.75-4h.65ZM70.49,8.12c0-.31.26-.54.5-.54.26,0,.34.22.34.34,0,.24-.19.57-.51.57s-.34-.27-.34-.38Z"/>
    <path class="cls-6" d="M74.22,13.02c-.43.26-.85.4-1.28.4-1.26,0-1.51-1.1-1.51-1.74,0-.83.65-2.45,2.44-2.45.34,0,.67.13.87.32l-.29.38c-.1-.08-.47-.22-.76-.22-.74,0-1.57.77-1.57,1.92,0,.42.11,1.29.98,1.29.32,0,.63-.14.9-.3l.22.4Z"/>
    <path class="cls-6" d="M76.05,9.98l.02.02c.4-.5.62-.77,1.08-.77.22,0,.38.14.52.27l-.34.45c-.06-.03-.22-.08-.43-.08-.45,0-.87.48-1.1,1.69l-.34,1.77h-.65l.75-4h.63l-.14.66Z"/>
    <path class="cls-6" d="M81.15,10.97c0,1.26-.84,2.45-2.02,2.45s-1.62-.98-1.62-1.76c0-1.18.81-2.43,2.16-2.43.81,0,1.49.69,1.49,1.74ZM78.19,11.66c0,.34.11,1.28.95,1.28.78,0,1.32-.94,1.32-1.95,0-.29-.03-1.28-.86-1.28-.9,0-1.41.99-1.41,1.95Z"/>
    <path class="cls-6" d="M84.44,13.02c-.43.26-.85.4-1.28.4-1.26,0-1.51-1.1-1.51-1.74,0-.83.65-2.45,2.44-2.45.34,0,.67.13.87.32l-.29.38c-.1-.08-.47-.22-.76-.22-.74,0-1.58.77-1.58,1.92,0,.42.11,1.29.98,1.29.32,0,.63-.14.9-.3l.22.4Z"/>
    <path class="cls-6" d="M88.71,10.97c0,1.26-.84,2.45-2.02,2.45s-1.62-.98-1.62-1.76c0-1.18.81-2.43,2.16-2.43.81,0,1.49.69,1.49,1.74ZM85.75,11.66c0,.34.11,1.28.95,1.28.78,0,1.32-.94,1.32-1.95,0-.29-.03-1.28-.86-1.28-.9,0-1.41.99-1.41,1.95Z"/>
    <path class="cls-6" d="M90.36,10.29l.02.02c.34-.46.84-1.07,1.81-1.07.46,0,.86.33.86.82,0,.28-.05.49-.1.75l-.5,2.53h-.65l.5-2.44c.04-.16.08-.44.08-.63,0-.3-.18-.5-.56-.5-.66,0-1.52.96-1.71,2.03l-.28,1.54h-.64l.75-4h.62l-.2.96Z"/>
    <path class="cls-6" d="M95.56,13.23c-.27.11-.56.19-.81.19-.72,0-.96-.5-.81-1.26l.46-2.41h-.5l.09-.42h.5l.18-.96.7-.24-.22,1.2h.94l-.09.42h-.94l-.47,2.48c-.09.46,0,.71.31.71.22,0,.44-.06.6-.11l.06.4Z"/>
    <path class="cls-6" d="M97.53,9.98l.02.02c.4-.5.62-.77,1.08-.77.22,0,.38.14.52.27l-.34.45c-.06-.03-.22-.08-.43-.08-.45,0-.87.48-1.1,1.69l-.34,1.77h-.65l.75-4h.63l-.14.66Z"/>
    <path class="cls-6" d="M102.64,10.97c0,1.26-.84,2.45-2.02,2.45s-1.62-.98-1.62-1.76c0-1.18.81-2.43,2.16-2.43.81,0,1.49.69,1.49,1.74ZM99.68,11.66c0,.34.11,1.28.95,1.28.78,0,1.32-.94,1.32-1.95,0-.29-.03-1.28-.86-1.28-.9,0-1.41.99-1.41,1.95Z"/>
    <path class="cls-6" d="M103.11,13.32l1.1-5.88h.65l-1.1,5.88h-.65Z"/>
    <path class="cls-6" d="M104.91,13.32l1.1-5.88h.65l-1.1,5.88h-.65Z"/>
    <path class="cls-6" d="M109.56,13.02c-.53.29-1.06.4-1.57.4-.85,0-1.25-.61-1.25-1.49,0-1.2,1-2.7,2.41-2.7.44,0,.94.26.94.91,0,.96-1.36,1.57-2.67,1.49-.03.54.03,1.31.84,1.31.41,0,.86-.21,1.06-.32l.22.4ZM109.42,10.27c.02-.34-.19-.56-.48-.56-.54,0-1.24.66-1.41,1.46,1.11.1,1.85-.42,1.89-.9Z"/>
    <path class="cls-6" d="M111.65,9.98l.02.02c.4-.5.62-.77,1.08-.77.22,0,.38.14.52.27l-.34.45c-.06-.03-.22-.08-.43-.08-.45,0-.87.48-1.1,1.69l-.34,1.77h-.65l.75-4h.63l-.14.66Z"/>
  </g>
  <g>
    <path class="cls-5" d="M268.59,217.02c-.02.32.19.21.23.25-.05-.54-.28-.24-.23-.25Z"/>
    <polygon class="cls-5" points="268.11 211.73 268.2 211.82 267.99 211.04 268.11 211.73"/>
    <path class="cls-5" d="M268.12,206.78c-.36.47.06,1.79-.07,2.67l-.08.15.29.4c-.05-1.07-.24-2.46-.14-3.22Z"/>
    <path class="cls-5" d="M268.89,204.15c-.14.16-.12-.57-.04.61.02-.06.02-.08.04-.11,0-.11,0-.25,0-.5Z"/>
    <path class="cls-5" d="M268.88,204.65c.01.52.12-.34,0,0h0Z"/>
    <path class="cls-5" d="M268.8,202.24l.12.69c.08-.14.1-.75.16-.53-.07-.7-.15-.56-.28-.16Z"/>
    <path class="cls-5" d="M268.54,201.59l.05.36c.03-.06.05-.16-.05-.36Z"/>
    <path class="cls-5" d="M268.7,202.7l-.11-.75c-.06.1-.17.11.04.35-.11-.06,0,.09.07.41Z"/>
    <path class="cls-5" d="M268.65,203.13c-.08.38-.13.88-.25.19.05,1.31.3,1.12.25-.19Z"/>
    <path class="cls-5" d="M267.75,206.53l-.1.51.12.45c-.06-.22.1-.99-.02-.96Z"/>
    <path class="cls-5" d="M268.99,197.97c-.08-.04-.2.23-.3.28l.09.51c.05-.26.1-.75.21-.79Z"/>
    <path class="cls-5" d="M268.69,198.25l-.13-.76c-.02.68.05.8.13.76Z"/>
    <polygon class="cls-5" points="268.15 201.47 268.42 202.72 268.14 201.23 268.15 201.47"/>
    <polygon class="cls-5" points="269 195.07 269.17 195.5 268.91 194.74 269 195.07"/>
    <path class="cls-5" d="M268.97,193.15c.15.32.25-.44.34-.1-.03-.52-.15-.97-.26-1.37.06.43.05.88-.07,1.47Z"/>
    <path class="cls-5" d="M268.87,191.01c.03.21.1.43.16.67-.03-.23-.08-.45-.16-.67Z"/>
    <path class="cls-5" d="M268.59,196.2c.05-.06.17-.17.22-.6l-.21.3c0,.09,0,.19,0,.3Z"/>
    <path class="cls-5" d="M268.59,195.91h0c0-.33,0-.56.01-.65,0,.08,0,.28-.02.65Z"/>
    <path class="cls-5" d="M268.59,196.28s0-.05,0-.08c-.02.03-.03.05,0,.08Z"/>
    <path class="cls-5" d="M268.34,199.48c-.12-.45-.25-1.37-.43-.48.15.32.25-.19.43.48Z"/>
    <path class="cls-5" d="M268.33,196.65l-.05.81c.06-.02.14-.16.2.06l-.15-.86Z"/>
    <polygon class="cls-5" points="268.26 196.25 268.33 196.65 268.34 196.35 268.26 196.25"/>
    <path class="cls-5" d="M268.67,192.39c-.09-.35-.1-.73-.12-1.16-.04.46-.06.94-.06,1.39.07.06.19.26.18-.23Z"/>
    <path class="cls-5" d="M268.62,194.1s0-.05-.01-.08c-.02.05-.02.09.01.08Z"/>
    <path class="cls-5" d="M268.56,187s-.03.04-.04.07c.01,0,.02,0,.04.02v-.08Z"/>
    <path class="cls-5" d="M268.45,192.7c-.04.35.01.55.08.75-.02-.26-.04-.53-.04-.83-.03-.03-.05-.03-.04.08Z"/>
    <path class="cls-5" d="M268.77,189.83c-.04.18-.08.38-.12.6.07-.18.17-.54.12-.6Z"/>
    <path class="cls-5" d="M268.66,193.91s0,.03,0,.05c.05-.11.02-.1,0-.05Z"/>
    <path class="cls-5" d="M268.66,193.91c-.03-.18-.08-.32-.13-.46.02.21.04.41.07.58.02-.04.04-.09.06-.12Z"/>
    <path class="cls-5" d="M267.19,185.72c.2.06.38.97.17,1.76.15.77.8.27,1.16-.41-.09-.02-.17-.02-.28-.82-.11.28-.25,1.77-.43,1.09-.1-1.05.07-.86.17-1.38-.25.44-.36-1.34-.72-1.11l.13.92c-.06.02-.15-.32-.2-.06Z"/>
    <path class="cls-5" d="M268.5,188.58l.02.33c.03-.37.11-.64.27-1.13-.1-.54-.17-.66-.24-.7l-.03,1.61-.03-.11Z"/>
    <path class="cls-5" d="M268.53,190.38c-.22-.26-.31-1.04-.54-.56.01.96.18.67.27,1.25-.05-1.55.12.45.24-.68.04.3.05.58.06.84.03-.28.06-.55.1-.8,0,.01,0,.02-.01.04h0s0,0,0,0c-.03.07-.04.09-.03.01,0,0,0-.02,0-.03-.03-.01-.06-.04-.08-.07.04-.45.06-.07.08.07.01,0,.02.02.03.02,0,0,0,0,0,0l-.12-1.55c-.03.33-.02.74,0,1.47Z"/>
    <path class="cls-5" d="M267.45,198.18s.03-.05.05-.05c-.03-.1-.04-.14-.05.05Z"/>
    <path class="cls-5" d="M267.58,197.54c.03.11.12.21.09.57-.06.32-.1,0-.17.02.06.22.15.77.26.08l-.03-.11c.07-.63.34-1.43.37-1.32-.19.18-.33.34-.52.76Z"/>
    <path class="cls-5" d="M268,193.92l-.11-1.29-.19.66.11-.03c-.04.74.09.58.18.67Z"/>
    <polygon class="cls-5" points="268.67 186.85 268.89 187.02 268.57 186.28 268.67 186.85"/>
    <polygon class="cls-5" points="268.64 185.17 268.84 185.23 268.72 184.79 268.64 185.17"/>
    <path class="cls-5" d="M266.18,90.3l-.06-.38c.02.18.04.3.06.38Z"/>
    <path class="cls-5" d="M266.17,93.05l.1.07c-.05-.13-.09-.18-.1-.07Z"/>
    <path class="cls-5" d="M268.62,143.88c.18-.55.47-1.17.25-1.11l-.22.17c.04.39.01.68-.03.94Z"/>
    <path class="cls-5" d="M267.32,115.6c-.02.05-.04.11-.07.16.07.13.14.26.21.37-.04-.16-.09-.34-.14-.54Z"/>
    <path class="cls-5" d="M266.42,115.21l.14-.73c-.05.16-.1.4-.14.73Z"/>
    <path class="cls-5" d="M265.95,75.26l-.22-.44c0,.69.11.39.22.44Z"/>
    <path class="cls-5" d="M268.56,167.95c.08-.48.12-.86.13-1.19-.12.58-.31,1.04-.13,1.19Z"/>
    <path class="cls-5" d="M268.49,91.38c-.04-.23-.08-.33-.13-.33.04.24.08.37.13.33Z"/>
    <path class="cls-5" d="M268.69,165.38c-.02.08-.03.17-.05.25.04.35.07.7.05,1.13.09-.43.15-.91,0-1.38Z"/>
    <path class="cls-5" d="M266.13,20.75s.01-.09.03-.12c-.03-.01-.03.04-.03.12Z"/>
    <path class="cls-5" d="M268.32,4.87c.01.16.01.41.02.65.01-.12.01-.31-.02-.65Z"/>
    <path class="cls-5" d="M268.73,178.41c.01.36.02.06,0,0h0Z"/>
    <path class="cls-5" d="M267.88,180.14c-.02-.08-.06-.13-.11-.14.05.03.09.08.11.14Z"/>
    <path class="cls-5" d="M267.34,161.83s0-.02,0-.03c-.04.11-.03.09,0,.03Z"/>
    <path class="cls-5" d="M268.64,178.94c.03-.13.05-.29.06-.46-.02.07-.04.21-.06.46Z"/>
    <path class="cls-5" d="M268.74,178.87c0,.12-.02.22-.02.31.04.04.06,0,.02-.31Z"/>
    <path class="cls-5" d="M268.72,177.91c0,.2,0,.39-.02.58.01-.07.03-.1.03-.08,0-.1,0-.25-.01-.5Z"/>
    <path class="cls-5" d="M266.72,49.96s.01-.05.02-.08c-.09-.36-.08-.2-.02.08Z"/>
    <path class="cls-5" d="M266.37,134.6s0,.03.01.04c0-.02,0-.04,0-.05h-.02Z"/>
    <path class="cls-5" d="M266.2,133.32c.27.55.24.86.18,1.27l.63-.42-.81-.85Z"/>
    <path class="cls-5" d="M266.12,83.71l-.19.9c-.32-1.09-.21-1.87-.48-1.03.68.13.07,3.5.75,3.62l-.14.59c0-.17-.03-.2-.03-.37-.33,1.15.49.86.39,2.34-.05.52-.15.88-.23.53l.17,1.15c-.01.34-.13.25-.12-.08l.05,1.76h-.02c.11.24.27.81.34,1.08-.1.45-.07-.22-.16-.11l.16.97c-.18.4-.35-.41-.32-1.08-.68.91.17.81-.23,2.77l-.09-.92c-.39.59-.25,1.31-.49,2.35.13-.25.61-2.08.77-1.02-.05.3-.08.69.06,1.26-.24,0-.18.56-.17,1.26l-.32-.05c.09.75.26.69.4,1.14-.03.84-.28,1.01-.49,1.21-.05,1.34.4-.93.46.66-.12,1.12,0,1.9.2,3.24-.11.78-.2-.14-.29.14l.26.69c0,.17-.08.12-.12.09.1.58.32.05.41.97.35.25-.51,1.89-.11,3.03-.09.28-.2-.14-.32-.05.26,1.56.19,1.34.54,2.62l-.21,1.09c.24-.8.52.22.76,1.12.12-.28.22-.53.27-.69l.17,1.43c-.05.17-.16.03-.3-.21.03.1.05.19.08.26-.12.51-.3.25-.48-.12.06-.17.13-.35.2-.52-.19-.35-.41-.68-.6-.61.04.09.07.27.09.47-.05-.09-.1-.15-.13-.11-.03.05.04.2.12.43l-.36.33.14.08-.22,1.87c.36,1.34.89,2.51,1.03,4.64-.26-.53-.43-.11-.74-.14.33-.58-.14-1.65-.07-2.75-.03.58-.18.45-.23.3l.3,1.97c-.25-.04-.19.42-.29.93.5-.39.33,1.47.49,2.27-.17.05-.34-.14-.3-1.12-.38,1.08.59,1.39.27,2.45,0-.24.02-.37-.06-.46.15.56.03,1.92-.12,1.6v-.24c-.06,1.58,0,4.82.42,5.06-.05.02-.51-.21-.6-.3l1.43,2.83c-.37-.25-1.24.71-1.44-.61-.05.38-.11.84.02,1.64.05-.26.53-.64.56-.29-.41.96-.22.67-.56,1.86.08-.39.65.04.63.65-.09-.1-.57.05-.62-.17l.56,1.52c-.1-.38-.48-.07-.64.27.11-.16-.01,1.31.05,1.72l.13-.64c-.08,1.71.79,1.69.76,3.39-.12-.21-.71-.51-.79.36.29.4,1.39,1.75,1.61,3.26l-.16.29.19,1.15c-.43-.72-1.35-2.73-1.7-3.83-.13.64-.19.18-.18,1.14-.15.34-.23-.52-.24-.81l-.1,2.23c.34-.1.34,1.71.62,1.62l-.35-2.43c.34-.1.95,1.4.89,2.99-.13.4-.6-.3-.71-.27.12.21.22,1.5.14,1.65l-.18-.67c-.13.88.45,1.44.12,2.5-.02.37-.43,1.09-.23,1.15.38-.6,1.57-.71,1.86-.32-.03.13-.37,1.92-.56,2.34-.3.6-.72-.9-.98-.39.09.02.21.35.24.49-.08.38-.28-.16-.24.68.34.14-.03,1.7.29.39.1.82-.07.87-.06,1.83.22-.31.75.86.85,1.68-.09-.05-.2.14-.25.22-.03,1.67-.19,2.57-.19,4.13-.08.14-.18.9-.33.58.06.22.18.43.18.91-.29.93-.05-1.07-.4-.36.2.06.27,1.24.4,1.93.31-.21.06-1.58-.06-2.27.42,0,.86,1.19,1.06,2.82.1,1.3-.27.56-.21.79-.07,2.43.74,2.07.43,4.09-.27.8-.53.04-.73.21-.1-1.06.17-1.62.16-2.34l-.13.88c-.09-.34-.16-1.04-.08-1.42-.24.67-.05,4.11-.27,5.99.09.33.18.91.29.64l-.04-.59c.22-.55.3,1.12.4.37.15.8.39,1.69.27,2.81l-.31.21c.09-.02.18-.73.09-1.05.14.47-.42,1.72-.01,2.23l.21-.79c.15.8.48,1.79.38,2.78.3-.45-.03-.23.32-.94-.44.61.02-2.54-.44-1.56.41-.72.17-1.25.52-2.2-.1.03-.19.34-.14-.5-.03-.04-.07-.13-.09-.18,0-.03,0-.03,0-.06,0,.02,0,.03-.01.05-.02-.04-.02-.04,0,.02-.04.2-.1.36-.15.43-.23-.41-.22-1.74-.34-2.19.05-.5.12.21.22-.06l-.18-.67c.22-.07.37-1.32.5-.15v-1.05c.14-.62.19-1.47.09-1.99.05-.5-.25-1.25-.07-.82l-.14-1.65.06-.02c.03-1.62-.37-3.34.03-5.2-.06-.55-.13-1.11-.06-2.03l.19-.18c-.07-.7.19-2.11,0-2.41.52-.76.11-3.41.21-4.64l-.25-.05c.01-.85-.06-1.67-.16-2.72l-.22.06c-.18-.91.16-2.34.14-3.78.09.1.06.46.01.72.51-1.72-.37-3.63,0-5.19-.08-.39-.05-.67,0-.94,0,.04,0,.07.01.1,0-.04,0-.1,0-.16.04-.17.08-.35.12-.54-.05.16-.1.32-.12.45,0-.3-.03-.75-.09-1.2l.24-.19s0-.07,0-.1c.09-.44-.11-.35-.3-.12-.04-.22-.09-.43-.15-.59.39-.36-.13-1.17.28-1.65-.2-.3-.15-2.24-.58-2.48.06-.02.08-.15.09.09.05-.5.1-.99-.02-1.44l.31-.21-.41-1.08c.19-.66.29-.93.53-.28-.36-1.58-.14-1.28-.5-2.63l.2.07c0-.48-.27-1.25-.11-1.54.38-1.07.05-5.32.4-8.07-.58.53.26-1.28-.19-1.39.14-.16.22-.54.34-.1-.14-1.41.22-2.11-.16-3.09.14-.16.2.3.28.16-.03-.11-.12-.45-.04-.59.08-.14.12.21.18.43-.02-1.44-.45-1.58-.85-1.69.19-.73.16-1.09-.1-1.62.13-.25.27-.68.31.22.02-.5.19-3.07-.13-3.12.08-.16.02-.7-.01-.83.02-1.13.05-1.23.02-2.33l-.05.31c-.39-.44-.09-.92-.13-1.81l.04.03c.28-2.05-.13-.88.18-2.9l-.24.11c-.52-.19.3-1.79.11-2.96l-.14.42c-.18-.64.7-1.79.77-2.43.04-.14.07.22.11.42.3-1.68-.31-.22-.39-1.47.17-.23.43.3.46-.55.14-.42-.55-2.45-.23-3.6-.13.25-.26.51-.36-.08-.05-.89.49-2.41.08-3.22.04-.11.07-.16.1-.16-.11-.68-.18-2.22-.4-2.63.83-.63-.4-4.24.36-4.23l-.04-2.1.08.05c.05-1.34-.13-1.82-.32-2.29.05-.31.12-.08.16-.06.15-1.96.12-2.16-.26-3.8l.25-.17c-.14-.45.39-2.83.1-4.76.03.02.08.06.11.21-.29-2.16.69-5.18-.22-5.97l-.22-1.43c-.07,1.85-.39-.28-.54.48-.05-.73.27-1.88.32-.99l-.05.14c.47.33.17-2.3.49-2.25-.02-3.63.24-7.18.26-10.58l-.37.39.02-1.19c.09-.31.29-.42.27.43.21-.45-.17-1.42-.25-1.44.15-1.66.43.65.44.14l-.03-.69-.04.16c-.15-.56-.31-.61-.29-1.63.07-.64.23-.33.24-.58.03,0,.04-.08.01-.39l.03-1.5-.29.6c-.14-.66.02-1.41-.31-.72.5-1.01.18-5.58.34-6.2-.21-.93-.21-1.85-.18-2.98-.06.28-.38.45-.35-.53.67.36.29-1.79.77-2.59-.32.71-.08-2.78-.53-1.67.05-.82.25-.05.41-.67-.26-1.95.17-4.29.08-6.69-.09-.04-.22.37-.35-.15l.44-1.27c-.04-.47-.51-.44-.2-1.3-.07.12-.19.31-.21-.01.43-4.71-.35-9.63.45-14.41-.17.65-.19.22-.19-.28-.04.32-.22,0-.34.06l.33-2c-.33-.36-.02-2.15-.34-2.36l.06.63c-.37-.84-.83,1.18-1.31,1.06.42.94-.63,2.49-.02,4.04-.1.34-.15-.29-.27-.11.21.39.25.87.16,1.75l-.05-.1c.05,2.47-.15,3.53-.29,6.3l.24-.21c-.03.6-.11.72-.17,1,.36.68.02-1.67.42-1.05-.48.79,0,4.2-.55,4.74,0,.92.27-.27.27.65l-.15.24.19.23c-.03.6-.22.9-.34.93.01-.15-.04-.41-.05-.57-.17.78.06,2.2,0,2.47l.09-.88c.14,2.5-.06,5.56.25,7.98l.11-.18c.21,1.85-.12,1.48-.03,3.51l-.03-.07c.11.41.17.95.15,1.5-.13-.51-.25.96-.4.29.22,2,.17.99.59,2.31l-.19.31c.17.45.26.49.3,1.5-.16-.83-.28.65-.49-.28-.41,2.12.41,3.15-.18,4.13.51.98.28-1.84.39-1.29.17-.46.38.81.33,1.47-.01.68-.66,1.15-.65,2.86,0-.17-.04-.18-.03-.35-.13.64.18,1.25-.04,2.04.31.44-.02,1.02.38,1.14l-.09-1.57c.1.89.57,1.72.34,3.18-.08-.11-.18-.55-.24-.85-.12.43.08.82-.04,1.27-.4-.13-.09-1.9-.39-2.85-.17.46.29,1.8-.14,1.32.55.69-.07,1.68.35,2.84l-.24-.08c.04.18.15.56.14.9l-.31-.61c.26.94-.23,1.8-.09,2.7,0-1.88.29-.42.46-1.22.32,2.32-.62,1.33-.51,3.93-.03-.35.14-1.32.25-.77-.05.49-.14,1.15-.26,1.45.05,1.72.24-.26.39.47-.29.59.12.84.21,1.6h-.24c-.15,1.97.5.53.32,2.29l-.33-.75.09.92-.27-.19c.2,1,.15,1.31.07,2.29.17-.23.44.13.45,1-.14.59-.23-.33-.19.9-.15-.28-.34-.58-.12-1.12-.08-.05-.15-.27-.23-.33-.16.64-.04,1.6-.04,2.05,0-.17.02-.38.06-.48l.33,1.78c-.09.28-.16.06-.23-.16.03.36.14.61.16,1.14-.2-.14-.4-.1-.49-.86l.22,1.7c-.09.11-.23.87-.31.65-.12.94.38,2.31.23,3.56.04.06.07.2.1.46-.04,1.17-.28,2.21-.02,3.61l-.35.79c.08,1.09.44-1.07.58.75.11,1.28-.3.48-.4.93.18.64.54,1.75.25,2.93-.07-.39-.01-.7-.04-1.06ZM266.28,97.15c-.05-.26-.21-.78-.06-.97.28.3.14.53.06.97ZM266.86,117.58c-.08-.19-.04-.49.05-.83.02.25.01.52-.05.83ZM268.54,174.5s0-.02-.01-.03c.09-.58.06-.37.01.03ZM268.43,175.7c.03.12.07.11.1.06-.06-.08-.07-.36-.05-.66-.06.09-.11.24-.05.6ZM268.34,46.15l-.06.23c-.07-.53,0-.38.06-.23Z"/>
    <path class="cls-5" d="M266.53,115.26c.04-.07.09-.09.13-.11-.04-.1-.09-.1-.13.11Z"/>
    <path class="cls-5" d="M266,75.35s0-.03,0-.04c-.01-.02-.03-.03-.04-.04l.04.08Z"/>
    <path class="cls-5" d="M266.39,157.02c.03-.25.08-.39.12-.48-.06-.01-.11.1-.12.48Z"/>
    <path class="cls-5" d="M268.84,182.1l-.06-.77c.01.37-.04.51-.08.7.06-.02.14-.16.14.08Z"/>
    <path class="cls-5" d="M267.35,188.8c.03.11,0,.24.03.35l.11-.03c0-.48-.1-.82-.15-.32Z"/>
    <path class="cls-5" d="M268.04,182.81c-.2.06-.13.55-.1,1.09,0-.03,0-.06,0-.1.28.16.19-.42.1-.99Z"/>
    <path class="cls-5" d="M267.95,184.03c0,.17.01.34,0,.5.11.06.02-.2,0-.5Z"/>
    <path class="cls-5" d="M268.57,177.23c-.05.26.26.16.18.31.26.29-.31-1.71-.18-.31Z"/>
    <polygon class="cls-5" points="267.37 183.25 267.62 183.06 267.42 182.75 267.37 183.25"/>
    <path class="cls-5" d="M267.56,178.98l-.07.86s.07.1.09.23c0-.53.06-1.12-.02-1.1Z"/>
    <path class="cls-5" d="M267.57,180.07c0,.28,0,.54.04.7,0-.15-.01-.47-.04-.7Z"/>
    <polygon class="cls-5" points="267.3 182.07 267.35 181.81 267.37 181.2 267.3 182.07"/>
    <path class="cls-5" d="M267.61,169.68l-.07-.94c-.09-.1-.14.16-.1.51.06.23.09.58.18.43Z"/>
    <path class="cls-5" d="M266.92,172.53c.05-.26.11-.27.19-.42l-.31-.03.12.45Z"/>
    <path class="cls-5" d="M266.85,169.78c-.09-.09-.25-1.37-.23-.17.09.1.16,1.04.23.17Z"/>
    <polygon class="cls-5" points="267.24 155.56 267.24 155.8 267.75 155.76 267.24 155.56"/>
    <path class="cls-5" d="M266.02,143.02c-.12,1.12.31.27.16,1.28.12.26.12-.83.23-.56-.13-.68-.06-1.03-.39-.72Z"/>
    <path class="cls-5" d="M266.41,143.74c.02.11.04.22.08.34-.03-.2-.06-.29-.08-.34Z"/>
    <polygon class="cls-5" points="268.6 2.23 268.7 1.51 268.53 1.98 268.6 2.23"/>
    <path class="cls-5" d="M268.22.85l.32-.17-.29-.43c.01.16.04.48-.03.6Z"/>
    <path class="cls-5" d="M265.62,99.14l.08.05c.08-.11.09-.28.1-.62l-.18.56Z"/>
    <polygon class="cls-5" points="265.87 89.39 265.86 89.56 266.15 89.24 265.87 89.39"/>
    <path class="cls-5" d="M265.49,81.2c-.01.33.05.73.04,1.06-.05-.73.33-1.15-.04-1.06Z"/>
  </g>
  <rect class="cls-4" x="10.75" y="32.34" width="204.09" height="45.35"/>
  <g>
    <path class="cls-6" d="M92.04,43.76l2.61,7h-1.12l-.72-2.06h-2.67l-.75,2.06h-.94l2.85-7h.74ZM92.58,48c-.35-.97-.69-1.94-1.04-3.2h-.02c-.36,1.26-.73,2.23-1.11,3.2h2.17Z"/>
    <path class="cls-6" d="M96.25,46.54h.02c.37-.6,1.08-.9,1.64-.9,1.95,0,2.27,1.75,2.27,2.47,0,1.52-.9,2.77-2.37,2.77-.63,0-1.17-.3-1.54-.78h-.02v3.16h-.9v-7.5h.9v.78ZM99.21,48.12c0-.91-.46-1.84-1.39-1.84-1.02,0-1.57.79-1.57,2.08,0,.96.44,1.88,1.56,1.88s1.4-1.21,1.4-2.12Z"/>
    <path class="cls-6" d="M102.22,46.54h.02c.37-.6,1.08-.9,1.64-.9,1.95,0,2.27,1.75,2.27,2.47,0,1.52-.9,2.77-2.37,2.77-.63,0-1.17-.3-1.54-.78h-.02v3.16h-.9v-7.5h.9v.78ZM105.18,48.12c0-.91-.46-1.84-1.39-1.84-1.02,0-1.57.79-1.57,2.08,0,.96.44,1.88,1.56,1.88s1.4-1.21,1.4-2.12Z"/>
    <path class="cls-6" d="M107.29,50.76v-7.35h.9v7.35h-.9Z"/>
    <path class="cls-6" d="M109.55,44.11c0-.25.21-.53.57-.53s.57.28.57.53c0,.27-.13.61-.57.61s-.57-.34-.57-.61ZM110.57,45.76v5h-.9v-5h.9Z"/>
    <path class="cls-6" d="M115.89,50.36c-.49.35-1.08.52-1.51.52-2.37,0-2.67-1.94-2.67-2.63,0-1.25.83-2.61,2.71-2.61.51,0,.97.13,1.34.41l-.3.51c-.29-.14-.66-.26-1.03-.26-.82,0-1.75.54-1.75,1.9,0,1.04.53,2.02,1.74,2.02.43,0,.83-.11,1.22-.36l.25.5Z"/>
    <path class="cls-6" d="M119.19,50.22c-.35.35-.79.66-1.25.66-.84,0-1.42-.6-1.42-1.54,0-.87.74-1.42,1.78-1.73l1.21-.38c-.04-.61-.51-1-1-1-.58,0-.95.24-1.31.54l-.35-.45c.5-.48,1.01-.68,1.71-.68.75,0,1.85.24,1.85,1.7v2.2c0,.38.05.86.22,1.22h-.98c-.12-.21-.14-.53-.14-.85l-.32.31ZM118.65,48.08c-.79.24-1.2.62-1.2,1.25,0,.52.36.85.72.85.64,0,1.46-.79,1.34-2.35l-.86.25Z"/>
    <path class="cls-6" d="M122.97,45.76h1.31v.52h-1.31v2.83c0,.7.14,1.12.69,1.12.33,0,.52-.08.69-.17l.22.5c-.31.2-.68.32-1.02.32-1,0-1.48-.58-1.48-1.6v-3h-.7v-.52h.7v-1.2l.9-.3v1.5Z"/>
    <path class="cls-6" d="M125.19,44.11c0-.25.21-.53.57-.53s.57.28.57.53c0,.27-.13.61-.57.61s-.57-.34-.57-.61ZM126.21,45.76v5h-.9v-5h.9Z"/>
    <path class="cls-6" d="M127.35,48.2c0-1.62,1.2-2.56,2.46-2.56s2.47.94,2.47,2.56-.99,2.68-2.47,2.68-2.46-1.13-2.46-2.68ZM128.32,48.2c0,.94.32,2.04,1.49,2.04s1.5-1.1,1.5-2.04-.37-1.92-1.5-1.92-1.49,1.02-1.49,1.92Z"/>
    <path class="cls-6" d="M134.31,46.38c.47-.5,1.19-.74,1.71-.74,1.15,0,1.77.64,1.77,1.9v3.22h-.9v-3.03c0-.94-.4-1.43-1.21-1.43-.71,0-1.36.49-1.36,1.45v3.01h-.9v-5h.89v.62Z"/>
    <path class="cls-6" d="M48.26,55.85c-1.18.99-1.97,2.64-1.97,4.36s.94,3.51,1.98,4.23l-.39.39c-1.58-1.08-2.49-2.67-2.49-4.61,0-2.31,1.12-3.84,2.43-4.81l.44.44Z"/>
    <path class="cls-6" d="M49.75,60.32c0,1,.7,1.92,1.69,1.92.46,0,1.02-.17,1.37-.43l.26.49c-.52.37-1.14.58-1.66.58-1.56,0-2.59-.96-2.59-2.72s1.24-2.52,2.37-2.52c1.52,0,2.03,1.37,1.93,2.68h-3.37ZM52.3,59.72c0-.78-.33-1.44-1.12-1.44-.96,0-1.34.8-1.37,1.44h2.49Z"/>
    <path class="cls-6" d="M54.92,61.6c.34,0,.64.3.64.64s-.3.64-.63.64c-.35,0-.65-.29-.65-.64s.3-.64.64-.64Z"/>
    <path class="cls-6" d="M61.59,62.58c0,1.91-1.19,2.68-2.54,2.68-.74,0-1.48-.14-2.06-.5l.25-.59c.61.35,1.17.45,1.79.45,1.03,0,1.66-.66,1.66-1.97v-.68h-.02c-.35.49-.88.91-1.67.91-1.38,0-2.24-1.08-2.24-2.68,0-1.3.96-2.56,2.39-2.56.6,0,1.24.3,1.52.81h.02v-.69h.9v4.82ZM60.69,60.1c0-.94-.51-1.82-1.49-1.82-1.04,0-1.47.82-1.47,1.88s.46,2.08,1.41,2.08c1.09,0,1.55-1.03,1.55-2.14Z"/>
    <path class="cls-6" d="M63.74,61.6c.34,0,.64.3.64.64s-.3.64-.63.64c-.35,0-.65-.29-.65-.64s.3-.64.64-.64Z"/>
    <path class="cls-6" d="M74.18,56.95c-.33-.27-1.08-.61-1.83-.61-1.73,0-2.75,1.24-2.75,2.88,0,1.77,1.22,2.96,2.75,2.96.76,0,1.36-.24,1.77-.52l.38.58c-.47.32-1.3.64-2.2.64-2.5,0-3.77-1.71-3.77-3.64,0-1.76,1.38-3.6,3.89-3.6,1,0,1.7.35,2.16.71l-.4.6Z"/>
    <path class="cls-6" d="M78.44,55.76l2.61,7h-1.12l-.72-2.06h-2.67l-.75,2.06h-.94l2.85-7h.74ZM78.98,60c-.35-.97-.69-1.94-1.04-3.2h-.02c-.36,1.26-.73,2.23-1.11,3.2h2.17Z"/>
    <path class="cls-6" d="M87.98,62.76h-.76c-1.52-1.82-4.13-4.96-4.55-5.57h-.02v5.57h-.8v-7h.72c1.54,1.82,4.12,4.88,4.59,5.58h.02v-5.58h.8v7Z"/>
    <path class="cls-6" d="M89.22,60.2c0-1.62,1.2-2.56,2.46-2.56s2.47.94,2.47,2.56-.99,2.68-2.47,2.68-2.46-1.13-2.46-2.68ZM90.19,60.2c0,.94.32,2.04,1.49,2.04s1.5-1.1,1.5-2.04-.37-1.92-1.5-1.92-1.49,1.02-1.49,1.92Z"/>
    <path class="cls-6" d="M96.19,58.54h.02c.37-.6,1.08-.9,1.64-.9,1.95,0,2.27,1.75,2.27,2.47,0,1.52-.9,2.77-2.37,2.77-.63,0-1.17-.3-1.54-.78h-.02v3.16h-.9v-7.5h.9v.78ZM99.15,60.12c0-.91-.46-1.84-1.39-1.84-1.02,0-1.57.79-1.57,2.08,0,.96.44,1.88,1.56,1.88s1.4-1.21,1.4-2.12Z"/>
    <path class="cls-6" d="M101.85,60.32c0,1,.7,1.92,1.69,1.92.46,0,1.02-.17,1.37-.43l.26.49c-.52.37-1.14.58-1.66.58-1.56,0-2.59-.96-2.59-2.72s1.24-2.52,2.37-2.52c1.52,0,2.03,1.37,1.93,2.68h-3.37ZM104.4,59.72c0-.78-.33-1.44-1.12-1.44-.96,0-1.34.8-1.37,1.44h2.49Z"/>
    <path class="cls-6" d="M107.22,58.38c.47-.5,1.19-.74,1.71-.74,1.15,0,1.77.64,1.77,1.9v3.22h-.9v-3.03c0-.94-.4-1.43-1.21-1.43-.71,0-1.36.49-1.36,1.45v3.01h-.9v-5h.89v.62Z"/>
    <path class="cls-6" d="M114.57,63.83l2.71-8.43h.65l-2.7,8.43h-.66Z"/>
    <path class="cls-6" d="M122.95,55.76v6.94c0,1.45-.8,1.96-1.7,1.96v-.59c.28-.05.43-.21.52-.37.12-.21.21-.73.21-1.13v-6.81h.97Z"/>
    <path class="cls-6" d="M127.21,62.76h-.97v-6.33l-1.37.56-.24-.59,1.91-.76h.67v7.12Z"/>
    <path class="cls-6" d="M130.46,62.22c1.54-.25,2.63-1.29,3.09-2.54l-.02-.02c-.44.3-.92.44-1.46.44-1.39,0-2.09-1.09-2.08-2.19,0-1.2,1.05-2.27,2.43-2.27s2.32.93,2.3,2.49c-.03,2.49-1.95,4.51-4.26,4.75v-.66ZM131.03,57.96c0,.77.44,1.46,1.28,1.46s1.37-.4,1.37-1.65c0-1.03-.47-1.45-1.27-1.45-.87,0-1.38.73-1.38,1.64Z"/>
    <path class="cls-6" d="M137.01,59.37v-.58c.98-.04,1.88-.47,1.88-1.45,0-.8-.64-1-1.07-1-.51,0-1.05.19-1.38.43l-.29-.59c.58-.33,1.2-.54,1.8-.54.53,0,1.88.18,1.92,1.6.03.96-.91,1.54-1.27,1.69v.02c.39.08,1.67.39,1.7,1.82.02,1.01-.86,2.13-2.49,2.11-.82-.01-1.42-.26-1.71-.4l.28-.61c.31.17.8.31,1.41.31.86,0,1.47-.57,1.47-1.39,0-1.07-.95-1.42-1.77-1.42h-.48Z"/>
    <path class="cls-6" d="M141.94,62.22c1.54-.25,2.63-1.29,3.09-2.54l-.02-.02c-.44.3-.92.44-1.46.44-1.39,0-2.09-1.09-2.08-2.19,0-1.2,1.05-2.27,2.43-2.27s2.32.93,2.3,2.49c-.03,2.49-1.95,4.51-4.26,4.75v-.66ZM142.51,57.96c0,.77.44,1.46,1.28,1.46s1.37-.4,1.37-1.65c0-1.03-.47-1.45-1.27-1.45-.87,0-1.38.73-1.38,1.64Z"/>
    <path class="cls-6" d="M152.69,62.22c-.35.35-.79.66-1.25.66-.84,0-1.42-.6-1.42-1.54,0-.87.74-1.42,1.78-1.73l1.21-.38c-.04-.61-.51-1-1-1-.58,0-.95.24-1.31.54l-.35-.45c.5-.48,1.01-.68,1.71-.68.75,0,1.85.24,1.85,1.7v2.2c0,.38.05.86.22,1.22h-.98c-.12-.21-.14-.53-.14-.85l-.32.31ZM152.15,60.08c-.79.24-1.2.62-1.2,1.25,0,.52.36.85.72.85.64,0,1.46-.79,1.34-2.35l-.86.25Z"/>
    <path class="cls-6" d="M157.71,58.56c-.36-.24-.65-.32-.92-.32-.32,0-.73.15-.73.57s.46.63,1.03,1.06c.64.49,1.06.9,1.06,1.6,0,.84-.83,1.41-1.75,1.41-.57,0-1.21-.25-1.54-.63l.44-.51c.29.27.68.5,1.08.5.42,0,.85-.22.85-.71,0-.58-.52-.83-.99-1.17-.57-.41-1.07-.75-1.07-1.43,0-.79.78-1.29,1.66-1.29.49,0,.97.2,1.23.46l-.35.46Z"/>
    <path class="cls-6" d="M167.58,62.76h-.97v-3.48h-3.42v3.48h-.97v-7h.97v2.82h3.42v-2.82h.97v7Z"/>
    <path class="cls-6" d="M169.26,55.76h.97v6.3h2.91v.7h-3.88v-7Z"/>
    <path class="cls-6" d="M175.04,62.76h-.97v-7h1.76c1.48,0,2.39.66,2.39,2.02,0,1.18-1.01,2.25-2.58,2.25h-.31v-.64h.32c.94-.06,1.53-.56,1.53-1.6,0-.77-.43-1.33-1.47-1.33h-.67v6.3Z"/>
    <path class="cls-6" d="M178.76,64.38c1.18-.99,1.97-2.64,1.97-4.36s-.94-3.51-1.98-4.23l.39-.39c1.58,1.08,2.49,2.67,2.49,4.61,0,2.31-1.12,3.84-2.43,4.81l-.44-.44Z"/>
  </g>
  <rect class="cls-3" x="10.75" y="87.48" width="204.09" height="78.78"/>
  <g>
    <path class="cls-6" d="M93.59,117.63c-.33-.27-1.08-.61-1.83-.61-1.73,0-2.75,1.24-2.75,2.88,0,1.77,1.22,2.96,2.75,2.96.76,0,1.36-.24,1.77-.52l.38.58c-.47.32-1.3.64-2.2.64-2.5,0-3.77-1.71-3.77-3.64,0-1.76,1.38-3.6,3.89-3.6,1,0,1.7.35,2.16.71l-.4.6Z"/>
    <path class="cls-6" d="M97.85,116.44l2.61,7h-1.12l-.72-2.06h-2.67l-.75,2.06h-.94l2.85-7h.74ZM98.39,120.67c-.35-.97-.69-1.94-1.04-3.2h-.02c-.36,1.26-.73,2.23-1.11,3.2h2.17Z"/>
    <path class="cls-6" d="M107.39,123.43h-.76c-1.52-1.82-4.13-4.96-4.55-5.57h-.02v5.57h-.8v-7h.72c1.54,1.82,4.12,4.88,4.59,5.58h.02v-5.58h.8v7Z"/>
    <path class="cls-6" d="M109.87,119.21h.02c.37-.6,1.08-.9,1.64-.9,1.95,0,2.27,1.75,2.27,2.47,0,1.52-.9,2.77-2.37,2.77-.63,0-1.17-.3-1.54-.78h-.02v3.16h-.9v-7.5h.9v.78ZM112.83,120.79c0-.91-.46-1.84-1.39-1.84-1.02,0-1.57.79-1.57,2.08,0,.96.44,1.88,1.56,1.88s1.4-1.21,1.4-2.12Z"/>
    <path class="cls-6" d="M114.82,116.79c0-.25.21-.53.57-.53s.57.28.57.53c0,.27-.13.61-.57.61s-.57-.34-.57-.61ZM115.84,118.44v5h-.9v-5h.9Z"/>
    <path class="cls-6" d="M117.91,120.99c0,1,.7,1.92,1.69,1.92.46,0,1.02-.17,1.37-.43l.26.49c-.52.37-1.14.58-1.66.58-1.56,0-2.59-.96-2.59-2.72s1.24-2.52,2.37-2.52c1.52,0,2.03,1.37,1.93,2.68h-3.37ZM120.46,120.39c0-.78-.33-1.44-1.12-1.44-.96,0-1.34.8-1.37,1.44h2.49Z"/>
    <path class="cls-6" d="M128.81,117.14h-2.48v2.66h2.43v.7h-2.43v2.94h-.97v-7h3.45v.7Z"/>
    <path class="cls-6" d="M132.41,116.44c2.82,0,3.8,1.61,3.8,3.29,0,2.32-1.48,3.71-3.96,3.71h-2.08v-7h2.24ZM131.14,122.73h1.08c1.97,0,2.92-.98,2.92-3.03,0-1.56-.87-2.57-2.71-2.57h-1.29v5.6Z"/>
    <path class="cls-6" d="M44.78,135.43h-.97v-3.48h-3.42v3.48h-.97v-7h.97v2.82h3.42v-2.82h.97v7Z"/>
    <path class="cls-6" d="M48.7,134.89c-.35.35-.79.66-1.25.66-.84,0-1.42-.6-1.42-1.54,0-.87.74-1.42,1.78-1.73l1.21-.38c-.04-.61-.51-1-1-1-.58,0-.95.24-1.31.54l-.35-.45c.5-.48,1.01-.68,1.71-.68.75,0,1.85.24,1.85,1.7v2.2c0,.38.05.86.22,1.22h-.98c-.12-.21-.14-.53-.14-.85l-.32.31ZM48.16,132.75c-.79.24-1.2.62-1.2,1.25,0,.52.36.85.72.85.64,0,1.46-.79,1.34-2.35l-.86.25Z"/>
    <path class="cls-6" d="M52.25,131.05l.36-.38c.21-.21.54-.36.75-.36s.55.16.83.49l-.41.58c-.22-.11-.44-.21-.67-.21-.46,0-.84.46-.84,1.57v2.69h-.9v-5h.88v.62Z"/>
    <path class="cls-6" d="M58.43,134.64h-.02c-.35.49-.88.91-1.7.91-1.35,0-2.21-1.08-2.21-2.68,0-1.3.94-2.56,2.31-2.56.68,0,1.29.26,1.6.74h.02v-2.97h.9v7.35h-.9v-.79ZM58.43,132.77c0-.94-.51-1.82-1.49-1.82-1.04,0-1.47.82-1.47,1.88s.46,2.08,1.41,2.08c1.09,0,1.55-1.03,1.55-2.14Z"/>
    <path class="cls-6" d="M64.28,130.44c.49,1.19.98,2.39,1.46,3.82h.02c.39-1.47.8-2.69,1.2-3.92l.83.14-1.76,4.96h-.63c-.5-1.24-1.01-2.48-1.5-3.9h-.02c-.48,1.42-.97,2.66-1.46,3.9h-.59l-1.73-4.88.88-.22c.41,1.23.83,2.45,1.23,3.92h.02c.48-1.43.97-2.63,1.46-3.82h.59Z"/>
    <path class="cls-6" d="M70.91,134.89c-.35.35-.79.66-1.25.66-.84,0-1.42-.6-1.42-1.54,0-.87.74-1.42,1.78-1.73l1.21-.38c-.04-.61-.51-1-1-1-.58,0-.95.24-1.31.54l-.35-.45c.5-.48,1.01-.68,1.71-.68.75,0,1.85.24,1.85,1.7v2.2c0,.38.05.86.22,1.22h-.98c-.12-.21-.14-.53-.14-.85l-.32.31ZM70.38,132.75c-.79.24-1.2.62-1.2,1.25,0,.52.36.85.72.85.64,0,1.46-.79,1.34-2.35l-.86.25Z"/>
    <path class="cls-6" d="M74.47,131.05l.36-.38c.21-.21.54-.36.75-.36s.55.16.83.49l-.41.58c-.22-.11-.44-.21-.67-.21-.46,0-.84.46-.84,1.57v2.69h-.9v-5h.88v.62Z"/>
    <path class="cls-6" d="M77.66,132.99c0,1,.7,1.92,1.69,1.92.46,0,1.02-.17,1.37-.43l.26.49c-.52.37-1.14.58-1.66.58-1.56,0-2.59-.96-2.59-2.72s1.24-2.52,2.37-2.52c1.52,0,2.03,1.37,1.93,2.68h-3.37ZM80.2,132.39c0-.78-.33-1.44-1.12-1.44-.96,0-1.34.8-1.37,1.44h2.49Z"/>
    <path class="cls-6" d="M87.81,128.44l2.61,7h-1.12l-.72-2.06h-2.67l-.75,2.06h-.94l2.85-7h.74ZM88.35,132.67c-.35-.97-.69-1.94-1.04-3.2h-.02c-.36,1.26-.73,2.23-1.11,3.2h2.17Z"/>
    <path class="cls-6" d="M91.11,128.09h.9v3.13h.02c.37-.6,1.08-.9,1.64-.9,1.95,0,2.27,1.75,2.27,2.47,0,1.52-.9,2.77-2.37,2.77-.63,0-1.17-.3-1.54-.78h-.02v.66h-.9v-7.35ZM94.96,132.79c0-.91-.46-1.84-1.39-1.84-1.02,0-1.57.79-1.57,2.08,0,.96.44,1.88,1.56,1.88s1.4-1.21,1.4-2.12Z"/>
    <path class="cls-6" d="M99.42,131.23c-.36-.24-.65-.32-.92-.32-.32,0-.73.15-.73.57s.46.63,1.03,1.06c.64.49,1.06.9,1.06,1.6,0,.84-.83,1.41-1.75,1.41-.57,0-1.21-.25-1.54-.63l.44-.51c.29.27.68.5,1.08.5.42,0,.85-.22.85-.71,0-.58-.52-.83-.99-1.17-.57-.41-1.07-.75-1.07-1.43,0-.79.78-1.29,1.66-1.29.49,0,.97.2,1.23.46l-.35.46Z"/>
    <path class="cls-6" d="M102.08,130.44h1.31v.52h-1.31v2.83c0,.7.14,1.12.69,1.12.33,0,.52-.08.69-.17l.22.5c-.31.2-.68.32-1.02.32-1,0-1.48-.58-1.48-1.6v-3h-.7v-.52h.7v-1.2l.9-.3v1.5Z"/>
    <path class="cls-6" d="M105.29,131.05l.36-.38c.21-.21.54-.36.75-.36s.55.16.83.49l-.41.58c-.22-.11-.44-.21-.67-.21-.46,0-.84.46-.84,1.57v2.69h-.9v-5h.88v.62Z"/>
    <path class="cls-6" d="M110.22,134.89c-.35.35-.79.66-1.25.66-.84,0-1.42-.6-1.42-1.54,0-.87.74-1.42,1.78-1.73l1.21-.38c-.04-.61-.51-1-1-1-.58,0-.95.24-1.31.54l-.35-.45c.5-.48,1.01-.68,1.71-.68.75,0,1.85.24,1.85,1.7v2.2c0,.38.05.86.22,1.22h-.98c-.12-.21-.14-.53-.14-.85l-.32.31ZM109.68,132.75c-.79.24-1.2.62-1.2,1.25,0,.52.36.85.72.85.64,0,1.46-.79,1.34-2.35l-.86.25Z"/>
    <path class="cls-6" d="M116.73,135.03c-.49.35-1.08.52-1.51.52-2.37,0-2.67-1.94-2.67-2.63,0-1.25.83-2.61,2.71-2.61.51,0,.97.13,1.34.41l-.3.51c-.29-.14-.66-.26-1.03-.26-.82,0-1.75.54-1.75,1.9,0,1.04.53,2.02,1.74,2.02.43,0,.83-.11,1.22-.36l.25.5Z"/>
    <path class="cls-6" d="M118.81,130.44h1.31v.52h-1.31v2.83c0,.7.14,1.12.69,1.12.33,0,.52-.08.69-.17l.22.5c-.31.2-.68.32-1.02.32-1,0-1.48-.58-1.48-1.6v-3h-.7v-.52h.7v-1.2l.9-.3v1.5Z"/>
    <path class="cls-6" d="M121.04,128.79c0-.25.21-.53.57-.53s.57.28.57.53c0,.27-.13.61-.57.61s-.57-.34-.57-.61ZM122.05,130.44v5h-.9v-5h.9Z"/>
    <path class="cls-6" d="M123.2,132.87c0-1.62,1.2-2.56,2.46-2.56s2.47.94,2.47,2.56-.99,2.68-2.47,2.68-2.46-1.13-2.46-2.68ZM124.16,132.87c0,.94.32,2.04,1.49,2.04s1.5-1.1,1.5-2.04-.37-1.92-1.5-1.92-1.49,1.02-1.49,1.92Z"/>
    <path class="cls-6" d="M130.15,131.05c.47-.5,1.19-.74,1.71-.74,1.15,0,1.77.64,1.77,1.9v3.22h-.9v-3.03c0-.94-.4-1.43-1.21-1.43-.71,0-1.36.49-1.36,1.45v3.01h-.9v-5h.89v.62Z"/>
    <path class="cls-6" d="M138.08,128.44h.97v6.3h2.91v.7h-3.88v-7Z"/>
    <path class="cls-6" d="M145.12,134.89c-.35.35-.79.66-1.25.66-.84,0-1.42-.6-1.42-1.54,0-.87.74-1.42,1.78-1.73l1.21-.38c-.04-.61-.51-1-1-1-.58,0-.95.24-1.31.54l-.35-.45c.5-.48,1.01-.68,1.71-.68.75,0,1.85.24,1.85,1.7v2.2c0,.38.05.86.22,1.22h-.98c-.12-.21-.14-.53-.14-.85l-.32.31ZM144.58,132.75c-.79.24-1.2.62-1.2,1.25,0,.52.36.85.72.85.64,0,1.46-.79,1.34-2.35l-.86.25Z"/>
    <path class="cls-6" d="M148.04,130.33c.51,1.27,1.03,2.55,1.53,4.06h.02c.52-1.51,1.04-2.79,1.57-4.06l.79.19-2.57,5.79c-.47,1.06-1.09,1.62-1.95,1.62h-.45v-.64h.35c.62,0,1.06-.16,1.77-2.14l-1.96-4.57.9-.25Z"/>
    <path class="cls-6" d="M153.33,132.99c0,1,.7,1.92,1.69,1.92.46,0,1.02-.17,1.37-.43l.26.49c-.52.37-1.14.58-1.66.58-1.56,0-2.59-.96-2.59-2.72s1.24-2.52,2.37-2.52c1.52,0,2.03,1.37,1.93,2.68h-3.37ZM155.88,132.39c0-.78-.33-1.44-1.12-1.44-.96,0-1.34.8-1.37,1.44h2.49Z"/>
    <path class="cls-6" d="M158.69,131.05l.36-.38c.21-.21.54-.36.75-.36s.55.16.83.49l-.41.58c-.22-.11-.44-.21-.67-.21-.46,0-.84.46-.84,1.57v2.69h-.9v-5h.88v.62Z"/>
    <path class="cls-6" d="M166.78,128.53c-1.18.99-1.97,2.64-1.97,4.36s.94,3.51,1.98,4.23l-.39.39c-1.58-1.08-2.49-2.67-2.49-4.61,0-2.31,1.12-3.84,2.43-4.81l.44.44Z"/>
    <path class="cls-6" d="M173.14,135.43h-.97v-3.48h-3.42v3.48h-.97v-7h.97v2.82h3.42v-2.82h.97v7Z"/>
    <path class="cls-6" d="M177.53,128.44l2.61,7h-1.12l-.72-2.06h-2.67l-.75,2.06h-.94l2.85-7h.74ZM178.07,132.67c-.35-.97-.69-1.94-1.04-3.2h-.02c-.36,1.26-.73,2.23-1.11,3.2h2.17Z"/>
    <path class="cls-6" d="M180.94,128.44h.97v6.3h2.91v.7h-3.88v-7Z"/>
    <path class="cls-6" d="M185.07,137.06c1.18-.99,1.97-2.64,1.97-4.36s-.94-3.51-1.98-4.23l.39-.39c1.58,1.08,2.49,2.67,2.49,4.61,0,2.31-1.12,3.84-2.43,4.81l-.44-.44Z"/>
  </g>
  <rect class="cls-1" x="11.46" y="171.33" width="204.09" height="27.87"/>
  <g>
    <path class="cls-6" d="M35.97,188.01h-.97v-5.7h-.02c-.28.82-1.87,3.91-2.81,5.7h-.39c-.87-1.79-2.32-4.78-2.59-5.7h-.02v5.7h-.8v-7h1.04c.9,1.86,1.8,3.73,2.69,5.7.99-1.97,1.98-3.84,2.96-5.7h.91v7Z"/>
    <path class="cls-6" d="M37.43,181.36c0-.25.21-.53.57-.53s.57.28.57.53c0,.27-.13.61-.57.61s-.57-.34-.57-.61ZM38.45,183.01v5h-.9v-5h.9Z"/>
    <path class="cls-6" d="M43.77,187.61c-.49.35-1.08.52-1.51.52-2.37,0-2.67-1.94-2.67-2.63,0-1.25.83-2.61,2.71-2.61.51,0,.97.13,1.34.41l-.3.51c-.29-.14-.66-.26-1.03-.26-.82,0-1.75.54-1.75,1.9,0,1.04.53,2.02,1.74,2.02.43,0,.83-.11,1.22-.36l.25.5Z"/>
    <path class="cls-6" d="M45.62,183.63l.36-.38c.21-.21.54-.36.75-.36s.55.16.83.49l-.41.58c-.22-.11-.44-.21-.67-.21-.46,0-.84.46-.84,1.57v2.69h-.9v-5h.88v.62Z"/>
    <path class="cls-6" d="M47.88,185.45c0-1.62,1.2-2.56,2.46-2.56s2.47.94,2.47,2.56-.99,2.68-2.47,2.68-2.46-1.13-2.46-2.68ZM48.85,185.45c0,.94.32,2.04,1.49,2.04s1.5-1.1,1.5-2.04-.37-1.92-1.5-1.92-1.49,1.02-1.49,1.92Z"/>
    <path class="cls-6" d="M57.79,187.61c-.49.35-1.08.52-1.51.52-2.37,0-2.67-1.94-2.67-2.63,0-1.25.83-2.61,2.71-2.61.51,0,.97.13,1.34.41l-.3.51c-.29-.14-.66-.26-1.03-.26-.82,0-1.75.54-1.75,1.9,0,1.04.53,2.02,1.74,2.02.43,0,.83-.11,1.22-.36l.25.5Z"/>
    <path class="cls-6" d="M58.42,185.45c0-1.62,1.2-2.56,2.46-2.56s2.47.94,2.47,2.56-.99,2.68-2.47,2.68-2.46-1.13-2.46-2.68ZM59.39,185.45c0,.94.32,2.04,1.49,2.04s1.5-1.1,1.5-2.04-.37-1.92-1.5-1.92-1.49,1.02-1.49,1.92Z"/>
    <path class="cls-6" d="M65.38,183.63c.47-.5,1.19-.74,1.71-.74,1.15,0,1.77.64,1.77,1.9v3.22h-.9v-3.03c0-.94-.4-1.43-1.21-1.43-.71,0-1.36.49-1.36,1.45v3.01h-.9v-5h.89v.62Z"/>
    <path class="cls-6" d="M71.45,183.01h1.31v.52h-1.31v2.83c0,.7.14,1.12.69,1.12.33,0,.52-.08.69-.17l.22.5c-.31.2-.68.32-1.02.32-1,0-1.48-.58-1.48-1.6v-3h-.7v-.52h.7v-1.2l.9-.3v1.5Z"/>
    <path class="cls-6" d="M74.67,183.63l.36-.38c.21-.21.54-.36.75-.36s.55.16.83.49l-.41.58c-.22-.11-.44-.21-.67-.21-.46,0-.84.46-.84,1.57v2.69h-.9v-5h.88v.62Z"/>
    <path class="cls-6" d="M76.93,185.45c0-1.62,1.2-2.56,2.46-2.56s2.47.94,2.47,2.56-.99,2.68-2.47,2.68-2.46-1.13-2.46-2.68ZM77.9,185.45c0,.94.32,2.04,1.49,2.04s1.5-1.1,1.5-2.04-.37-1.92-1.5-1.92-1.49,1.02-1.49,1.92Z"/>
    <path class="cls-6" d="M83,188.01v-7.35h.9v7.35h-.9Z"/>
    <path class="cls-6" d="M85.38,188.01v-7.35h.9v7.35h-.9Z"/>
    <path class="cls-6" d="M88.35,185.57c0,1,.7,1.92,1.69,1.92.46,0,1.02-.17,1.37-.43l.26.49c-.52.37-1.14.58-1.66.58-1.56,0-2.59-.96-2.59-2.72s1.24-2.52,2.37-2.52c1.52,0,2.03,1.37,1.93,2.68h-3.37ZM90.9,184.97c0-.78-.33-1.44-1.12-1.44-.96,0-1.34.8-1.37,1.44h2.49Z"/>
    <path class="cls-6" d="M93.71,183.63l.36-.38c.21-.21.54-.36.75-.36s.55.16.83.49l-.41.58c-.22-.11-.44-.21-.67-.21-.46,0-.84.46-.84,1.57v2.69h-.9v-5h.88v.62Z"/>
    <path class="cls-6" d="M101.53,183.81c-.36-.24-.65-.32-.92-.32-.32,0-.73.15-.73.57s.46.63,1.03,1.06c.64.49,1.06.9,1.06,1.6,0,.84-.83,1.41-1.75,1.41-.57,0-1.21-.25-1.54-.63l.44-.51c.29.27.68.5,1.08.5.42,0,.85-.22.85-.71,0-.58-.52-.83-.99-1.17-.57-.41-1.07-.75-1.07-1.43,0-.79.78-1.29,1.66-1.29.49,0,.97.2,1.23.46l-.35.46Z"/>
    <path class="cls-6" d="M103.97,183.79h.02c.37-.6,1.08-.9,1.64-.9,1.95,0,2.27,1.75,2.27,2.47,0,1.52-.9,2.77-2.37,2.77-.63,0-1.17-.3-1.54-.78h-.02v3.16h-.9v-7.5h.9v.78ZM106.93,185.37c0-.91-.46-1.84-1.39-1.84-1.02,0-1.57.79-1.57,2.08,0,.96.44,1.88,1.56,1.88s1.4-1.21,1.4-2.12Z"/>
    <path class="cls-6" d="M109.63,185.57c0,1,.7,1.92,1.69,1.92.46,0,1.02-.17,1.37-.43l.26.49c-.52.37-1.14.58-1.66.58-1.56,0-2.59-.96-2.59-2.72s1.24-2.52,2.37-2.52c1.52,0,2.03,1.37,1.93,2.68h-3.37ZM112.18,184.97c0-.78-.33-1.44-1.12-1.44-.96,0-1.34.8-1.37,1.44h2.49Z"/>
    <path class="cls-6" d="M117.95,187.61c-.49.35-1.08.52-1.51.52-2.37,0-2.67-1.94-2.67-2.63,0-1.25.83-2.61,2.71-2.61.51,0,.97.13,1.34.41l-.3.51c-.29-.14-.66-.26-1.03-.26-.82,0-1.75.54-1.75,1.9,0,1.04.53,2.02,1.74,2.02.43,0,.83-.11,1.22-.36l.25.5Z"/>
    <path class="cls-6" d="M118.8,181.36c0-.25.21-.53.57-.53s.57.28.57.53c0,.27-.13.61-.57.61s-.57-.34-.57-.61ZM119.82,183.01v5h-.9v-5h.9Z"/>
    <path class="cls-6" d="M121.35,188.01v-4.48h-.8v-.52h.8v-.61c0-1.34.9-1.74,1.46-1.74.26,0,.57.05.79.21l-.2.46c-.15-.04-.29-.07-.49-.07-.15,0-.66.04-.66.85v.9h1.2v.52h-1.2v4.48h-.9ZM124.16,181.36c0-.25.21-.53.57-.53s.57.28.57.53c0,.27-.13.61-.57.61s-.57-.34-.57-.61ZM125.18,183.01v5h-.9v-5h.9Z"/>
    <path class="cls-6" d="M130.5,187.61c-.49.35-1.08.52-1.51.52-2.37,0-2.67-1.94-2.67-2.63,0-1.25.83-2.61,2.71-2.61.51,0,.97.13,1.34.41l-.3.51c-.29-.14-.66-.26-1.03-.26-.82,0-1.75.54-1.75,1.9,0,1.04.53,2.02,1.74,2.02.43,0,.83-.11,1.22-.36l.25.5Z"/>
    <path class="cls-6" d="M134.22,181.36c0-.25.21-.53.57-.53s.57.28.57.53c0,.27-.13.61-.57.61s-.57-.34-.57-.61ZM135.24,183.01v5h-.9v-5h.9Z"/>
    <path class="cls-6" d="M137.61,183.63c.41-.48,1.01-.74,1.56-.74.79,0,1.28.33,1.59.74.48-.44,1.16-.74,1.72-.74,1.11,0,1.67.72,1.7,1.78v3.34h-.9v-2.98c0-.72-.18-1.44-1.1-1.44-.76,0-1.28.4-1.28,1.41v3.01h-.9v-2.98c0-.94-.4-1.44-1.13-1.44s-1.25.49-1.25,1.45v2.97h-.9v-5h.89v.62Z"/>
    <path class="cls-6" d="M146.56,183.79h.02c.37-.6,1.08-.9,1.64-.9,1.95,0,2.27,1.75,2.27,2.47,0,1.52-.9,2.77-2.37,2.77-.63,0-1.17-.3-1.54-.78h-.02v3.16h-.9v-7.5h.9v.78ZM149.52,185.37c0-.91-.46-1.84-1.39-1.84-1.02,0-1.57.79-1.57,2.08,0,.96.44,1.88,1.56,1.88s1.4-1.21,1.4-2.12Z"/>
    <path class="cls-6" d="M151.63,188.01v-7.35h.9v7.35h-.9Z"/>
    <path class="cls-6" d="M154.6,185.57c0,1,.7,1.92,1.69,1.92.46,0,1.02-.17,1.37-.43l.26.49c-.52.37-1.14.58-1.66.58-1.56,0-2.59-.96-2.59-2.72s1.24-2.52,2.37-2.52c1.52,0,2.03,1.37,1.93,2.68h-3.37ZM157.15,184.97c0-.78-.33-1.44-1.12-1.44-.96,0-1.34.8-1.37,1.44h2.49Z"/>
    <path class="cls-6" d="M159.97,183.63c.41-.48,1.01-.74,1.56-.74.79,0,1.28.33,1.59.74.48-.44,1.16-.74,1.72-.74,1.11,0,1.67.72,1.7,1.78v3.34h-.9v-2.98c0-.72-.18-1.44-1.1-1.44-.76,0-1.28.4-1.28,1.41v3.01h-.9v-2.98c0-.94-.4-1.44-1.13-1.44s-1.25.49-1.25,1.45v2.97h-.9v-5h.89v.62Z"/>
    <path class="cls-6" d="M168.61,185.57c0,1,.7,1.92,1.69,1.92.46,0,1.02-.17,1.37-.43l.26.49c-.52.37-1.14.58-1.66.58-1.56,0-2.59-.96-2.59-2.72s1.24-2.52,2.37-2.52c1.52,0,2.03,1.37,1.93,2.68h-3.37ZM171.16,184.97c0-.78-.33-1.44-1.12-1.44-.96,0-1.34.8-1.37,1.44h2.49Z"/>
    <path class="cls-6" d="M173.98,183.63c.47-.5,1.19-.74,1.71-.74,1.15,0,1.77.64,1.77,1.9v3.22h-.9v-3.03c0-.94-.4-1.43-1.21-1.43-.71,0-1.36.49-1.36,1.45v3.01h-.9v-5h.89v.62Z"/>
    <path class="cls-6" d="M180.05,183.01h1.31v.52h-1.31v2.83c0,.7.14,1.12.69,1.12.33,0,.52-.08.69-.17l.22.5c-.31.2-.68.32-1.02.32-1,0-1.48-.58-1.48-1.6v-3h-.7v-.52h.7v-1.2l.9-.3v1.5Z"/>
    <path class="cls-6" d="M184.72,187.47c-.35.35-.79.66-1.25.66-.84,0-1.42-.6-1.42-1.54,0-.87.74-1.42,1.78-1.73l1.21-.38c-.04-.61-.51-1-1-1-.58,0-.95.24-1.31.54l-.35-.45c.5-.48,1.01-.68,1.71-.68.75,0,1.85.24,1.85,1.7v2.2c0,.38.05.86.22,1.22h-.98c-.12-.21-.14-.53-.14-.85l-.32.31ZM184.18,185.33c-.79.24-1.2.62-1.2,1.25,0,.52.36.85.72.85.64,0,1.46-.79,1.34-2.35l-.86.25Z"/>
    <path class="cls-6" d="M188.5,183.01h1.31v.52h-1.31v2.83c0,.7.14,1.12.69,1.12.33,0,.52-.08.69-.17l.22.5c-.31.2-.68.32-1.02.32-1,0-1.48-.58-1.48-1.6v-3h-.7v-.52h.7v-1.2l.9-.3v1.5Z"/>
    <path class="cls-6" d="M190.72,181.36c0-.25.21-.53.57-.53s.57.28.57.53c0,.27-.13.61-.57.61s-.57-.34-.57-.61ZM191.74,183.01v5h-.9v-5h.9Z"/>
    <path class="cls-6" d="M192.88,185.45c0-1.62,1.2-2.56,2.46-2.56s2.47.94,2.47,2.56-.99,2.68-2.47,2.68-2.46-1.13-2.46-2.68ZM193.85,185.45c0,.94.32,2.04,1.49,2.04s1.5-1.1,1.5-2.04-.37-1.92-1.5-1.92-1.49,1.02-1.49,1.92Z"/>
    <path class="cls-6" d="M199.84,183.63c.47-.5,1.19-.74,1.71-.74,1.15,0,1.77.64,1.77,1.9v3.22h-.9v-3.03c0-.94-.4-1.43-1.21-1.43-.71,0-1.36.49-1.36,1.45v3.01h-.9v-5h.89v.62Z"/>
  </g>
  <rect class="cls-2" x="301.37" y=".12" width="226.77" height="217.15"/>
  <g>
    <path class="cls-6" d="M313.48,13.32h-.71l3.09-5.6h.5l.81,5.6h-.74l-.21-1.66h-1.89l-.85,1.66ZM316.16,11.12c-.1-.77-.22-1.81-.26-2.51h-.02c-.39.82-.85,1.74-1.25,2.51h1.52Z"/>
    <path class="cls-6" d="M318.94,10.19l.02.02c.32-.51.87-.98,1.5-.98.84,0,1.15.74,1.15,1.54,0,1.06-.8,2.65-2.19,2.65-.38,0-.74-.14-1.01-.42l-.42,2.32h-.65l1.12-6h.65l-.17.86ZM319.52,12.94c.51,0,1.41-.83,1.41-2.22,0-.38-.13-.94-.74-.94s-1.44.88-1.66,2.72c.23.38.6.45.99.45Z"/>
    <path class="cls-6" d="M323.24,10.19l.02.02c.32-.51.87-.98,1.5-.98.84,0,1.15.74,1.15,1.54,0,1.06-.8,2.65-2.19,2.65-.38,0-.74-.14-1.01-.42l-.42,2.32h-.65l1.12-6h.65l-.17.86ZM323.81,12.94c.51,0,1.41-.83,1.41-2.22,0-.38-.13-.94-.74-.94s-1.44.88-1.66,2.72c.23.38.6.45.99.45Z"/>
    <path class="cls-6" d="M326.38,13.32l1.1-5.88h.65l-1.1,5.88h-.65Z"/>
    <path class="cls-6" d="M329.58,9.33l-.75,4h-.65l.75-4h.65ZM329.07,8.12c0-.31.26-.54.5-.54.26,0,.34.22.34.34,0,.24-.19.57-.51.57s-.34-.27-.34-.38Z"/>
    <path class="cls-6" d="M332.8,13.02c-.43.26-.85.4-1.28.4-1.26,0-1.51-1.1-1.51-1.74,0-.83.65-2.45,2.44-2.45.34,0,.67.13.87.32l-.29.38c-.1-.08-.47-.22-.76-.22-.74,0-1.58.77-1.58,1.92,0,.42.11,1.29.98,1.29.32,0,.63-.14.9-.3l.22.4Z"/>
    <path class="cls-6" d="M336.54,13.32h-.65l.14-.75-.02-.02c-.18.26-.79.86-1.48.86-.62,0-1.12-.61-1.12-1.47,0-1.46,1-2.72,2.23-2.72.34,0,.72.21.89.54h.02l.08-.45h.66l-.75,4ZM335.64,9.71c-.82,0-1.53.83-1.53,2.21,0,.61.25.96.67.96.65,0,1.5-.88,1.62-2.33.05-.37-.32-.83-.77-.83Z"/>
    <path class="cls-6" d="M339.64,13.23c-.27.11-.56.19-.81.19-.72,0-.96-.5-.81-1.26l.46-2.41h-.5l.09-.42h.5l.18-.96.7-.24-.22,1.2h.94l-.09.42h-.94l-.47,2.48c-.09.46,0,.71.31.71.22,0,.44-.06.6-.11l.06.4Z"/>
    <path class="cls-6" d="M341.76,9.33l-.75,4h-.65l.75-4h.65ZM341.25,8.12c0-.31.26-.54.5-.54.26,0,.34.22.34.34,0,.24-.19.57-.51.57s-.34-.27-.34-.38Z"/>
    <path class="cls-6" d="M345.84,10.97c0,1.26-.84,2.45-2.02,2.45s-1.62-.98-1.62-1.76c0-1.18.81-2.43,2.16-2.43.81,0,1.49.69,1.49,1.74ZM342.88,11.66c0,.34.11,1.28.95,1.28.78,0,1.32-.94,1.32-1.95,0-.29-.03-1.28-.86-1.28-.9,0-1.41.99-1.41,1.95Z"/>
    <path class="cls-6" d="M347.49,10.29l.02.02c.34-.46.84-1.07,1.81-1.07.46,0,.86.33.86.82,0,.28-.05.49-.1.75l-.5,2.53h-.65l.5-2.44c.04-.16.08-.44.08-.63,0-.3-.18-.5-.56-.5-.66,0-1.52.96-1.71,2.03l-.28,1.54h-.64l.75-4h.62l-.2.96Z"/>
    <path class="cls-6" d="M353.06,13.32l.67-3.57h-.58l.08-.42h.58l.09-.49c.2-1.13.83-1.39,1.31-1.39.19,0,.4.07.53.17l-.21.37c-.1-.03-.19-.06-.34-.06-.11,0-.48.03-.6.68l-.14.72h.86l-.08.42h-.86l-.67,3.57h-.65Z"/>
    <path class="cls-6" d="M358.89,10.97c0,1.26-.84,2.45-2.02,2.45s-1.62-.98-1.62-1.76c0-1.18.81-2.43,2.16-2.43.81,0,1.49.69,1.49,1.74ZM355.93,11.66c0,.34.11,1.28.95,1.28.78,0,1.32-.94,1.32-1.95,0-.29-.03-1.28-.86-1.28-.9,0-1.41.99-1.41,1.95Z"/>
    <path class="cls-6" d="M360.6,9.98l.02.02c.4-.5.62-.77,1.08-.77.22,0,.38.14.52.27l-.34.45c-.06-.03-.22-.08-.43-.08-.45,0-.87.48-1.1,1.69l-.34,1.77h-.65l.75-4h.63l-.14.66Z"/>
    <path class="cls-6" d="M367.93,10.97c0,1.26-.84,2.45-2.02,2.45s-1.62-.98-1.62-1.76c0-1.18.81-2.43,2.16-2.43.81,0,1.49.69,1.49,1.74ZM364.97,11.66c0,.34.11,1.28.95,1.28.78,0,1.32-.94,1.32-1.95,0-.29-.03-1.28-.86-1.28-.9,0-1.41.99-1.41,1.95Z"/>
    <path class="cls-6" d="M369.56,10.19l.02.02c.32-.51.87-.98,1.5-.98.84,0,1.15.74,1.15,1.54,0,1.06-.8,2.65-2.19,2.65-.38,0-.74-.14-1.01-.42l-.42,2.32h-.65l1.12-6h.65l-.17.86ZM370.13,12.94c.51,0,1.41-.83,1.41-2.22,0-.38-.13-.94-.74-.94s-1.44.88-1.66,2.72c.23.38.6.45.99.45Z"/>
    <path class="cls-6" d="M375.56,13.02c-.53.29-1.06.4-1.57.4-.85,0-1.25-.61-1.25-1.49,0-1.2,1-2.7,2.41-2.7.44,0,.94.26.94.91,0,.96-1.36,1.57-2.67,1.49-.03.54.03,1.31.84,1.31.41,0,.86-.21,1.06-.32l.22.4ZM375.41,10.27c.02-.34-.19-.56-.48-.56-.54,0-1.24.66-1.41,1.46,1.11.1,1.85-.42,1.89-.9Z"/>
    <path class="cls-6" d="M377.64,9.98l.02.02c.4-.5.62-.77,1.08-.77.22,0,.38.14.52.27l-.34.45c-.06-.03-.22-.08-.43-.08-.45,0-.87.48-1.1,1.69l-.34,1.77h-.65l.75-4h.63l-.14.66Z"/>
    <path class="cls-6" d="M382.22,13.32h-.65l.14-.75-.02-.02c-.18.26-.79.86-1.48.86-.62,0-1.12-.61-1.12-1.47,0-1.46,1-2.72,2.23-2.72.34,0,.72.21.89.54h.02l.08-.45h.66l-.75,4ZM381.31,9.71c-.82,0-1.53.83-1.53,2.21,0,.61.25.96.67.96.65,0,1.5-.88,1.62-2.33.05-.37-.32-.83-.77-.83Z"/>
    <path class="cls-6" d="M385.32,13.23c-.27.11-.56.19-.81.19-.72,0-.96-.5-.81-1.26l.46-2.41h-.5l.09-.42h.5l.18-.96.7-.24-.22,1.2h.94l-.09.42h-.94l-.47,2.48c-.09.46,0,.71.31.71.22,0,.44-.06.6-.11l.06.4Z"/>
    <path class="cls-6" d="M387.44,9.33l-.75,4h-.65l.75-4h.65ZM386.93,8.12c0-.31.26-.54.5-.54.26,0,.34.22.34.34,0,.24-.19.57-.51.57s-.33-.27-.33-.38Z"/>
    <path class="cls-6" d="M389.02,10.29l.02.02c.34-.46.84-1.07,1.81-1.07.46,0,.86.33.86.82,0,.28-.05.49-.1.75l-.5,2.53h-.65l.5-2.44c.04-.16.08-.44.08-.63,0-.3-.18-.5-.56-.5-.66,0-1.52.96-1.71,2.03l-.28,1.54h-.64l.75-4h.62l-.2.96Z"/>
    <path class="cls-6" d="M395.45,13.18c-.29,1.53-1.26,2.14-2.24,2.14-.53,0-1.04-.11-1.41-.4l.27-.47c.38.28.78.36,1.21.36.74,0,1.3-.53,1.5-1.58l.13-.66-.02-.02c-.18.26-.79.86-1.48.86-.62,0-1.12-.61-1.12-1.47,0-1.46,1-2.72,2.23-2.72.34,0,.72.21.89.54h.02l.07-.45h.66l-.72,3.85ZM394.52,9.71c-.82,0-1.53.83-1.53,2.21,0,.61.25.96.67.96.65,0,1.5-.88,1.62-2.33.05-.37-.32-.83-.77-.83Z"/>
    <path class="cls-6" d="M401.19,9.97c-.2-.16-.47-.29-.73-.29-.24,0-.54.19-.54.46,0,.34.27.55.6.93.34.39.65.75.65,1.22,0,.58-.54,1.14-1.44,1.14-.41,0-.8-.14-1.11-.37l.28-.46c.28.22.56.35.88.35.34,0,.7-.21.7-.58,0-.4-.17-.53-.58-.99-.26-.3-.66-.64-.66-1.15,0-.46.42-.99,1.26-.99.46,0,.78.19.99.34l-.3.4Z"/>
    <path class="cls-6" d="M402.79,9.25c.18,1.05.36,2.1.51,3.25h.02c.62-1.14,1.24-2.2,1.86-3.25l.52.22c-1.18,1.95-2.37,3.9-3.39,5.85l-.53-.27,1.06-1.89-.73-3.81.69-.11Z"/>
    <path class="cls-6" d="M408.01,9.97c-.2-.16-.47-.29-.73-.29-.24,0-.54.19-.54.46,0,.34.27.55.6.93.34.39.65.75.65,1.22,0,.58-.54,1.14-1.44,1.14-.41,0-.8-.14-1.11-.37l.28-.46c.28.22.56.35.88.35s.7-.21.7-.58c0-.4-.17-.53-.58-.99-.26-.3-.66-.64-.66-1.15,0-.46.42-.99,1.26-.99.46,0,.78.19.99.34l-.3.4Z"/>
    <path class="cls-6" d="M410.68,13.23c-.27.11-.56.19-.81.19-.72,0-.96-.5-.81-1.26l.46-2.41h-.5l.09-.42h.5l.18-.96.7-.24-.22,1.2h.94l-.09.42h-.94l-.47,2.48c-.09.46,0,.71.31.71.22,0,.44-.06.6-.11l.06.4Z"/>
    <path class="cls-6" d="M414.26,13.02c-.53.29-1.06.4-1.57.4-.85,0-1.25-.61-1.25-1.49,0-1.2,1-2.7,2.42-2.7.44,0,.94.26.94.91,0,.96-1.36,1.57-2.67,1.49-.03.54.03,1.31.84,1.31.41,0,.86-.21,1.06-.32l.22.4ZM414.11,10.27c.02-.34-.19-.56-.48-.56-.54,0-1.24.66-1.41,1.46,1.11.1,1.85-.42,1.89-.9Z"/>
    <path class="cls-6" d="M416.28,10.25l.02.02c.29-.47.9-1.04,1.6-1.04.66,0,.84.43.79,1.02l.02.02c.22-.42.89-1.04,1.5-1.04.83,0,1.07.4.82,1.79l-.42,2.3h-.64l.42-2.29c.16-.89.16-1.27-.34-1.27-.4,0-1.32.57-1.6,2.11l-.26,1.46h-.64l.42-2.29c.16-.89.16-1.27-.34-1.27-.4,0-1.32.57-1.6,2.11l-.26,1.46h-.64l.75-4h.62l-.2.93Z"/>
    <path class="cls-6" d="M426.89,7.8c-1,.79-1.82,2.11-2.07,3.49-.06.36-.09.71-.08,1.06.06,1.37.59,2.07.87,2.33l-.34.31c-.27-.24-1.15-1.07-1.18-2.57-.02-.35.02-.73.09-1.11.34-1.85,1.38-3.07,2.46-3.85l.26.35Z"/>
    <path class="cls-6" d="M428.04,7.65c.11,1.46.32,3.81.3,4.62l.02.02c.26-.74,1.38-3.13,2.06-4.56h.57c.14,1.43.34,3.69.35,4.56h.02c.31-.82,1.42-3.17,2.1-4.64l.56.16-2.58,5.52h-.62l-.41-4.27h-.02l-2,4.27h-.62l-.43-5.6.69-.08Z"/>
    <path class="cls-6" d="M435.06,9.33l-.75,4h-.65l.75-4h.65ZM434.55,8.12c0-.31.26-.54.5-.54.26,0,.34.22.34.34,0,.24-.19.57-.51.57s-.34-.27-.34-.38Z"/>
    <path class="cls-6" d="M436.64,10.29l.02.02c.34-.46.84-1.07,1.81-1.07.46,0,.86.33.86.82,0,.28-.05.49-.1.75l-.5,2.53h-.65l.5-2.44c.04-.16.08-.44.08-.63,0-.3-.18-.5-.56-.5-.66,0-1.52.96-1.71,2.03l-.28,1.54h-.64l.75-4h.62l-.2.96Z"/>
    <path class="cls-6" d="M443.06,13.32h-.65l.14-.75-.02-.02c-.18.26-.79.86-1.48.86-.62,0-1.12-.61-1.12-1.47,0-1.46,1-2.72,2.23-2.72.34,0,.72.21.89.54h.02l.43-2.33h.65l-1.1,5.88ZM442.15,9.71c-.82,0-1.53.83-1.53,2.21,0,.61.25.96.67.96.65,0,1.5-.88,1.62-2.33.05-.37-.32-.83-.77-.83Z"/>
    <path class="cls-6" d="M447.9,10.97c0,1.26-.84,2.45-2.02,2.45s-1.62-.98-1.62-1.76c0-1.18.81-2.43,2.16-2.43.81,0,1.49.69,1.49,1.74ZM444.94,11.66c0,.34.11,1.28.95,1.28.78,0,1.32-.94,1.32-1.95,0-.29-.03-1.28-.86-1.28-.9,0-1.41.99-1.41,1.95Z"/>
    <path class="cls-6" d="M449.16,9.25c.11,1.04.3,2.38.29,3.1l.02.02c.13-.43.59-1.34,1.62-3.04h.47c.18,1,.42,2.45.45,3.05h.02c.36-.83.55-1.26,1.62-3.13l.54.17-2.17,3.91h-.4c-.18-.98-.52-2.62-.49-3.26l-.02-.02c-.19.66-1.15,2.29-1.71,3.28h-.36l-.53-4,.66-.08Z"/>
    <path class="cls-6" d="M456.53,9.97c-.2-.16-.47-.29-.73-.29-.24,0-.54.19-.54.46,0,.34.27.55.6.93.34.39.65.75.65,1.22,0,.58-.54,1.14-1.44,1.14-.41,0-.8-.14-1.11-.37l.28-.46c.28.22.56.35.88.35.34,0,.7-.21.7-.58,0-.4-.17-.53-.58-.99-.26-.3-.66-.64-.66-1.15,0-.46.42-.99,1.26-.99.46,0,.78.19.99.34l-.3.4Z"/>
    <path class="cls-6" d="M456.62,14.56l.74-1.41c.3-.58.41-.75.69-.75.15,0,.26.1.26.28-.03.15-.06.28-.26.56l-1.07,1.5-.36-.18Z"/>
    <path class="cls-6" d="M462.87,7.73h.7l-.95,5.08h2.09l-.1.52h-2.79l1.05-5.6Z"/>
    <path class="cls-6" d="M466.66,9.33l-.75,4h-.65l.75-4h.65ZM466.15,8.12c0-.31.26-.54.5-.54.26,0,.34.22.34.34,0,.24-.19.57-.51.57s-.34-.27-.34-.38Z"/>
    <path class="cls-6" d="M468.23,10.29l.02.02c.34-.46.84-1.07,1.81-1.07.46,0,.86.33.86.82,0,.28-.05.49-.1.75l-.5,2.53h-.65l.5-2.44c.04-.16.08-.44.08-.63,0-.3-.18-.5-.56-.5-.66,0-1.52.96-1.71,2.03l-.28,1.54h-.64l.75-4h.62l-.2.96Z"/>
    <path class="cls-6" d="M474.26,12.11l-.02-.02c-.33.88-1.15,1.33-1.82,1.33-.46,0-.82-.36-.82-.85,0-.28.02-.46.08-.72l.5-2.53h.65l-.5,2.44c-.04.16-.07.44-.07.63,0,.34.21.5.56.5.62,0,1.47-1.18,1.65-2.21l.25-1.36h.64l-.75,4h-.62l.27-1.22Z"/>
    <path class="cls-6" d="M478.14,13.4c-.26-.59-.54-1.18-.81-1.82-.47.64-.95,1.23-1.43,1.82l-.46-.34c.56-.65,1.11-1.3,1.71-1.94-.3-.54-.56-1.09-.82-1.63l.65-.24c.21.48.42.97.62,1.5.42-.54.82-1.02,1.22-1.5l.46.29c-.5.55-1,1.11-1.54,1.66l1.01,1.97-.62.24Z"/>
    <path class="cls-6" d="M478.87,14.56l.74-1.41c.3-.58.41-.75.69-.75.15,0,.26.1.26.28-.03.15-.06.28-.26.56l-1.07,1.5-.36-.18Z"/>
    <path class="cls-6" d="M485.13,10.25l.02.02c.29-.47.9-1.04,1.6-1.04.66,0,.84.43.79,1.02l.02.02c.22-.42.89-1.04,1.5-1.04.83,0,1.07.4.82,1.79l-.42,2.3h-.64l.42-2.29c.16-.89.16-1.27-.34-1.27-.4,0-1.32.57-1.6,2.11l-.26,1.46h-.64l.42-2.29c.16-.89.16-1.27-.34-1.27-.4,0-1.32.57-1.6,2.11l-.26,1.46h-.64l.75-4h.62l-.2.93Z"/>
    <path class="cls-6" d="M493.7,13.32h-.65l.14-.75-.02-.02c-.18.26-.79.86-1.48.86-.62,0-1.12-.61-1.12-1.47,0-1.46,1-2.72,2.23-2.72.34,0,.72.21.89.54h.02l.08-.45h.66l-.75,4ZM492.79,9.71c-.82,0-1.53.83-1.53,2.21,0,.61.25.96.67.96.65,0,1.5-.88,1.62-2.33.05-.37-.32-.83-.77-.83Z"/>
    <path class="cls-6" d="M497.68,13.02c-.43.26-.85.4-1.28.4-1.26,0-1.51-1.1-1.51-1.74,0-.83.65-2.45,2.44-2.45.34,0,.67.13.87.32l-.29.38c-.1-.08-.47-.22-.76-.22-.74,0-1.58.77-1.58,1.92,0,.42.11,1.29.98,1.29.32,0,.63-.14.9-.3l.22.4Z"/>
    <path class="cls-6" d="M503.72,9.92c0,1.58-.93,3.5-2.91,3.5-1.81,0-2.25-1.55-2.25-2.43,0-1.41.99-3.36,3.07-3.36,1.31,0,2.1,1.07,2.1,2.29ZM502.95,9.95c0-1.14-.62-1.76-1.42-1.76-1.77,0-2.21,1.82-2.21,2.54,0,1.34.56,2.13,1.55,2.13,1.58,0,2.08-1.71,2.08-2.91Z"/>
    <path class="cls-6" d="M507.55,8.43c-.19-.1-.43-.3-.86-.3-.48,0-.88.36-.88.86,0,.36.15.65.67,1.2.49.52.9,1.06.9,1.7,0,.42-.26,1.54-1.79,1.54-.59,0-1.14-.26-1.36-.53l.29-.45c.29.22.64.47,1.12.47.56,0,1.01-.38,1.01-.95,0-.62-.58-1.2-.9-1.57-.34-.4-.67-.83-.67-1.44,0-.72.7-1.33,1.58-1.33.68,0,.98.22,1.23.45l-.34.35Z"/>
  </g>
  <rect class="cls-4" x="312.71" y="32.34" width="204.09" height="45.35"/>
  <g>
    <path class="cls-6" d="M402.94,43.76l2.61,7h-1.12l-.72-2.06h-2.67l-.75,2.06h-.94l2.85-7h.74ZM403.48,48c-.35-.97-.69-1.94-1.04-3.2h-.02c-.36,1.26-.73,2.23-1.11,3.2h2.17Z"/>
    <path class="cls-6" d="M407.15,46.54h.02c.37-.6,1.08-.9,1.64-.9,1.95,0,2.27,1.75,2.27,2.47,0,1.52-.9,2.77-2.37,2.77-.63,0-1.17-.3-1.54-.78h-.02v3.16h-.9v-7.5h.9v.78ZM410.11,48.12c0-.91-.46-1.84-1.39-1.84-1.02,0-1.57.79-1.57,2.08,0,.96.44,1.88,1.56,1.88s1.4-1.21,1.4-2.12Z"/>
    <path class="cls-6" d="M413.12,46.54h.02c.37-.6,1.08-.9,1.64-.9,1.95,0,2.27,1.75,2.27,2.47,0,1.52-.9,2.77-2.37,2.77-.63,0-1.17-.3-1.54-.78h-.02v3.16h-.9v-7.5h.9v.78ZM416.08,48.12c0-.91-.46-1.84-1.39-1.84-1.02,0-1.57.79-1.57,2.08,0,.96.44,1.88,1.56,1.88s1.4-1.21,1.4-2.12Z"/>
    <path class="cls-6" d="M418.19,50.76v-7.35h.9v7.35h-.9Z"/>
    <path class="cls-6" d="M420.45,44.11c0-.25.21-.53.57-.53s.57.28.57.53c0,.27-.13.61-.57.61s-.57-.34-.57-.61ZM421.47,45.76v5h-.9v-5h.9Z"/>
    <path class="cls-6" d="M426.79,50.36c-.49.35-1.08.52-1.51.52-2.37,0-2.67-1.94-2.67-2.63,0-1.25.83-2.61,2.71-2.61.51,0,.97.13,1.34.41l-.3.51c-.29-.14-.66-.26-1.03-.26-.82,0-1.75.54-1.75,1.9,0,1.04.53,2.02,1.74,2.02.43,0,.83-.11,1.22-.36l.25.5Z"/>
    <path class="cls-6" d="M430.09,50.22c-.35.35-.79.66-1.25.66-.84,0-1.42-.6-1.42-1.54,0-.87.74-1.42,1.78-1.73l1.21-.38c-.04-.61-.51-1-1-1-.58,0-.95.24-1.31.54l-.35-.45c.5-.48,1.01-.68,1.71-.68.75,0,1.85.24,1.85,1.7v2.2c0,.38.05.86.22,1.22h-.98c-.12-.21-.14-.53-.14-.85l-.32.31ZM429.55,48.08c-.79.24-1.2.62-1.2,1.25,0,.52.36.85.72.85.64,0,1.46-.79,1.34-2.35l-.86.25Z"/>
    <path class="cls-6" d="M433.87,45.76h1.31v.52h-1.31v2.83c0,.7.14,1.12.69,1.12.33,0,.52-.08.69-.17l.22.5c-.31.2-.68.32-1.02.32-1,0-1.48-.58-1.48-1.6v-3h-.7v-.52h.7v-1.2l.9-.3v1.5Z"/>
    <path class="cls-6" d="M436.09,44.11c0-.25.21-.53.57-.53s.57.28.57.53c0,.27-.13.61-.57.61s-.57-.34-.57-.61ZM437.11,45.76v5h-.9v-5h.9Z"/>
    <path class="cls-6" d="M438.25,48.2c0-1.62,1.2-2.56,2.46-2.56s2.47.94,2.47,2.56-.99,2.68-2.47,2.68-2.46-1.13-2.46-2.68ZM439.22,48.2c0,.94.32,2.04,1.49,2.04s1.5-1.1,1.5-2.04-.37-1.92-1.5-1.92-1.49,1.02-1.49,1.92Z"/>
    <path class="cls-6" d="M445.21,46.38c.47-.5,1.19-.74,1.71-.74,1.15,0,1.77.64,1.77,1.9v3.22h-.9v-3.03c0-.94-.4-1.43-1.21-1.43-.71,0-1.36.49-1.36,1.45v3.01h-.9v-5h.89v.62Z"/>
    <path class="cls-6" d="M359.16,55.85c-1.18.99-1.97,2.64-1.97,4.36s.94,3.51,1.98,4.23l-.39.39c-1.58-1.08-2.49-2.67-2.49-4.61,0-2.31,1.12-3.84,2.43-4.81l.44.44Z"/>
    <path class="cls-6" d="M360.65,60.32c0,1,.7,1.92,1.69,1.92.46,0,1.02-.17,1.37-.43l.26.49c-.52.37-1.14.58-1.66.58-1.56,0-2.59-.96-2.59-2.72s1.24-2.52,2.37-2.52c1.52,0,2.03,1.37,1.93,2.68h-3.37ZM363.2,59.72c0-.78-.33-1.44-1.12-1.44-.96,0-1.34.8-1.37,1.44h2.49Z"/>
    <path class="cls-6" d="M365.82,61.6c.34,0,.64.3.64.64s-.3.64-.63.64c-.35,0-.65-.29-.65-.64s.3-.64.64-.64Z"/>
    <path class="cls-6" d="M372.49,62.58c0,1.91-1.19,2.68-2.54,2.68-.74,0-1.48-.14-2.06-.5l.25-.59c.61.35,1.17.45,1.79.45,1.03,0,1.66-.66,1.66-1.97v-.68h-.02c-.35.49-.88.91-1.67.91-1.38,0-2.24-1.08-2.24-2.68,0-1.3.96-2.56,2.39-2.56.6,0,1.24.3,1.52.81h.02v-.69h.9v4.82ZM371.59,60.1c0-.94-.51-1.82-1.49-1.82-1.04,0-1.47.82-1.47,1.88s.46,2.08,1.41,2.08c1.09,0,1.55-1.03,1.55-2.14Z"/>
    <path class="cls-6" d="M374.64,61.6c.34,0,.64.3.64.64s-.3.64-.63.64c-.35,0-.65-.29-.65-.64s.3-.64.64-.64Z"/>
    <path class="cls-6" d="M385.08,56.95c-.33-.27-1.08-.61-1.83-.61-1.73,0-2.75,1.24-2.75,2.88,0,1.77,1.22,2.96,2.75,2.96.76,0,1.36-.24,1.77-.52l.38.58c-.47.32-1.3.64-2.2.64-2.5,0-3.77-1.71-3.77-3.64,0-1.76,1.38-3.6,3.89-3.6,1,0,1.7.35,2.16.71l-.4.6Z"/>
    <path class="cls-6" d="M389.34,55.76l2.61,7h-1.12l-.72-2.06h-2.67l-.75,2.06h-.94l2.85-7h.74ZM389.88,60c-.35-.97-.69-1.94-1.04-3.2h-.02c-.36,1.26-.73,2.23-1.11,3.2h2.17Z"/>
    <path class="cls-6" d="M398.88,62.75h-.76c-1.52-1.82-4.13-4.96-4.55-5.57h-.02v5.57h-.8v-7h.72c1.54,1.82,4.12,4.88,4.59,5.58h.02v-5.58h.8v7Z"/>
    <path class="cls-6" d="M400.12,60.2c0-1.62,1.2-2.56,2.46-2.56s2.47.94,2.47,2.56-.99,2.68-2.47,2.68-2.46-1.13-2.46-2.68ZM401.09,60.2c0,.94.32,2.04,1.49,2.04s1.5-1.1,1.5-2.04-.37-1.92-1.5-1.92-1.49,1.02-1.49,1.92Z"/>
    <path class="cls-6" d="M407.09,58.54h.02c.37-.6,1.08-.9,1.64-.9,1.95,0,2.27,1.75,2.27,2.47,0,1.52-.9,2.77-2.37,2.77-.63,0-1.17-.3-1.54-.78h-.02v3.16h-.9v-7.5h.9v.78ZM410.05,60.12c0-.91-.46-1.84-1.39-1.84-1.02,0-1.57.79-1.57,2.08,0,.96.44,1.88,1.56,1.88s1.4-1.21,1.4-2.12Z"/>
    <path class="cls-6" d="M412.75,60.32c0,1,.7,1.92,1.69,1.92.46,0,1.02-.17,1.37-.43l.26.49c-.52.37-1.14.58-1.66.58-1.56,0-2.59-.96-2.59-2.72s1.24-2.52,2.37-2.52c1.52,0,2.03,1.37,1.93,2.68h-3.37ZM415.3,59.72c0-.78-.33-1.44-1.12-1.44-.96,0-1.34.8-1.37,1.44h2.49Z"/>
    <path class="cls-6" d="M418.12,58.38c.47-.5,1.19-.74,1.71-.74,1.15,0,1.77.64,1.77,1.9v3.22h-.9v-3.03c0-.94-.4-1.43-1.21-1.43-.71,0-1.36.49-1.36,1.45v3.01h-.9v-5h.89v.62Z"/>
    <path class="cls-6" d="M425.47,63.83l2.71-8.43h.65l-2.7,8.43h-.66Z"/>
    <path class="cls-6" d="M433.85,55.76v6.94c0,1.45-.8,1.96-1.7,1.96v-.59c.28-.05.43-.21.52-.37.12-.21.21-.73.21-1.13v-6.81h.97Z"/>
    <path class="cls-6" d="M438.11,62.75h-.97v-6.33l-1.37.56-.24-.59,1.91-.76h.67v7.12Z"/>
    <path class="cls-6" d="M441.36,62.22c1.54-.25,2.63-1.29,3.09-2.54l-.02-.02c-.44.3-.92.44-1.46.44-1.39,0-2.09-1.09-2.08-2.19,0-1.2,1.05-2.27,2.43-2.27s2.32.93,2.3,2.49c-.03,2.49-1.95,4.51-4.26,4.75v-.66ZM441.93,57.96c0,.77.44,1.46,1.28,1.46s1.37-.4,1.37-1.65c0-1.03-.47-1.45-1.27-1.45-.87,0-1.38.73-1.38,1.64Z"/>
    <path class="cls-6" d="M447.91,59.37v-.58c.98-.04,1.88-.47,1.88-1.45,0-.8-.64-1-1.07-1-.51,0-1.05.19-1.38.43l-.29-.59c.58-.33,1.2-.54,1.8-.54.53,0,1.88.18,1.92,1.6.03.96-.91,1.54-1.27,1.69v.02c.39.08,1.67.39,1.7,1.82.02,1.01-.86,2.13-2.49,2.11-.82,0-1.42-.26-1.71-.4l.28-.61c.31.17.8.31,1.41.31.86,0,1.47-.57,1.47-1.39,0-1.07-.95-1.42-1.77-1.42h-.48Z"/>
    <path class="cls-6" d="M452.84,62.22c1.54-.25,2.63-1.29,3.09-2.54l-.02-.02c-.44.3-.92.44-1.46.44-1.39,0-2.09-1.09-2.08-2.19,0-1.2,1.05-2.27,2.43-2.27s2.32.93,2.3,2.49c-.03,2.49-1.95,4.51-4.26,4.75v-.66ZM453.41,57.96c0,.77.44,1.46,1.28,1.46s1.37-.4,1.37-1.65c0-1.03-.47-1.45-1.27-1.45-.87,0-1.38.73-1.38,1.64Z"/>
    <path class="cls-6" d="M463.59,62.22c-.35.35-.79.66-1.25.66-.84,0-1.42-.6-1.42-1.54,0-.87.74-1.42,1.78-1.73l1.21-.38c-.04-.61-.51-1-1-1-.58,0-.95.24-1.31.54l-.35-.45c.5-.48,1.01-.68,1.71-.68.75,0,1.85.24,1.85,1.7v2.2c0,.38.05.86.22,1.22h-.98c-.12-.21-.14-.53-.14-.85l-.32.31ZM463.05,60.08c-.79.24-1.2.62-1.2,1.25,0,.52.36.85.72.85.64,0,1.46-.79,1.34-2.35l-.86.25Z"/>
    <path class="cls-6" d="M468.61,58.56c-.36-.24-.65-.32-.92-.32-.32,0-.73.15-.73.57s.46.63,1.03,1.06c.64.49,1.06.9,1.06,1.6,0,.84-.83,1.41-1.75,1.41-.57,0-1.21-.25-1.54-.63l.44-.51c.29.27.68.5,1.08.5s.85-.22.85-.71c0-.58-.52-.83-.99-1.17-.57-.41-1.07-.75-1.07-1.43,0-.79.78-1.29,1.66-1.29.49,0,.97.2,1.23.46l-.35.46Z"/>
    <path class="cls-6" d="M478.48,62.75h-.97v-3.48h-3.42v3.48h-.97v-7h.97v2.82h3.42v-2.82h.97v7Z"/>
    <path class="cls-6" d="M480.16,55.76h.97v6.3h2.91v.7h-3.88v-7Z"/>
    <path class="cls-6" d="M485.94,62.75h-.97v-7h1.76c1.48,0,2.39.66,2.39,2.02,0,1.18-1.01,2.25-2.58,2.25h-.31v-.64h.32c.94-.06,1.53-.56,1.53-1.6,0-.77-.43-1.33-1.47-1.33h-.67v6.3Z"/>
    <path class="cls-6" d="M489.66,64.38c1.18-.99,1.97-2.64,1.97-4.36s-.94-3.51-1.98-4.23l.39-.39c1.58,1.08,2.49,2.67,2.49,4.61,0,2.31-1.12,3.84-2.43,4.81l-.44-.44Z"/>
  </g>
  <rect class="cls-3" x="312.71" y="87.48" width="204.09" height="45.35"/>
  <g>
    <path class="cls-6" d="M401,102.1c-.33-.27-1.08-.61-1.83-.61-1.73,0-2.75,1.24-2.75,2.88,0,1.77,1.22,2.96,2.75,2.96.76,0,1.36-.24,1.77-.52l.38.58c-.47.32-1.3.64-2.2.64-2.5,0-3.77-1.71-3.77-3.64,0-1.76,1.38-3.6,3.89-3.6,1,0,1.7.35,2.16.71l-.4.6Z"/>
    <path class="cls-6" d="M405.26,100.91l2.61,7h-1.12l-.72-2.06h-2.67l-.75,2.06h-.94l2.85-7h.74ZM405.8,105.15c-.35-.97-.69-1.94-1.04-3.2h-.02c-.36,1.26-.73,2.23-1.11,3.2h2.17Z"/>
    <path class="cls-6" d="M414.8,107.91h-.76c-1.52-1.82-4.13-4.96-4.55-5.57h-.02v5.57h-.8v-7h.72c1.54,1.82,4.12,4.88,4.59,5.58h.02v-5.58h.8v7Z"/>
    <path class="cls-6" d="M417.28,103.69h.02c.37-.6,1.08-.9,1.64-.9,1.95,0,2.27,1.75,2.27,2.47,0,1.52-.9,2.77-2.37,2.77-.63,0-1.17-.3-1.54-.78h-.02v3.16h-.9v-7.5h.9v.78ZM420.24,105.27c0-.91-.46-1.84-1.39-1.84-1.02,0-1.57.79-1.57,2.08,0,.96.44,1.88,1.56,1.88s1.4-1.21,1.4-2.12Z"/>
    <path class="cls-6" d="M422.23,101.26c0-.25.21-.53.57-.53s.57.28.57.53c0,.27-.13.61-.57.61s-.57-.34-.57-.61ZM423.25,102.91v5h-.9v-5h.9Z"/>
    <path class="cls-6" d="M425.32,105.47c0,1,.7,1.92,1.69,1.92.46,0,1.02-.17,1.37-.43l.26.49c-.52.37-1.14.58-1.66.58-1.56,0-2.59-.96-2.59-2.72s1.24-2.52,2.37-2.52c1.52,0,2.03,1.37,1.93,2.68h-3.37ZM427.87,104.87c0-.78-.33-1.44-1.12-1.44-.96,0-1.34.8-1.37,1.44h2.49Z"/>
    <path class="cls-6" d="M436.22,101.61h-2.48v2.66h2.43v.7h-2.43v2.94h-.97v-7h3.45v.7Z"/>
    <path class="cls-6" d="M439.82,100.91c2.82,0,3.8,1.61,3.8,3.29,0,2.32-1.48,3.71-3.96,3.71h-2.08v-7h2.24ZM438.55,107.21h1.08c1.97,0,2.92-.98,2.92-3.03,0-1.56-.87-2.57-2.71-2.57h-1.29v5.6Z"/>
    <path class="cls-6" d="M411.38,113.99c-.34-.25-.79-.5-1.21-.5-.7,0-1.09.41-1.09.95,0,.5.43.87,1.33,1.52.96.7,1.52,1.34,1.52,2.24,0,1.11-1.05,1.83-2.17,1.83-.67,0-1.47-.24-1.97-.73l.43-.58c.41.29.86.61,1.52.61s1.22-.37,1.22-1.15c0-.88-1.05-1.45-1.62-1.87-.58-.45-1.23-.88-1.23-1.87s.91-1.65,2-1.65c.73,0,1.34.26,1.73.7l-.46.5Z"/>
    <path class="cls-6" d="M413.79,117.47c0,1,.7,1.92,1.69,1.92.46,0,1.02-.17,1.37-.43l.26.49c-.52.37-1.14.58-1.66.58-1.56,0-2.59-.96-2.59-2.72s1.24-2.52,2.37-2.52c1.52,0,2.03,1.37,1.93,2.68h-3.37ZM416.34,116.87c0-.78-.33-1.44-1.12-1.44-.96,0-1.34.8-1.37,1.44h2.49Z"/>
    <path class="cls-6" d="M419.15,115.53l.36-.38c.21-.21.54-.36.75-.36s.55.16.83.49l-.41.58c-.22-.11-.44-.21-.67-.21-.46,0-.84.46-.84,1.57v2.69h-.9v-5h.88v.62Z"/>
    <path class="cls-6" d="M423.25,119.91l-2.07-4.86.9-.24c.51,1.27,1.02,2.55,1.52,4.06h.02c.52-1.51,1.04-2.79,1.57-4.06l.79.18-2.17,4.92h-.56Z"/>
    <path class="cls-6" d="M427.36,117.47c0,1,.7,1.92,1.69,1.92.46,0,1.02-.17,1.37-.43l.26.49c-.52.37-1.14.58-1.66.58-1.56,0-2.59-.96-2.59-2.72s1.24-2.52,2.37-2.52c1.52,0,2.03,1.37,1.93,2.68h-3.37ZM429.91,116.87c0-.78-.33-1.44-1.12-1.44-.96,0-1.34.8-1.37,1.44h2.49Z"/>
    <path class="cls-6" d="M432.72,115.53l.36-.38c.21-.21.54-.36.75-.36s.55.16.83.49l-.41.58c-.22-.11-.44-.21-.67-.21-.46,0-.84.46-.84,1.57v2.69h-.9v-5h.88v.62Z"/>
  </g>
  <rect class="cls-3" x="312.71" y="137.91" width="99.21" height="28.35"/>
  <g>
    <path class="cls-6" d="M350.31,154.83h-.97v-7h1.76c1.48,0,2.39.66,2.39,2.02,0,1.18-1.01,2.25-2.58,2.25h-.31v-.64h.32c.94-.06,1.53-.56,1.53-1.6,0-.77-.43-1.33-1.47-1.33h-.67v6.3Z"/>
    <path class="cls-6" d="M354.61,154.83v-7.35h.9v7.35h-.9Z"/>
    <path class="cls-6" d="M360.32,154.25c-.51.44-.96.7-1.61.7-1.15,0-1.77-.64-1.77-1.9v-3.22h.9v3.02c0,.94.4,1.44,1.21,1.44.69,0,1.26-.57,1.26-1.54v-2.92h.9v5h-.89v-.58Z"/>
    <path class="cls-6" d="M367.18,154.66c0,1.91-1.19,2.68-2.54,2.68-.74,0-1.48-.14-2.06-.5l.25-.59c.61.35,1.17.45,1.79.45,1.03,0,1.66-.66,1.66-1.97v-.68h-.02c-.35.49-.88.91-1.67.91-1.38,0-2.24-1.08-2.24-2.68,0-1.3.96-2.56,2.39-2.56.6,0,1.24.3,1.52.81h.02v-.69h.9v4.82ZM366.28,152.18c0-.94-.51-1.82-1.49-1.82-1.04,0-1.47.82-1.47,1.88s.46,2.08,1.41,2.08c1.09,0,1.55-1.03,1.55-2.14Z"/>
    <path class="cls-6" d="M368.52,148.19c0-.25.21-.53.57-.53s.57.28.57.53c0,.27-.13.61-.57.61s-.57-.34-.57-.61ZM369.54,149.84v5h-.9v-5h.9Z"/>
    <path class="cls-6" d="M371.91,150.46c.47-.5,1.19-.74,1.71-.74,1.15,0,1.77.64,1.77,1.9v3.22h-.9v-3.03c0-.94-.4-1.43-1.21-1.43-.71,0-1.36.49-1.36,1.45v3.01h-.9v-5h.89v.62Z"/>
  </g>
  <rect class="cls-3" x="417.59" y="137.91" width="99.21" height="28.35"/>
  <g>
    <path class="cls-6" d="M455.19,154.83h-.97v-7h1.76c1.48,0,2.39.66,2.39,2.02,0,1.18-1.01,2.25-2.58,2.25h-.31v-.64h.32c.94-.06,1.53-.56,1.53-1.6,0-.77-.43-1.33-1.47-1.33h-.67v6.3Z"/>
    <path class="cls-6" d="M459.49,154.83v-7.35h.9v7.35h-.9Z"/>
    <path class="cls-6" d="M465.21,154.25c-.51.44-.96.7-1.61.7-1.15,0-1.77-.64-1.77-1.9v-3.22h.9v3.02c0,.94.4,1.44,1.21,1.44.69,0,1.26-.57,1.26-1.54v-2.92h.9v5h-.89v-.58Z"/>
    <path class="cls-6" d="M472.07,154.66c0,1.91-1.19,2.68-2.54,2.68-.74,0-1.48-.14-2.06-.5l.25-.59c.61.35,1.17.45,1.79.45,1.03,0,1.66-.66,1.66-1.97v-.68h-.02c-.35.49-.88.91-1.67.91-1.38,0-2.24-1.08-2.24-2.68,0-1.3.96-2.56,2.39-2.56.6,0,1.24.3,1.52.81h.02v-.69h.9v4.82ZM471.17,152.18c0-.94-.51-1.82-1.49-1.82-1.04,0-1.47.82-1.47,1.88s.46,2.08,1.41,2.08c1.09,0,1.55-1.03,1.55-2.14Z"/>
    <path class="cls-6" d="M473.41,148.19c0-.25.21-.53.57-.53s.57.28.57.53c0,.27-.13.61-.57.61s-.57-.34-.57-.61ZM474.43,149.84v5h-.9v-5h.9Z"/>
    <path class="cls-6" d="M476.8,150.46c.47-.5,1.19-.74,1.71-.74,1.15,0,1.77.64,1.77,1.9v3.22h-.9v-3.03c0-.94-.4-1.43-1.21-1.43-.71,0-1.36.49-1.36,1.45v3.01h-.9v-5h.89v.62Z"/>
  </g>
  <rect class="cls-1" x="312.71" y="171.33" width="99.21" height="28.35"/>
  <g>
    <path class="cls-6" d="M337.53,178.07c-.33-.27-1.08-.61-1.83-.61-1.73,0-2.75,1.24-2.75,2.88,0,1.77,1.22,2.96,2.75,2.96.76,0,1.36-.24,1.77-.52l.38.58c-.47.32-1.3.64-2.2.64-2.5,0-3.77-1.71-3.77-3.64,0-1.76,1.38-3.6,3.89-3.6,1,0,1.7.35,2.16.71l-.4.6Z"/>
    <path class="cls-6" d="M341.79,176.88l2.61,7h-1.12l-.72-2.06h-2.67l-.75,2.06h-.94l2.85-7h.74ZM342.33,181.12c-.35-.97-.69-1.94-1.04-3.2h-.02c-.36,1.26-.73,2.23-1.11,3.2h2.17Z"/>
    <path class="cls-6" d="M351.33,183.88h-.76c-1.52-1.82-4.13-4.96-4.55-5.57h-.02v5.57h-.8v-7h.72c1.54,1.82,4.12,4.88,4.59,5.58h.02v-5.58h.8v7Z"/>
    <path class="cls-6" d="M355.66,177.23c0-.25.21-.53.57-.53s.57.28.57.53c0,.27-.13.61-.57.61s-.57-.34-.57-.61ZM356.68,178.88v5h-.9v-5h.9Z"/>
    <path class="cls-6" d="M359.05,179.5c.47-.5,1.19-.74,1.71-.74,1.15,0,1.77.64,1.77,1.9v3.22h-.9v-3.03c0-.94-.4-1.43-1.21-1.43-.71,0-1.36.49-1.36,1.45v3.01h-.9v-5h.89v.62Z"/>
    <path class="cls-6" d="M365.12,178.88h1.31v.52h-1.31v2.83c0,.7.14,1.12.69,1.12.33,0,.52-.08.69-.17l.22.5c-.31.2-.68.32-1.02.32-1,0-1.48-.58-1.48-1.6v-3h-.7v-.52h.7v-1.2l.9-.3v1.5Z"/>
    <path class="cls-6" d="M368.05,181.44c0,1,.7,1.92,1.69,1.92.46,0,1.02-.17,1.37-.43l.26.49c-.52.37-1.14.58-1.66.58-1.56,0-2.59-.96-2.59-2.72s1.24-2.52,2.37-2.52c1.52,0,2.03,1.37,1.93,2.68h-3.37ZM370.6,180.84c0-.78-.33-1.44-1.12-1.44-.96,0-1.34.8-1.37,1.44h2.49Z"/>
    <path class="cls-6" d="M373.41,179.5l.36-.38c.21-.21.54-.36.75-.36s.55.16.83.49l-.41.58c-.22-.11-.44-.21-.67-.21-.46,0-.84.46-.84,1.57v2.69h-.9v-5h.88v.62Z"/>
    <path class="cls-6" d="M376.18,183.88v-4.48h-.8v-.52h.8v-.61c0-1.34.9-1.74,1.46-1.74.26,0,.57.05.79.21l-.2.46c-.15-.04-.29-.07-.49-.07-.15,0-.66.04-.66.85v.9h1.2v.52h-1.2v4.48h-.9Z"/>
    <path class="cls-6" d="M381.42,183.34c-.35.35-.79.66-1.25.66-.84,0-1.42-.6-1.42-1.54,0-.87.74-1.42,1.78-1.73l1.21-.38c-.04-.61-.51-1-1-1-.58,0-.95.24-1.31.54l-.35-.45c.5-.48,1.01-.68,1.71-.68.75,0,1.85.24,1.85,1.7v2.2c0,.38.05.86.22,1.22h-.98c-.12-.21-.14-.53-.14-.85l-.32.31ZM380.88,181.2c-.79.24-1.2.62-1.2,1.25,0,.52.36.85.72.85.64,0,1.46-.79,1.34-2.35l-.86.25Z"/>
    <path class="cls-6" d="M387.93,183.47c-.49.35-1.08.52-1.51.52-2.37,0-2.67-1.94-2.67-2.63,0-1.25.83-2.61,2.71-2.61.51,0,.97.13,1.34.41l-.3.51c-.29-.14-.66-.26-1.03-.26-.82,0-1.75.54-1.75,1.9,0,1.04.53,2.02,1.74,2.02.43,0,.83-.11,1.22-.36l.25.5Z"/>
    <path class="cls-6" d="M389.49,181.44c0,1,.7,1.92,1.69,1.92.46,0,1.02-.17,1.37-.43l.26.49c-.52.37-1.14.58-1.66.58-1.56,0-2.59-.96-2.59-2.72s1.24-2.52,2.37-2.52c1.52,0,2.03,1.37,1.93,2.68h-3.37ZM392.04,180.84c0-.78-.33-1.44-1.12-1.44-.96,0-1.34.8-1.37,1.44h2.49Z"/>
    <path class="cls-6" d="M344.45,195.88l-2.07-4.86.9-.24c.51,1.27,1.02,2.55,1.52,4.06h.02c.52-1.51,1.04-2.79,1.57-4.06l.79.18-2.17,4.92h-.56Z"/>
    <path class="cls-6" d="M348.56,193.44c0,1,.7,1.92,1.69,1.92.46,0,1.02-.17,1.37-.43l.26.49c-.52.37-1.14.58-1.66.58-1.56,0-2.59-.96-2.59-2.72s1.24-2.52,2.37-2.52c1.52,0,2.03,1.37,1.93,2.68h-3.37ZM351.11,192.84c0-.78-.33-1.44-1.12-1.44-.96,0-1.34.8-1.37,1.44h2.49Z"/>
    <path class="cls-6" d="M353.93,191.5c.47-.5,1.19-.74,1.71-.74,1.15,0,1.77.64,1.77,1.9v3.22h-.9v-3.03c0-.94-.4-1.43-1.21-1.43-.71,0-1.36.49-1.36,1.45v3.01h-.9v-5h.89v.62Z"/>
    <path class="cls-6" d="M362.48,195.09h-.02c-.35.49-.88.91-1.7.91-1.35,0-2.21-1.08-2.21-2.68,0-1.3.94-2.56,2.31-2.56.68,0,1.29.26,1.6.74h.02v-2.97h.9v7.35h-.9v-.79ZM362.48,193.22c0-.94-.51-1.82-1.49-1.82-1.04,0-1.47.82-1.47,1.88s.46,2.08,1.41,2.08c1.09,0,1.55-1.03,1.55-2.14Z"/>
    <path class="cls-6" d="M364.5,193.32c0-1.62,1.2-2.56,2.46-2.56s2.47.94,2.47,2.56-.99,2.68-2.47,2.68-2.46-1.13-2.46-2.68ZM365.47,193.32c0,.94.32,2.04,1.49,2.04s1.5-1.1,1.5-2.04-.37-1.92-1.5-1.92-1.49,1.02-1.49,1.92Z"/>
    <path class="cls-6" d="M371.45,191.5l.36-.38c.21-.21.54-.36.75-.36s.55.16.83.49l-.41.58c-.22-.11-.44-.21-.67-.21-.46,0-.84.46-.84,1.57v2.69h-.9v-5h.88v.62Z"/>
    <path class="cls-6" d="M379.73,188.88l2.61,7h-1.12l-.72-2.06h-2.67l-.75,2.06h-.94l2.85-7h.74ZM380.27,193.12c-.35-.97-.69-1.94-1.04-3.2h-.02c-.36,1.26-.73,2.23-1.11,3.2h2.17Z"/>
  </g>
  <rect class="cls-1" x="417.59" y="171.33" width="99.21" height="28.35"/>
  <g>
    <path class="cls-6" d="M448.02,178.07c-.33-.27-1.08-.61-1.83-.61-1.73,0-2.75,1.24-2.75,2.88,0,1.77,1.22,2.96,2.75,2.96.76,0,1.36-.24,1.77-.52l.38.58c-.47.32-1.3.64-2.2.64-2.5,0-3.77-1.71-3.77-3.64,0-1.76,1.38-3.6,3.89-3.6,1,0,1.7.35,2.16.71l-.4.6Z"/>
    <path class="cls-6" d="M452.28,176.88l2.61,7h-1.12l-.72-2.06h-2.67l-.75,2.06h-.94l2.85-7h.74ZM452.82,181.12c-.35-.97-.69-1.94-1.04-3.2h-.02c-.36,1.26-.73,2.23-1.11,3.2h2.17Z"/>
    <path class="cls-6" d="M461.82,183.88h-.76c-1.52-1.82-4.13-4.96-4.55-5.57h-.02v5.57h-.8v-7h.72c1.54,1.82,4.12,4.88,4.59,5.58h.02v-5.58h.8v7Z"/>
    <path class="cls-6" d="M466.15,177.23c0-.25.21-.53.57-.53s.57.28.57.53c0,.27-.13.61-.57.61s-.57-.34-.57-.61ZM467.17,178.88v5h-.9v-5h.9Z"/>
    <path class="cls-6" d="M469.54,179.5c.47-.5,1.19-.74,1.71-.74,1.15,0,1.77.64,1.77,1.9v3.22h-.9v-3.03c0-.94-.4-1.43-1.21-1.43-.71,0-1.36.49-1.36,1.45v3.01h-.9v-5h.89v.62Z"/>
    <path class="cls-6" d="M475.61,178.88h1.31v.52h-1.31v2.83c0,.7.14,1.12.69,1.12.33,0,.52-.08.69-.17l.22.5c-.31.2-.68.32-1.02.32-1,0-1.48-.58-1.48-1.6v-3h-.7v-.52h.7v-1.2l.9-.3v1.5Z"/>
    <path class="cls-6" d="M478.54,181.44c0,1,.7,1.92,1.69,1.92.46,0,1.02-.17,1.37-.43l.26.49c-.52.37-1.14.58-1.66.58-1.56,0-2.59-.96-2.59-2.72s1.24-2.52,2.37-2.52c1.52,0,2.03,1.37,1.93,2.68h-3.37ZM481.09,180.84c0-.78-.33-1.44-1.12-1.44-.96,0-1.34.8-1.37,1.44h2.49Z"/>
    <path class="cls-6" d="M483.9,179.5l.36-.38c.21-.21.54-.36.75-.36s.55.16.83.49l-.41.58c-.22-.11-.44-.21-.67-.21-.46,0-.84.46-.84,1.57v2.69h-.9v-5h.88v.62Z"/>
    <path class="cls-6" d="M486.67,183.88v-4.48h-.8v-.52h.8v-.61c0-1.34.9-1.74,1.46-1.74.26,0,.57.05.79.21l-.2.46c-.15-.04-.29-.07-.49-.07-.15,0-.66.04-.66.85v.9h1.2v.52h-1.2v4.48h-.9Z"/>
    <path class="cls-6" d="M491.91,183.34c-.35.35-.79.66-1.25.66-.84,0-1.42-.6-1.42-1.54,0-.87.74-1.42,1.78-1.73l1.21-.38c-.04-.61-.51-1-1-1-.58,0-.95.24-1.31.54l-.35-.45c.5-.48,1.01-.68,1.71-.68.75,0,1.85.24,1.85,1.7v2.2c0,.38.05.86.22,1.22h-.98c-.12-.21-.14-.53-.14-.85l-.32.31ZM491.37,181.2c-.79.24-1.2.62-1.2,1.25,0,.52.36.85.72.85.64,0,1.46-.79,1.34-2.35l-.86.25Z"/>
    <path class="cls-6" d="M498.42,183.48c-.49.35-1.08.52-1.51.52-2.37,0-2.67-1.94-2.67-2.63,0-1.25.83-2.61,2.71-2.61.51,0,.97.13,1.34.41l-.3.51c-.29-.14-.66-.26-1.03-.26-.82,0-1.75.54-1.75,1.9,0,1.04.53,2.02,1.74,2.02.43,0,.83-.11,1.22-.36l.25.5Z"/>
    <path class="cls-6" d="M499.98,181.44c0,1,.7,1.92,1.69,1.92.46,0,1.02-.17,1.37-.43l.26.49c-.52.37-1.14.58-1.66.58-1.56,0-2.59-.96-2.59-2.72s1.24-2.52,2.37-2.52c1.52,0,2.03,1.37,1.93,2.68h-3.37ZM502.53,180.84c0-.78-.33-1.44-1.12-1.44-.96,0-1.34.8-1.37,1.44h2.49Z"/>
    <path class="cls-6" d="M455.13,195.88l-2.07-4.86.9-.24c.51,1.27,1.02,2.55,1.52,4.06h.02c.52-1.51,1.04-2.79,1.57-4.06l.79.18-2.17,4.92h-.56Z"/>
    <path class="cls-6" d="M459.24,193.44c0,1,.7,1.92,1.69,1.92.46,0,1.02-.17,1.37-.43l.26.49c-.52.37-1.14.58-1.66.58-1.56,0-2.59-.96-2.59-2.72s1.24-2.52,2.37-2.52c1.52,0,2.03,1.37,1.93,2.68h-3.37ZM461.79,192.84c0-.78-.33-1.44-1.12-1.44-.96,0-1.34.8-1.37,1.44h2.49Z"/>
    <path class="cls-6" d="M464.61,191.5c.47-.5,1.19-.74,1.71-.74,1.15,0,1.77.64,1.77,1.9v3.22h-.9v-3.03c0-.94-.4-1.43-1.21-1.43-.71,0-1.36.49-1.36,1.45v3.01h-.9v-5h.89v.62Z"/>
    <path class="cls-6" d="M473.16,195.09h-.02c-.35.49-.88.91-1.7.91-1.35,0-2.21-1.08-2.21-2.68,0-1.3.94-2.56,2.31-2.56.68,0,1.29.26,1.6.74h.02v-2.97h.9v7.35h-.9v-.79ZM473.16,193.22c0-.94-.51-1.82-1.49-1.82-1.04,0-1.47.82-1.47,1.88s.46,2.08,1.41,2.08c1.09,0,1.55-1.03,1.55-2.14Z"/>
    <path class="cls-6" d="M475.18,193.32c0-1.62,1.2-2.56,2.46-2.56s2.47.94,2.47,2.56-.99,2.68-2.47,2.68-2.46-1.13-2.46-2.68ZM476.15,193.32c0,.94.32,2.04,1.49,2.04s1.5-1.1,1.5-2.04-.37-1.92-1.5-1.92-1.49,1.02-1.49,1.92Z"/>
    <path class="cls-6" d="M482.13,191.5l.36-.38c.21-.21.54-.36.75-.36s.55.16.83.49l-.41.58c-.22-.11-.44-.21-.67-.21-.46,0-.84.46-.84,1.57v2.69h-.9v-5h.88v.62Z"/>
    <path class="cls-6" d="M487.7,195.88v-7h2.17c1.04,0,1.82.52,1.82,1.43,0,1.14-.89,1.68-1.43,1.78v.02c.92.03,1.86.6,1.86,1.74s-1,2.03-2.45,2.03h-1.97ZM488.67,191.88h.48c.84,0,1.57-.58,1.57-1.33,0-.62-.43-.97-1.23-.97h-.82v2.3ZM488.67,195.18h.94c.79,0,1.47-.43,1.47-1.27,0-.98-.84-1.33-1.63-1.33h-.78v2.6Z"/>
  </g>
</svg>