<?xml version="1.0" encoding="UTF-8" standalone="no"?>
<!DOCTYPE svg PUBLIC "-//W3C//DTD SVG 1.1//EN"
 "http://www.w3.org/Graphics/SVG/1.1/DTD/svg11.dtd">
<!-- Generated by graphviz version 12.2.1 (20241206.2353)
 -->
<!-- Title: QCanServerLogger Pages: 1 -->
<svg width="137pt" height="235pt"
 viewBox="0.00 0.00 137.00 235.00" xmlns="http://www.w3.org/2000/svg" xmlns:xlink="http://www.w3.org/1999/xlink">
<g id="graph0" class="graph" transform="scale(1 1) rotate(0) translate(4 231)">
<title>QCanServerLogger</title>
<!-- Node1 -->
<g id="Node000001" class="node">
<title>Node1</title>
<g id="a_Node000001"><a xlink:title=" ">
<polygon fill="#999999" stroke="none" points="118.12,-227 10.88,-227 10.88,-85.75 118.12,-85.75 118.12,-227"/>
<text text-anchor="start" x="22.88" y="-213.5" font-family="Helvetica,sans-Serif" font-size="10.00">QCanServerLogger</text>
<text text-anchor="start" x="63" y="-198.25" font-family="Helvetica,sans-Serif" font-size="10.00"> </text>
<text text-anchor="start" x="14.88" y="-183" font-family="Helvetica,sans-Serif" font-size="10.00">+</text>
<text text-anchor="start" x="24.88" y="-183" font-family="Helvetica,sans-Serif" font-size="10.00">QCanServerLogger()</text>
<text text-anchor="start" x="14.88" y="-167.75" font-family="Helvetica,sans-Serif" font-size="10.00">+</text>
<text text-anchor="start" x="24.88" y="-167.75" font-family="Helvetica,sans-Serif" font-size="10.00">attachServer()</text>
<text text-anchor="start" x="14.88" y="-152.5" font-family="Helvetica,sans-Serif" font-size="10.00">+</text>
<text text-anchor="start" x="24.88" y="-152.5" font-family="Helvetica,sans-Serif" font-size="10.00">logLevel()</text>
<text text-anchor="start" x="14.88" y="-137.25" font-family="Helvetica,sans-Serif" font-size="10.00">+</text>
<text text-anchor="start" x="24.88" y="-137.25" font-family="Helvetica,sans-Serif" font-size="10.00">message()</text>
<text text-anchor="start" x="14.88" y="-122" font-family="Helvetica,sans-Serif" font-size="10.00">+</text>
<text text-anchor="start" x="24.88" y="-122" font-family="Helvetica,sans-Serif" font-size="10.00">setFileName()</text>
<text text-anchor="start" x="14.88" y="-106.75" font-family="Helvetica,sans-Serif" font-size="10.00">+</text>
<text text-anchor="start" x="24.88" y="-106.75" font-family="Helvetica,sans-Serif" font-size="10.00">setLogLevel()</text>
<text text-anchor="start" x="14.88" y="-91.5" font-family="Helvetica,sans-Serif" font-size="10.00">+</text>
<text text-anchor="start" x="24.88" y="-91.5" font-family="Helvetica,sans-Serif" font-size="10.00">appendMessage()</text>
<polygon fill="#666666" stroke="#666666" points="10.88,-209.75 10.88,-209.75 118.12,-209.75 118.12,-209.75 10.88,-209.75"/>
<polygon fill="#666666" stroke="#666666" points="10.88,-194.5 10.88,-194.5 118.12,-194.5 118.12,-194.5 10.88,-194.5"/>
<polygon fill="none" stroke="#666666" points="10.88,-85.75 10.88,-227 118.12,-227 118.12,-85.75 10.88,-85.75"/>
</a>
</g>
</g>
<!-- Node2 -->
<g id="Node000002" class="node">
<title>Node2</title>
<g id="a_Node000002"><a xlink:href="classQCanServerLoggerView.html" target="_top" xlink:title=" ">
<polygon fill="white" stroke="none" points="129,-49.75 0,-49.75 0,0 129,0 129,-49.75"/>
<text text-anchor="start" x="12" y="-36.25" font-family="Helvetica,sans-Serif" font-size="10.00">QCanServerLoggerView</text>
<text text-anchor="start" x="63" y="-21" font-family="Helvetica,sans-Serif" font-size="10.00"> </text>
<text text-anchor="start" x="4" y="-5.75" font-family="Helvetica,sans-Serif" font-size="10.00">+</text>
<text text-anchor="start" x="14" y="-5.75" font-family="Helvetica,sans-Serif" font-size="10.00">QCanServerLoggerView()</text>
<polygon fill="#666666" stroke="#666666" points="0,-32.5 0,-32.5 129,-32.5 129,-32.5 0,-32.5"/>
<polygon fill="#666666" stroke="#666666" points="0,-17.25 0,-17.25 129,-17.25 129,-17.25 0,-17.25"/>
<polygon fill="none" stroke="#666666" points="0,0 0,-49.75 129,-49.75 129,0 0,0"/>
</a>
</g>
</g>
<!-- Node1&#45;&gt;Node2 -->
<g id="edge1_Node000001_Node000002" class="edge">
<title>Node1&#45;&gt;Node2</title>
<g id="a_edge1_Node000001_Node000002"><a xlink:title=" ">
<path fill="none" stroke="#63b8ff" d="M64.5,-74.82C64.5,-65.73 64.5,-57.09 64.5,-49.66"/>
<polygon fill="none" stroke="#63b8ff" points="61,-74.56 64.5,-84.56 68,-74.56 61,-74.56"/>
</a>
</g>
</g>
</g>
</svg>
