<?xml version="1.0" encoding="UTF-8" standalone="no"?>
<!DOCTYPE svg PUBLIC "-//W3C//DTD SVG 1.1//EN"
 "http://www.w3.org/Graphics/SVG/1.1/DTD/svg11.dtd">
<!-- Generated by graphviz version 12.2.1 (20241206.2353)
 -->
<!-- Title: QCanClasses Pages: 1 -->
<svg width="1103pt" height="495pt"
 viewBox="0.00 0.00 1102.75 495.25" xmlns="http://www.w3.org/2000/svg" xmlns:xlink="http://www.w3.org/1999/xlink">
<g id="graph0" class="graph" transform="scale(1 1) rotate(0) translate(4 491.25)">
<title>QCanClasses</title>
<polygon fill="white" stroke="none" points="-4,4 -4,-491.25 1098.75,-491.25 1098.75,4 -4,4"/>
<text text-anchor="middle" x="547.38" y="-473.75" font-family="Times,serif" font-size="10.00">QCan C++ Class Diagram (overview)</text>
<g id="clust1" class="cluster">
<title>cluster_basics</title>
<path fill="none" stroke="lightgrey" d="M309.5,-299C309.5,-299 807,-299 807,-299 813,-299 819,-305 819,-311 819,-311 819,-412 819,-412 819,-418 813,-424 807,-424 807,-424 309.5,-424 309.5,-424 303.5,-424 297.5,-418 297.5,-412 297.5,-412 297.5,-311 297.5,-311 297.5,-305 303.5,-299 309.5,-299"/>
<text text-anchor="middle" x="558.25" y="-410.5" font-family="Times,serif" font-size="10.00">Basics</text>
</g>
<g id="clust2" class="cluster">
<title>cluster_networking</title>
<path fill="none" stroke="lightgrey" d="M309.5,-87C309.5,-87 1074.75,-87 1074.75,-87 1080.75,-87 1086.75,-93 1086.75,-99 1086.75,-99 1086.75,-146 1086.75,-146 1086.75,-152 1080.75,-158 1074.75,-158 1074.75,-158 309.5,-158 309.5,-158 303.5,-158 297.5,-152 297.5,-146 297.5,-146 297.5,-99 297.5,-99 297.5,-93 303.5,-87 309.5,-87"/>
<text text-anchor="middle" x="692.12" y="-144.5" font-family="Times,serif" font-size="10.00">Networking</text>
</g>
<g id="clust3" class="cluster">
<title>cluster_socket</title>
<path fill="none" stroke="lightgrey" d="M20,-166C20,-166 517.5,-166 517.5,-166 523.5,-166 529.5,-172 529.5,-178 529.5,-178 529.5,-279 529.5,-279 529.5,-285 523.5,-291 517.5,-291 517.5,-291 20,-291 20,-291 14,-291 8,-285 8,-279 8,-279 8,-178 8,-178 8,-172 14,-166 20,-166"/>
<text text-anchor="middle" x="268.75" y="-277.5" font-family="Times,serif" font-size="10.00">Socket</text>
</g>
<g id="clust4" class="cluster">
<title>cluster_server</title>
<path fill="none" stroke="lightgrey" d="M20,-8C20,-8 807,-8 807,-8 813,-8 819,-14 819,-20 819,-20 819,-67 819,-67 819,-73 813,-79 807,-79 807,-79 20,-79 20,-79 14,-79 8,-73 8,-67 8,-67 8,-20 8,-20 8,-14 14,-8 20,-8"/>
<text text-anchor="middle" x="413.5" y="-65.5" font-family="Times,serif" font-size="10.00">Server</text>
</g>
<!-- QCanFrame -->
<g id="node1" class="node">
<title>QCanFrame</title>
<polygon fill="white" stroke="black" points="521.5,-397 305.5,-397 305.5,-361 521.5,-361 521.5,-397"/>
<text text-anchor="middle" x="413.5" y="-375.12" font-family="Times,serif" font-size="10.00">QCanFrame</text>
</g>
<!-- QCanTimeStamp -->
<g id="node2" class="node">
<title>QCanTimeStamp</title>
<polygon fill="white" stroke="black" points="811,-397 595,-397 595,-361 811,-361 811,-397"/>
<text text-anchor="middle" x="703" y="-375.12" font-family="Times,serif" font-size="10.00">QCanTimeStamp</text>
</g>
<!-- QCanFrame&#45;&gt;QCanTimeStamp -->
<g id="edge1" class="edge">
<title>QCanFrame&#45;&gt;QCanTimeStamp</title>
<path fill="none" stroke="black" stroke-dasharray="5,2" d="M521.96,-379C545.73,-379 570.91,-379 594.67,-379"/>
<text text-anchor="middle" x="558.25" y="-380.95" font-family="Times,serif" font-size="9.00">timestamp</text>
</g>
<!-- QCanFilter -->
<g id="node3" class="node">
<title>QCanFilter</title>
<polygon fill="white" stroke="black" points="811,-343 595,-343 595,-307 811,-307 811,-343"/>
<text text-anchor="middle" x="703" y="-321.12" font-family="Times,serif" font-size="10.00">QCanFilter</text>
</g>
<!-- QCanFilterList -->
<g id="node4" class="node">
<title>QCanFilterList</title>
<polygon fill="white" stroke="black" points="521.5,-343 305.5,-343 305.5,-307 521.5,-307 521.5,-343"/>
<text text-anchor="middle" x="413.5" y="-321.12" font-family="Times,serif" font-size="10.00">QCanFilterList</text>
</g>
<!-- QCanFilterList&#45;&gt;QCanFilter -->
<g id="edge2" class="edge">
<title>QCanFilterList&#45;&gt;QCanFilter</title>
<path fill="none" stroke="black" stroke-dasharray="5,2" d="M521.96,-325C545.73,-325 570.91,-325 594.67,-325"/>
<text text-anchor="middle" x="558.25" y="-326.95" font-family="Times,serif" font-size="9.00">contains</text>
</g>
<!-- QCanInterface -->
<g id="node5" class="node">
<title>QCanInterface</title>
<polygon fill="white" stroke="black" points="1078.75,-131 862.75,-131 862.75,-95 1078.75,-95 1078.75,-131"/>
<text text-anchor="middle" x="970.75" y="-109.12" font-family="Times,serif" font-size="10.00">QCanInterface</text>
</g>
<!-- QCanNetwork -->
<g id="node6" class="node">
<title>QCanNetwork</title>
<polygon fill="white" stroke="black" points="811,-131 595,-131 595,-95 811,-95 811,-131"/>
<text text-anchor="middle" x="703" y="-109.12" font-family="Times,serif" font-size="10.00">QCanNetwork</text>
</g>
<!-- QCanNetwork&#45;&gt;QCanInterface -->
<g id="edge4" class="edge">
<title>QCanNetwork&#45;&gt;QCanInterface</title>
<path fill="none" stroke="black" stroke-dasharray="5,2" d="M811.32,-113C828.18,-113 845.6,-113 862.46,-113"/>
<text text-anchor="middle" x="836.88" y="-114.95" font-family="Times,serif" font-size="9.00">uses</text>
</g>
<!-- QCanNetworkSettings -->
<g id="node7" class="node">
<title>QCanNetworkSettings</title>
<polygon fill="white" stroke="black" points="521.5,-131 305.5,-131 305.5,-95 521.5,-95 521.5,-131"/>
<text text-anchor="middle" x="413.5" y="-109.12" font-family="Times,serif" font-size="10.00">QCanNetworkSettings</text>
</g>
<!-- QCanNetworkSettings&#45;&gt;QCanNetwork -->
<g id="edge10" class="edge">
<title>QCanNetworkSettings&#45;&gt;QCanNetwork</title>
<path fill="none" stroke="black" stroke-dasharray="5,2" d="M521.96,-113C545.73,-113 570.91,-113 594.67,-113"/>
<text text-anchor="middle" x="558.25" y="-114.95" font-family="Times,serif" font-size="9.00">configures</text>
</g>
<!-- QCanSocket -->
<g id="node8" class="node">
<title>QCanSocket</title>
<polygon fill="white" stroke="black" points="521.5,-264 305.5,-264 305.5,-228 521.5,-228 521.5,-264"/>
<text text-anchor="middle" x="413.5" y="-242.12" font-family="Times,serif" font-size="10.00">QCanSocket</text>
</g>
<!-- QCanSocket&#45;&gt;QCanFilter -->
<g id="edge6" class="edge">
<title>QCanSocket&#45;&gt;QCanFilter</title>
<path fill="none" stroke="black" stroke-dasharray="5,2" d="M481.54,-264.42C527.67,-277.1 588.7,-293.87 634.85,-306.55"/>
<text text-anchor="middle" x="558.25" y="-292.18" font-family="Times,serif" font-size="9.00">filters</text>
</g>
<!-- QCanSocket&#45;&gt;QCanNetwork -->
<g id="edge5" class="edge">
<title>QCanSocket&#45;&gt;QCanNetwork</title>
<path fill="none" stroke="black" stroke-dasharray="5,2" d="M454.48,-227.51C509.4,-202.1 607.62,-156.66 662.36,-131.34"/>
<text text-anchor="middle" x="558.25" y="-189.41" font-family="Times,serif" font-size="9.00">connects</text>
</g>
<!-- QCanSocketCpFD -->
<g id="node9" class="node">
<title>QCanSocketCpFD</title>
<polygon fill="white" stroke="black" points="232,-210 16,-210 16,-174 232,-174 232,-210"/>
<text text-anchor="middle" x="124" y="-188.12" font-family="Times,serif" font-size="10.00">QCanSocketCpFD</text>
</g>
<!-- QCanSocketDialog -->
<g id="node10" class="node">
<title>QCanSocketDialog</title>
<polygon fill="white" stroke="black" points="232,-264 16,-264 16,-228 232,-228 232,-264"/>
<text text-anchor="middle" x="124" y="-242.12" font-family="Times,serif" font-size="10.00">QCanSocketDialog</text>
</g>
<!-- QCanSocketDialog&#45;&gt;QCanSocket -->
<g id="edge11" class="edge">
<title>QCanSocketDialog&#45;&gt;QCanSocket</title>
<path fill="none" stroke="black" stroke-dasharray="5,2" d="M232.46,-246C256.23,-246 281.41,-246 305.17,-246"/>
<text text-anchor="middle" x="268.75" y="-247.95" font-family="Times,serif" font-size="9.00">controls</text>
</g>
<!-- QCanServer -->
<g id="node11" class="node">
<title>QCanServer</title>
<polygon fill="white" stroke="black" points="521.5,-52 305.5,-52 305.5,-16 521.5,-16 521.5,-52"/>
<text text-anchor="middle" x="413.5" y="-30.12" font-family="Times,serif" font-size="10.00">QCanServer</text>
</g>
<!-- QCanServer&#45;&gt;QCanNetwork -->
<g id="edge7" class="edge">
<title>QCanServer&#45;&gt;QCanNetwork</title>
<path fill="none" stroke="black" stroke-dasharray="5,2" d="M481.54,-52.42C527.67,-65.1 588.7,-81.87 634.85,-94.55"/>
<text text-anchor="middle" x="558.25" y="-80.18" font-family="Times,serif" font-size="9.00">manages</text>
</g>
<!-- QCanPlugin -->
<g id="node13" class="node">
<title>QCanPlugin</title>
<polygon fill="white" stroke="black" points="811,-52 595,-52 595,-16 811,-16 811,-52"/>
<text text-anchor="middle" x="703" y="-30.12" font-family="Times,serif" font-size="10.00">QCanPlugin</text>
</g>
<!-- QCanServer&#45;&gt;QCanPlugin -->
<g id="edge8" class="edge">
<title>QCanServer&#45;&gt;QCanPlugin</title>
<path fill="none" stroke="black" stroke-dasharray="5,2" d="M521.96,-34C545.73,-34 570.91,-34 594.67,-34"/>
<text text-anchor="middle" x="558.25" y="-35.95" font-family="Times,serif" font-size="9.00">loads</text>
</g>
<!-- QCanServerSettings -->
<g id="node12" class="node">
<title>QCanServerSettings</title>
<polygon fill="white" stroke="black" points="232,-52 16,-52 16,-16 232,-16 232,-52"/>
<text text-anchor="middle" x="124" y="-30.12" font-family="Times,serif" font-size="10.00">QCanServerSettings</text>
</g>
<!-- QCanServerSettings&#45;&gt;QCanServer -->
<g id="edge9" class="edge">
<title>QCanServerSettings&#45;&gt;QCanServer</title>
<path fill="none" stroke="black" stroke-dasharray="5,2" d="M232.46,-34C256.23,-34 281.41,-34 305.17,-34"/>
<text text-anchor="middle" x="268.75" y="-35.95" font-family="Times,serif" font-size="9.00">configures</text>
</g>
<!-- QCanServerLoggerView -->
<g id="node14" class="node">
<title>QCanServerLoggerView</title>
<polygon fill="white" stroke="black" points="232,-468 16,-468 16,-432 232,-432 232,-468"/>
<text text-anchor="middle" x="124" y="-446.12" font-family="Times,serif" font-size="10.00">QCanServerLoggerView</text>
</g>
<!-- QCanServerLogger -->
<g id="node15" class="node">
<title>QCanServerLogger</title>
<polygon fill="white" stroke="black" points="521.5,-468 305.5,-468 305.5,-432 521.5,-432 521.5,-468"/>
<text text-anchor="middle" x="413.5" y="-446.12" font-family="Times,serif" font-size="10.00">QCanServerLogger</text>
</g>
<!-- QCanServerLoggerView&#45;&gt;QCanServerLogger -->
<g id="edge3" class="edge">
<title>QCanServerLoggerView&#45;&gt;QCanServerLogger</title>
<path fill="none" stroke="black" d="M232.46,-450C252.42,-450 273.38,-450 293.65,-450"/>
<polygon fill="none" stroke="black" points="293.65,-453.5 303.65,-450 293.65,-446.5 293.65,-453.5"/>
</g>
</g>
</svg>
